<svg width="18" height="18" viewBox="0 0 18 18" fill="none" xmlns="http://www.w3.org/2000/svg">
<path d="M14.4644 0H3.53561C2.59786 6.50966e-05 1.69854 0.372643 1.03548 1.03577C0.37243 1.6989 -4.33969e-05 2.59827 3.79236e-09 3.53602V14.464C-4.33969e-05 15.4017 0.37243 16.3011 1.03548 16.9642C1.69854 17.6274 2.59786 17.9999 3.53561 18H14.4644C15.4021 17.9999 16.3015 17.6274 16.9645 16.9642C17.6276 16.3011 18 15.4017 18 14.464V3.53602C18 2.59827 17.6276 1.6989 16.9645 1.03577C16.3015 0.372643 15.4021 6.50966e-05 14.4644 0ZM9 3.32386C9.24273 3.32386 9.48001 3.39584 9.68184 3.5307C9.88366 3.66555 10.041 3.85722 10.1339 4.08148C10.2267 4.30573 10.251 4.5525 10.2037 4.79057C10.1563 5.02863 10.0394 5.24731 9.86781 5.41895C9.69617 5.59059 9.4775 5.70747 9.23943 5.75483C9.00136 5.80218 8.7546 5.77788 8.53034 5.68499C8.30609 5.5921 8.11441 5.4348 7.97956 5.23297C7.84471 5.03115 7.77273 4.79387 7.77273 4.55114C7.77273 4.22564 7.90203 3.91348 8.13219 3.68332C8.36234 3.45317 8.67451 3.32386 9 3.32386ZM10.6875 14.7273H7.41477C7.19778 14.7273 6.98967 14.6411 6.83623 14.4876C6.68279 14.3342 6.59659 14.1261 6.59659 13.9091C6.59659 13.6921 6.68279 13.484 6.83623 13.3305C6.98967 13.1771 7.19778 13.0909 7.41477 13.0909H8.18182V8.18182H7.41477C7.19778 8.18182 6.98967 8.09562 6.83623 7.94218C6.68279 7.78874 6.59659 7.58063 6.59659 7.36364C6.59659 7.14664 6.68279 6.93853 6.83623 6.78509C6.98967 6.63166 7.19778 6.54545 7.41477 6.54545H9.81818V13.0909H10.6875C10.9045 13.0909 11.1126 13.1771 11.266 13.3305C11.4195 13.484 11.5057 13.6921 11.5057 13.9091C11.5057 14.1261 11.4195 14.3342 11.266 14.4876C11.1126 14.6411 10.9045 14.7273 10.6875 14.7273Z" fill="black"/>
</svg>
