<svg width="500" height="158" viewBox="0 0 500 158" fill="none" xmlns="http://www.w3.org/2000/svg">
<g filter="url(#filter0_d_293_28)">
<path d="M102.793 126.632C100.233 126.632 97.9926 126.088 96.0726 125C94.2166 123.976 93.2886 122.152 93.2886 119.528C93.2886 117.864 93.7046 116.008 94.5366 113.96C95.6886 115.24 96.7446 116.136 97.7046 116.648C98.7286 117.16 99.8166 117.416 100.969 117.416C104.169 117.416 106.537 115.624 108.073 112.04C109.673 108.456 110.473 104.488 110.473 100.136C110.473 92.008 107.433 87.944 101.353 87.944C99.6246 87.944 98.1526 88.04 96.9366 88.232L89.0646 125H75.2406L88.2966 63.944L102.505 62.024L97.9926 83.336H98.5686C101.001 83.336 103.273 82.568 105.385 81.032C107.497 79.432 109.193 77.448 110.473 75.08C111.753 72.648 112.393 70.216 112.393 67.784C112.393 64.84 111.337 62.376 109.225 60.392C107.177 58.408 104.009 57.416 99.7206 57.416C95.8166 57.416 92.0086 58.312 88.2966 60.104C84.5846 61.832 81.5446 64.456 79.1766 67.976C76.8726 71.496 75.7206 75.752 75.7206 80.744C75.7206 83.112 75.9446 84.776 76.3926 85.736C76.8406 86.632 77.0646 87.144 77.0646 87.272C73.6726 87.272 71.1126 86.6 69.3846 85.256C67.6566 83.848 66.7926 81.576 66.7926 78.44C66.7926 74.088 68.4246 69.96 71.6886 66.056C74.9526 62.152 79.2726 59.016 84.6486 56.648C90.0246 54.216 95.6886 53 101.641 53C106.121 53 109.897 53.704 112.969 55.112C116.041 56.52 118.313 58.376 119.785 60.68C121.321 62.984 122.089 65.512 122.089 68.264C122.089 71.208 121.257 74.056 119.593 76.808C117.929 79.56 115.561 81.8 112.489 83.528C116.329 84.232 119.177 86.024 121.033 88.904C122.889 91.72 123.817 95.08 123.817 98.984C123.817 102.632 123.113 106.6 121.705 110.888C120.361 115.176 118.089 118.888 114.889 122.024C111.753 125.096 107.721 126.632 102.793 126.632ZM141.157 125.384C136.421 125.384 132.677 124.168 129.925 121.736C127.173 119.304 125.797 115.464 125.797 110.216C125.797 105.864 126.693 101.032 128.485 95.72C130.277 90.408 133.157 85.832 137.125 81.992C141.093 78.088 146.085 76.136 152.101 76.136C160.293 76.136 164.389 81.256 164.389 91.496V91.592C164.581 91.656 164.933 91.688 165.445 91.688C167.557 91.688 169.989 91.144 172.741 90.056C175.493 88.904 177.989 87.528 180.229 85.928L181.093 88.52C179.237 90.504 176.805 92.2 173.797 93.608C170.853 94.952 167.621 95.912 164.101 96.488C163.589 102.312 162.277 107.4 160.165 111.752C158.053 116.104 155.333 119.464 152.005 121.832C148.677 124.2 145.061 125.384 141.157 125.384ZM144.997 116.744C146.533 116.744 148.069 115.88 149.605 114.152C151.141 112.36 152.485 109.96 153.637 106.952C154.789 103.88 155.621 100.488 156.133 96.776C154.405 96.392 153.541 95.048 153.541 92.744C153.541 90.12 154.533 88.392 156.517 87.56C156.389 85.448 156.069 84.008 155.557 83.24C155.045 82.408 154.149 81.992 152.869 81.992C150.757 81.992 148.709 83.528 146.725 86.6C144.741 89.672 143.141 93.352 141.925 97.64C140.709 101.928 140.101 105.704 140.101 108.968C140.101 112.04 140.453 114.12 141.157 115.208C141.861 116.232 143.141 116.744 144.997 116.744ZM183.344 125.384C178.608 125.384 174.864 124.168 172.112 121.736C169.36 119.304 167.984 115.464 167.984 110.216C167.984 105.864 168.88 101.032 170.672 95.72C172.464 90.408 175.344 85.832 179.312 81.992C183.28 78.088 188.272 76.136 194.288 76.136C202.48 76.136 206.576 81.256 206.576 91.496V91.592C206.768 91.656 207.12 91.688 207.632 91.688C209.744 91.688 212.176 91.144 214.928 90.056C217.68 88.904 220.176 87.528 222.416 85.928L223.28 88.52C221.424 90.504 218.992 92.2 215.984 93.608C213.04 94.952 209.808 95.912 206.288 96.488C205.776 102.312 204.464 107.4 202.352 111.752C200.24 116.104 197.52 119.464 194.192 121.832C190.864 124.2 187.248 125.384 183.344 125.384ZM187.184 116.744C188.72 116.744 190.256 115.88 191.792 114.152C193.328 112.36 194.672 109.96 195.824 106.952C196.976 103.88 197.808 100.488 198.32 96.776C196.592 96.392 195.728 95.048 195.728 92.744C195.728 90.12 196.72 88.392 198.704 87.56C198.576 85.448 198.256 84.008 197.744 83.24C197.232 82.408 196.336 81.992 195.056 81.992C192.944 81.992 190.896 83.528 188.912 86.6C186.928 89.672 185.328 93.352 184.112 97.64C182.896 101.928 182.288 105.704 182.288 108.968C182.288 112.04 182.64 114.12 183.344 115.208C184.048 116.232 185.328 116.744 187.184 116.744ZM247.612 125.576C243.644 125.576 240.636 124.648 238.588 122.792C236.54 120.872 235.516 118.152 235.516 114.632C235.516 113.096 235.708 111.432 236.092 109.64L236.86 105.896C237.116 104.808 237.244 103.624 237.244 102.344C237.244 99.272 236.092 97.736 233.788 97.736C232.764 97.736 231.676 98.024 230.524 98.6C229.436 99.176 228.156 100.072 226.684 101.288L221.692 125H207.868L221.788 59.72L235.996 57.8L228.796 91.592L247.324 77H256.828L237.628 90.344C238.588 90.088 239.644 89.96 240.796 89.96C244.252 89.96 246.876 91.016 248.668 93.128C250.46 95.24 251.356 97.928 251.356 101.192C251.356 102.536 251.228 103.752 250.972 104.84L249.916 109.64C249.596 110.792 249.436 111.816 249.436 112.712C249.436 115.08 250.684 116.264 253.18 116.264C255.1 116.264 256.636 115.592 257.788 114.248C258.94 112.84 260.092 110.696 261.244 107.816H265.276C261.308 119.656 255.42 125.576 247.612 125.576ZM272.147 125.576C269.075 125.576 266.483 125 264.371 123.848C262.259 122.632 260.691 121.096 259.667 119.24C258.643 117.32 258.131 115.336 258.131 113.288C258.131 111.176 258.643 109.352 259.667 107.816C260.627 106.216 261.811 105.064 263.219 104.36C265.715 99.88 267.891 95.368 269.747 90.824C271.603 86.216 273.363 81.256 275.027 75.944L289.235 74.024C289.555 82.216 290.099 91.08 290.867 100.616C291.187 104.456 291.347 107.24 291.347 108.968C291.347 110.44 291.219 111.656 290.963 112.616C293.971 110.888 296.275 109.288 297.875 107.816H301.907C297.811 112.552 292.915 116.552 287.219 119.816C285.363 121.8 283.059 123.272 280.307 124.232C277.619 125.128 274.899 125.576 272.147 125.576ZM269.075 117.992C271.443 117.992 273.427 117.288 275.027 115.88C276.627 114.472 277.427 112.2 277.427 109.064C277.427 107.144 277.235 104.456 276.851 101C276.211 93.704 275.795 88.808 275.603 86.312C274.067 91.368 271.475 97.416 267.827 104.456C269.299 105.224 270.035 106.344 270.035 107.816C270.035 109.032 269.619 110.12 268.787 111.08C268.019 112.04 267.027 112.52 265.811 112.52C264.467 112.52 263.603 112.104 263.219 111.272C263.219 113.576 263.667 115.272 264.563 116.36C265.523 117.448 267.027 117.992 269.075 117.992ZM332.515 125.576C328.611 125.576 325.731 124.552 323.875 122.504C322.083 120.392 321.187 117.8 321.187 114.728C321.187 113.384 321.347 111.88 321.667 110.216C321.987 108.488 322.307 106.824 322.627 105.224C323.011 103.624 323.267 102.6 323.395 102.152C323.907 99.912 324.387 97.704 324.835 95.528C325.283 93.352 325.507 91.592 325.507 90.248C325.507 86.984 324.355 85.352 322.051 85.352C320.387 85.352 318.915 86.184 317.635 87.848C316.355 89.448 315.331 91.56 314.563 94.184L308.035 125H294.211L308.131 59.72L322.339 57.8L317.155 81.992C320.355 78.408 324.099 76.616 328.387 76.616C331.651 76.616 334.243 77.512 336.163 79.304C338.083 81.096 339.043 83.816 339.043 87.464C339.043 89.32 338.819 91.4 338.371 93.704C337.923 95.944 337.283 98.696 336.451 101.96C335.939 103.944 335.459 105.896 335.011 107.816C334.627 109.672 334.435 111.144 334.435 112.232C334.435 113.512 334.723 114.504 335.299 115.208C335.875 115.912 336.867 116.264 338.275 116.264C340.195 116.264 341.731 115.592 342.883 114.248C344.035 112.84 345.187 110.696 346.339 107.816H350.371C348.003 114.856 345.251 119.592 342.115 122.024C339.043 124.392 335.843 125.576 332.515 125.576ZM360.056 125.576C355.32 125.576 351.64 124.36 349.016 121.928C346.392 119.432 345.08 115.56 345.08 110.312C345.08 105.896 345.944 101.032 347.672 95.72C349.4 90.408 352.216 85.832 356.12 81.992C360.024 78.088 364.984 76.136 371 76.136C378.04 76.136 381.56 79.208 381.56 85.352C381.56 88.936 380.536 92.232 378.488 95.24C376.44 98.248 373.72 100.68 370.328 102.536C366.936 104.328 363.32 105.352 359.48 105.608C359.352 107.528 359.288 108.808 359.288 109.448C359.288 112.584 359.832 114.728 360.92 115.88C362.008 116.968 363.768 117.512 366.2 117.512C369.656 117.512 372.6 116.712 375.032 115.112C377.528 113.512 380.248 111.08 383.192 107.816H386.456C379.352 119.656 370.552 125.576 360.056 125.576ZM360.248 101C362.616 100.872 364.856 100.04 366.968 98.504C369.144 96.968 370.872 95.016 372.152 92.648C373.496 90.28 374.168 87.784 374.168 85.16C374.168 82.536 373.368 81.224 371.768 81.224C369.464 81.224 367.192 83.24 364.952 87.272C362.776 91.304 361.208 95.88 360.248 101ZM392.676 125.576C389.604 125.576 387.108 124.616 385.188 122.696C383.332 120.776 382.404 117.896 382.404 114.056C382.404 112.456 382.66 110.376 383.172 107.816L393.444 59.72L407.652 57.8L396.612 109.64C396.356 110.6 396.228 111.624 396.228 112.712C396.228 113.992 396.516 114.92 397.092 115.496C397.732 116.008 398.756 116.264 400.164 116.264C402.02 116.264 403.748 115.496 405.348 113.96C406.948 112.36 408.1 110.312 408.804 107.816H412.836C410.468 114.728 407.428 119.432 403.716 121.928C400.004 124.36 396.324 125.576 392.676 125.576ZM400.126 149C397.118 149 394.494 148.008 392.254 146.024C389.95 144.104 388.798 141.64 388.798 138.632C388.798 135.88 389.502 133.608 390.91 131.816C392.318 130.024 394.142 128.584 396.382 127.496C398.622 126.472 401.598 125.384 405.31 124.232L416.926 69.416C418.206 63.272 420.446 59.016 423.646 56.648C426.91 54.28 430.494 53.096 434.398 53.096C437.406 53.096 440.03 54.088 442.27 56.072C444.574 57.992 445.726 60.456 445.726 63.464C445.726 64.936 445.63 66.248 445.438 67.4H440.926C441.054 65.992 441.118 65.128 441.118 64.808C441.118 63.784 440.766 62.984 440.062 62.408C439.358 61.832 438.494 61.544 437.47 61.544C436.126 61.544 434.814 62.152 433.534 63.368C432.254 64.52 431.326 66.536 430.75 69.416L429.118 77H436.126L435.454 80.84H428.35L417.31 132.68C416.03 138.888 413.822 143.144 410.686 145.448C407.55 147.816 404.03 149 400.126 149ZM397.918 140.456C400.478 140.456 402.302 137.96 403.39 132.968L404.638 127.4C401.246 128.552 398.654 129.864 396.862 131.336C395.006 132.872 394.078 134.856 394.078 137.288C394.078 138.056 394.462 138.76 395.23 139.4C395.998 140.104 396.894 140.456 397.918 140.456Z" fill="white"/>
</g>
<rect x="249.915" width="11.1702" height="44.2581" fill="white"/>
<rect x="262.681" y="6.32251" width="11.1702" height="37.9355" fill="white"/>
<rect x="237.149" y="12.6453" width="11.1702" height="31.6129" fill="white"/>
<path d="M285.046 12.6453H275.447L281.326 44.2582H291.405L285.046 12.6453Z" fill="white"/>
<path d="M230.766 44.2581H221.191L225.979 14.2258H235.553L230.766 44.2581Z" fill="white"/>
<line x1="218" y1="48" x2="293" y2="48" stroke="white" stroke-width="2"/>
<line x1="63" y1="139.5" x2="459.045" y2="139.5" stroke="white" stroke-width="3"/>
<defs>
<filter id="filter0_d_293_28" x="66.793" y="53" width="387.933" height="105" filterUnits="userSpaceOnUse" color-interpolation-filters="sRGB">
<feFlood flood-opacity="0" result="BackgroundImageFix"/>
<feColorMatrix in="SourceAlpha" type="matrix" values="0 0 0 0 0 0 0 0 0 0 0 0 0 0 0 0 0 0 127 0" result="hardAlpha"/>
<feOffset dx="5" dy="5"/>
<feGaussianBlur stdDeviation="2"/>
<feComposite in2="hardAlpha" operator="out"/>
<feColorMatrix type="matrix" values="0 0 0 0 0 0 0 0 0 0 0 0 0 0 0 0 0 0 0.5 0"/>
<feBlend mode="normal" in2="BackgroundImageFix" result="effect1_dropShadow_293_28"/>
<feBlend mode="normal" in="SourceGraphic" in2="effect1_dropShadow_293_28" result="shape"/>
</filter>
</defs>
</svg>
