<svg width="32" height="32" viewBox="0 0 32 32" fill="none" xmlns="http://www.w3.org/2000/svg">
<g clip-path="url(#clip0_306_2)">
<path d="M32.0001 23.001C32.0001 19.084 29.4941 15.761 26.0021 14.524V4H24.0021V1.999H26.0021V0H3.00206C2.91806 0.004 2.29406 -0.00799999 1.55606 0.354C0.808055 0.686 -0.0339445 1.645 0.00105545 3C0.00105545 3.006 0.00205545 3.012 0.00205545 3.018V30C0.00205545 32 2.00206 32 2.00206 32H23.0831L23.0761 31.996C28.0131 31.955 32.0001 27.946 32.0001 23.001ZM2.85306 3.981C2.67506 3.955 2.41806 3.869 2.27406 3.743C2.13606 3.609 2.01706 3.5 2.00206 3C2.03506 2.354 2.19606 2.314 2.44906 2.144C2.57906 2.079 2.73806 2.037 2.85306 2.019C2.97006 1.997 3.00006 2.005 3.00206 1.999H22.0021V4H3.00206C3.00006 4 2.97006 4.002 2.85306 3.981ZM4.00006 30V6H24.0001V14.06C23.6711 14.023 23.3371 14 22.9981 14C20.8561 14 18.8921 14.751 17.3471 16H6.00006V18H15.5161C15.1031 18.616 14.7731 19.289 14.5211 20H6.00006V22H14.0571C14.0211 22.329 13.9981 22.662 13.9981 23.001C13.9981 25.83 15.3051 28.351 17.3461 30H4.00006ZM23.0001 30C19.1351 29.992 16.0061 26.865 16.0001 23.001C16.0061 19.136 19.1351 16.006 23.0001 16.001C26.8651 16.007 29.9921 19.136 30.0001 23.001C29.9921 26.865 26.8651 29.992 23.0001 30ZM22.0001 12H6.00006V14H22.0001V12Z" fill="white"/>
<path d="M28 22H24.002V18H22V22H18V24H22V28H24.002V24H28V22Z" fill="white"/>
</g>
<defs>
<clipPath id="clip0_306_2">
<rect width="32" height="32" fill="white"/>
</clipPath>
</defs>
</svg>
