<svg width="155" height="112" viewBox="0 0 155 112" fill="none" xmlns="http://www.w3.org/2000/svg">
<path d="M6.8624 57.4779C6.8164 63.3579 6.76642 69.4359 10.1284 72.8199C11.6354 74.3409 13.6274 75.1099 16.0504 75.1099C20.8634 75.1099 23.9044 73.8829 25.6084 72.8569C26.6754 72.2109 27.8934 71.8719 29.1254 71.8719H144.794C146.109 71.8719 147.171 70.8089 147.171 69.4949C147.171 68.1809 146.108 67.1179 144.794 67.1179H141.031C141.021 67.0579 141.01 66.9989 141 66.9389C140.783 65.6249 140.608 64.1349 140.48 62.4989C140.44 62.0309 140.408 61.5449 140.377 61.0419C140.293 59.5699 140.246 57.9789 140.237 56.2939C140.233 56.0999 140.233 55.9069 140.233 55.7099V55.5769C140.233 55.3319 140.233 55.0869 140.238 54.8389C140.251 53.1399 140.305 51.5489 140.397 50.0979C140.421 49.6479 140.453 49.1889 140.5 48.6509C140.635 47.0199 140.82 45.5289 141.047 44.2159C141.058 44.1529 141.069 44.0929 141.08 44.0309H144.796C146.111 44.0309 147.173 42.9639 147.173 41.6489C147.173 40.3339 146.11 39.2719 144.796 39.2719H29.1254C27.8934 39.2719 26.6754 38.9329 25.6084 38.2869C23.9044 37.2609 20.8634 36.0339 16.0504 36.0339C13.6274 36.0339 11.6354 36.8029 10.1284 38.3239C6.76642 41.7089 6.8174 47.7859 6.8624 53.6669C6.8674 54.3079 6.8714 54.9449 6.8714 55.5719V55.5769C6.8724 56.2039 6.8674 56.8359 6.8624 57.4779ZM11.9144 46.2739C12.2544 44.7779 12.6724 43.5039 13.1544 42.4889C13.3354 42.1089 13.5264 41.7739 13.7234 41.4759C14.1314 41.1419 14.8024 40.7929 16.0504 40.7929C19.7694 40.7929 21.9674 41.6449 23.1534 42.3589C23.3014 42.4469 23.4504 42.5309 23.5994 42.6109C22.7454 44.7949 21.8024 48.7469 21.8024 55.5749C21.8024 62.3879 22.7544 66.3499 23.6044 68.5289C23.4534 68.6109 23.3034 68.6959 23.1534 68.7839C21.9674 69.4979 19.7684 70.3499 16.0504 70.3499C14.5524 70.3499 13.8794 69.8459 13.5044 69.4709C11.5394 67.4879 11.5804 62.1889 11.6174 57.5129C11.6224 56.8579 11.6314 56.2119 11.6314 55.5759V55.5709C11.6314 54.9349 11.6224 54.2839 11.6174 53.6289C11.6014 51.3829 11.5824 48.9889 11.7844 46.8919C11.8274 46.6859 11.8684 46.4749 11.9144 46.2739ZM138.327 48.4669C138.327 48.4739 138.326 48.4799 138.325 48.4869H104.972C104.534 48.4869 104.179 48.8419 104.179 49.2799C104.179 49.7179 104.534 50.0729 104.972 50.0729H138.214C138.124 51.5189 138.071 53.1069 138.058 54.7859H83.9274C82.5654 54.7859 82.2084 55.1389 82.2084 55.5779C82.2084 56.0129 82.5654 56.3699 83.0004 56.3699H138.058C138.067 58.0209 138.114 59.5999 138.197 61.0739H125.309C124.869 61.0739 124.517 61.4309 124.517 61.8659C124.517 62.3059 124.87 62.6579 125.309 62.6579H138.307C138.308 62.6649 138.308 62.6719 138.309 62.6789C138.436 64.2969 138.61 65.7869 138.824 67.1189H29.1254C27.8984 67.1189 26.6874 67.3169 25.5254 67.6969C24.8014 65.8099 23.9034 62.1449 23.9034 55.5759C23.9034 49.0219 24.8064 45.3479 25.5294 43.4539C26.6904 43.8329 27.8994 44.0309 29.1254 44.0309H138.869C138.645 45.3609 138.462 46.8499 138.327 48.4669Z" fill="white"/>
<path d="M32.5904 62.513H56.2014C56.5584 62.513 56.8484 62.223 56.8484 61.866C56.8484 61.508 56.5584 61.219 56.2014 61.219H32.5904C32.2334 61.219 31.9434 61.508 31.9434 61.866C31.9434 62.223 32.2334 62.513 32.5904 62.513Z" fill="white"/>
<path d="M153.998 91.799V91.607C153.998 90.984 154.003 90.343 154.012 89.702C154.058 83.826 154.104 77.744 150.742 74.36C149.24 72.844 147.243 72.075 144.82 72.075C140.007 72.075 136.966 73.298 135.262 74.324C134.195 74.97 132.981 75.309 131.745 75.309H2.37701C1.06301 75.309 0 76.372 0 77.686C0 79 1.06301 80.068 2.37701 80.068H6.112C6.122 80.129 6.13301 80.188 6.14401 80.25C6.67201 83.365 6.94 87.187 6.94 91.609V91.799C6.936 93.679 6.88401 95.444 6.78601 97.046C6.75401 97.587 6.71801 98.105 6.67801 98.601C6.55101 100.154 6.37101 101.625 6.14401 102.977C6.13401 103.038 6.12301 103.096 6.11301 103.156H2.37802C1.06402 103.156 0.00100708 104.219 0.00100708 105.533C0.00100708 106.847 1.06402 107.91 2.37802 107.91H131.745C132.982 107.91 134.195 108.253 135.262 108.895C136.966 109.921 140.007 111.148 144.82 111.148C147.243 111.148 149.24 110.378 150.742 108.858C154.104 105.473 154.058 99.396 154.012 93.516C154.003 92.935 153.998 92.362 153.998 91.799ZM149.254 93.549C149.291 98.225 149.332 103.529 147.367 105.507C146.991 105.883 146.318 106.386 144.821 106.386C141.102 106.386 138.908 105.534 137.722 104.82C137.573 104.732 137.422 104.652 137.272 104.571C138.127 102.388 139.069 98.435 139.069 91.605C139.069 84.792 138.117 80.831 137.267 78.651C137.419 78.569 137.571 78.488 137.722 78.399C138.908 77.68 141.102 76.828 144.821 76.828C146.319 76.828 146.992 77.332 147.367 77.712C149.332 79.691 149.29 84.989 149.254 89.665C149.249 90.32 149.245 90.97 149.245 91.607V91.799C149.244 92.372 149.249 92.958 149.254 93.549ZM8.849 98.776C8.851 98.749 8.85301 98.72 8.85501 98.693H22.027C22.467 98.693 22.819 98.34 22.819 97.901C22.819 97.466 22.466 97.109 22.027 97.109H8.96402C9.05102 95.66 9.10001 94.078 9.11301 92.405H64.336C64.771 92.405 65.128 92.048 65.128 91.613C65.128 91.173 64.771 90.821 63.408 90.821H9.11099C9.09899 89.165 9.049 87.592 8.961 86.108H42.362C42.8 86.108 43.155 85.753 43.155 85.315C43.155 84.877 42.8 84.522 42.362 84.522H8.85001C8.72001 82.919 8.544 81.428 8.319 80.066H131.743C132.969 80.066 134.183 79.868 135.344 79.485C136.068 81.373 136.966 85.037 136.966 91.605C136.966 98.163 136.062 101.837 135.338 103.73C134.181 103.351 132.968 103.153 131.742 103.153H8.32101C8.54401 101.791 8.722 100.322 8.849 98.776Z" fill="white"/>
<path d="M114.746 97.2539H79.8469C79.5249 97.2539 79.2259 97.4739 79.1739 97.7919C79.1079 98.1969 79.4189 98.5469 79.8119 98.5469H115.057C115.707 97.9769 115.311 97.2539 114.746 97.2539Z" fill="white"/>
<path d="M23.7016 20.329C23.6926 21.909 23.6446 23.472 23.5566 24.975C23.5256 25.515 23.4846 26.033 23.4436 26.529C23.3146 28.112 23.1366 29.582 22.9146 30.9C22.9046 30.961 22.8936 31.019 22.8836 31.079H19.1486C17.8346 31.079 16.7666 32.146 16.7666 33.461C16.7666 34.771 17.8336 35.838 19.1486 35.838H114.983C115.003 35.838 115.024 35.84 115.044 35.84C115.871 35.973 116.615 36.112 117.309 36.253C117.721 36.404 118.12 36.593 118.5 36.822C120.204 37.848 123.245 39.071 128.058 39.071C130.481 39.071 132.473 38.302 133.98 36.786C137.342 33.401 137.291 27.319 137.246 21.443C137.241 20.848 137.237 20.248 137.237 19.666V19.538C137.237 18.911 137.242 18.274 137.246 17.633C137.292 11.752 137.342 5.675 133.98 2.29C132.473 0.769001 130.481 0 128.058 0C123.244 0 120.204 1.227 118.5 2.253C117.433 2.894 116.215 3.238 114.983 3.238H19.1486C17.8346 3.238 16.7666 4.301 16.7666 5.615C16.7666 6.929 17.8336 7.992 19.1486 7.992H22.8836C22.8936 8.053 22.9046 8.111 22.9156 8.173C23.1366 9.486 23.3146 10.958 23.4446 12.547C23.4856 13.042 23.5266 13.56 23.5576 14.101C23.6456 15.604 23.6946 17.168 23.7026 18.763C23.7066 19.018 23.7066 19.273 23.7066 19.537V19.665C23.7056 19.884 23.7056 20.101 23.7016 20.329ZM120.954 6.325C122.14 5.61 124.339 4.759 128.057 4.759C129.555 4.759 130.228 5.263 130.603 5.638C132.568 7.621 132.526 12.92 132.49 17.596C132.485 18.251 132.476 18.901 132.476 19.538V19.666C132.476 20.261 132.485 20.87 132.49 21.48C132.527 26.156 132.568 31.455 130.603 33.433C130.227 33.813 129.554 34.317 128.057 34.317C124.338 34.317 122.14 33.465 120.954 32.746C120.808 32.658 120.658 32.579 120.508 32.497C121.362 30.314 122.305 26.363 122.305 19.54C122.305 12.721 121.352 8.758 120.502 6.578C120.653 6.496 120.805 6.414 120.954 6.325ZM114.982 7.992C116.204 7.992 117.417 7.794 118.575 7.415C119.302 9.312 120.205 12.986 120.205 19.541C120.205 26.093 119.301 29.766 118.578 31.659C117.422 31.277 116.207 31.08 114.983 31.08H25.0916C25.3096 29.749 25.4866 28.282 25.6156 26.709C25.6426 26.382 25.6686 26.042 25.6926 25.696H38.9836C39.4236 25.696 39.7756 25.343 39.7756 24.904C39.7756 24.469 39.4226 24.112 38.9836 24.112H25.7836C25.8406 22.88 25.8746 21.62 25.8806 20.358C25.8856 20.131 25.8856 19.9 25.8856 19.668V19.54C25.8856 19.494 25.8846 19.454 25.8846 19.409H81.2926C81.7276 19.409 82.0846 19.052 82.0846 18.617C82.0846 18.177 81.7276 17.825 81.2926 17.825H25.8706C25.8506 16.517 25.8056 15.226 25.7326 13.977C25.7156 13.682 25.6956 13.394 25.6746 13.112H59.3206C59.7586 13.112 60.1136 12.757 60.1136 12.319C60.1136 11.881 59.7586 11.526 59.3206 11.526H25.5386C25.4186 10.266 25.2696 9.081 25.0916 7.994H114.982V7.992Z" fill="white"/>
<path d="M82.855 25.5501H106.466C106.823 25.5501 107.113 25.2601 107.113 24.9031C107.113 24.5461 106.823 24.2561 106.466 24.2561H82.855C82.498 24.2561 82.208 24.5461 82.208 24.9031C82.208 25.2601 82.498 25.5501 82.855 25.5501Z" fill="white"/>
</svg>
