<svg width="70" height="70" viewBox="0 0 70 70" fill="none" xmlns="http://www.w3.org/2000/svg">
<path d="M47.0996 40.7422C49.1504 37.5156 50.3535 33.6875 50.3535 29.5723C50.3535 18.0742 41.043 8.75 29.5586 8.75C18.0605 8.75 8.75 18.0742 8.75 29.5723C8.75 41.0703 18.0605 50.3945 29.5449 50.3945C33.7148 50.3945 37.5977 49.1641 40.8516 47.0586L41.7949 46.4023L56.6426 61.25L61.25 56.5605L46.416 41.7129L47.0996 40.7422ZM41.207 17.9375C44.3105 21.041 46.0195 25.1699 46.0195 29.5586C46.0195 33.9473 44.3105 38.0762 41.207 41.1797C38.1035 44.2832 33.9746 45.9922 29.5859 45.9922C25.1973 45.9922 21.0684 44.2832 17.9648 41.1797C14.8613 38.0762 13.1523 33.9473 13.1523 29.5586C13.1523 25.1699 14.8613 21.041 17.9648 17.9375C21.0684 14.834 25.1973 13.125 29.5859 13.125C33.9746 13.125 38.1035 14.834 41.207 17.9375Z" fill="#ADADAD"/>
<path d="M40.6113 22.4696H40.5907C40.1962 22.4729 40.135 22.0313 40.1282 21.8263V18.6197C40.1282 18.2774 39.913 18 39.648 18H32.5336C30.7487 18 30.0828 18.8525 29.9175 19.1202L29.8722 19.2014L29.8718 19.2028L29.7311 19.4514C29.5421 19.7858 29.3773 19.6434 29.2981 19.5339L29.0288 19.1012L28.8956 18.8943C28.6718 18.5914 28.0883 18 26.9318 18H19.3523C19.0867 18 18.8714 18.2774 18.8714 18.6197V21.7854C18.8714 22.3397 18.6378 22.4511 18.4946 22.4696H18.388C18.2714 22.4789 18 22.5661 18 23.2095V38.2979C18 38.668 18.2329 38.9677 18.5201 38.9677H25.4376C27.6445 38.9677 28.6062 40.0401 28.8946 40.4515L29.0591 40.7141C29.0591 40.7141 29.5007 41.3574 29.9658 40.7141L30.0622 40.5684L30.0637 40.5675L30.1868 40.382C30.1904 40.3764 30.2199 40.3337 30.2627 40.2771C30.631 39.8156 31.5513 38.9677 33.3511 38.9677H40.4799C40.7675 38.9677 41 38.668 41 38.2979V23.0633C41 22.5179 40.6937 22.4724 40.6113 22.4696ZM39.057 35.9304C39.057 36.2277 38.8644 36.4676 38.6247 36.4676H32.7593C30.672 36.4676 29.9143 37.6828 29.9143 37.6828L29.8182 37.8489L29.7732 37.9291C29.5741 38.2775 29.2812 37.9319 29.2797 37.9301L29.1447 37.7125C29.0447 37.5576 28.278 36.4671 26.4224 36.4671H20.3753C20.1367 36.4671 19.9437 36.2268 19.9437 35.93V19.8521C19.9437 19.5553 20.1367 19.315 20.3753 19.315H25.0701C28.5623 19.315 28.8931 21.8713 28.9158 22.6139V33.7953C28.9158 34.608 29.2164 34.7606 29.3859 34.7829H29.6382C29.811 34.7606 30.0856 34.6284 30.0856 33.9943V22.4696H30.0828C30.1087 21.5396 30.3902 19.3145 32.4905 19.3145H38.6247C38.8644 19.3145 39.057 19.5548 39.057 19.8517V35.9304Z" fill="#ADADAD"/>
</svg>
