<svg width="137" height="125" viewBox="0 0 137 125" fill="none" xmlns="http://www.w3.org/2000/svg">
<path d="M63.9329 8.25985C62.8869 7.93885 61.7939 8.29385 61.1239 9.07485C61.0759 9.05485 61.0289 9.03185 60.9799 9.01385C60.9089 8.98685 60.8329 8.95885 60.7569 8.93585L39.6939 2.46285C39.6159 2.43885 39.5359 2.41885 39.4649 2.40185C39.4139 2.38885 39.3619 2.38185 39.3109 2.37085C39.1939 1.34785 38.4889 0.438852 37.4439 0.117852C36.0369 -0.314148 34.5399 0.478853 34.1079 1.88585L0.117935 112.48C-0.314065 113.887 0.47794 115.384 1.88594 115.817C2.93194 116.138 4.02594 115.782 4.69694 115.001C4.74494 115.021 4.79094 115.043 4.83994 115.061C4.91194 115.088 4.98793 115.116 5.06393 115.139L26.1269 121.612C26.2049 121.636 26.2849 121.656 26.3559 121.673C26.4069 121.685 26.4589 121.691 26.5109 121.701C26.6259 122.726 27.3299 123.637 28.3779 123.959C29.7859 124.392 31.2809 123.597 31.7129 122.189L35.6649 109.329L39.0719 98.2428L65.7019 11.5939C66.1329 10.1869 65.3409 8.69285 63.9329 8.25985ZM31.7019 104.053L30.5619 107.762L26.9339 119.566C26.9109 119.561 26.8879 119.561 26.8649 119.555C26.8339 119.548 26.8019 119.54 26.7679 119.53L22.7959 118.309L29.1879 97.5119C29.3079 97.1199 29.0889 96.7058 28.6999 96.5858C28.3249 96.4708 27.9349 96.6658 27.7969 97.0238C27.7889 97.0388 27.7819 97.0619 27.7769 97.0779L21.3849 117.875L17.1869 116.585L28.8359 78.6809C28.9559 78.2889 28.7319 77.8769 28.3469 77.7579L28.3439 77.7569C28.2569 77.7299 28.1739 77.7219 28.0869 77.7279C27.8029 77.7399 27.5459 77.9199 27.4439 78.1959C27.4329 78.2099 27.4269 78.2298 27.4219 78.2458L15.7729 116.15L5.70193 113.055C5.66893 113.045 5.63793 113.033 5.60493 113.02C5.58493 113.012 5.56694 113.001 5.54694 112.993L31.8529 27.3988L35.2599 16.3129L38.8879 4.50685C38.9109 4.51185 38.9329 4.51385 38.9559 4.51985C38.9859 4.52685 39.0189 4.53385 39.0519 4.54485L43.5109 5.91485L28.5669 54.5408C28.4469 54.9308 28.6659 55.3449 29.0569 55.4649C29.4469 55.5849 29.8609 55.3659 29.9809 54.9749L44.9249 6.34885L49.1219 7.63885L40.1409 36.8619C40.0479 37.1659 40.1589 37.4839 40.3999 37.6679C40.4699 37.7179 40.5419 37.7579 40.6299 37.7849L40.6329 37.7859C41.0179 37.9039 41.4359 37.6859 41.5559 37.2969L50.5369 8.07385L60.1189 11.0189C60.1519 11.0289 60.1839 11.0419 60.2159 11.0539C60.2369 11.0619 60.2549 11.0739 60.2749 11.0819L53.5659 32.9128L53.2399 33.9729L31.7019 104.053Z" fill="white"/>
<path d="M43.9989 46.8089C43.6229 46.6939 43.2329 46.8859 43.0959 47.2459C43.0869 47.2609 43.0809 47.2809 43.0759 47.2979L33.8159 77.4289C33.6969 77.8169 33.9129 78.2319 34.3049 78.3519C34.6929 78.4709 35.1089 78.2509 35.2279 77.8629L44.4879 47.7319C44.6079 47.3399 44.3869 46.9279 43.9989 46.8089Z" fill="white"/>
<path d="M96.548 1.51882C95.454 1.51882 94.514 2.17882 94.102 3.12282C94.051 3.11782 94.001 3.10982 93.951 3.10682C93.874 3.10182 93.792 3.09782 93.711 3.09782H71.674C71.592 3.09782 71.511 3.10182 71.44 3.10682C71.387 3.10982 71.336 3.11782 71.284 3.12282C70.872 2.17882 69.931 1.51782 68.837 1.51782C67.365 1.51782 66.167 2.71582 66.167 4.18782V119.888C66.167 121.36 67.365 122.558 68.837 122.558C69.931 122.558 70.872 121.896 71.284 120.953C71.335 120.958 71.386 120.966 71.438 120.969C71.514 120.974 71.595 120.978 71.675 120.978H93.712C93.793 120.978 93.873 120.974 93.947 120.969C94 120.966 94.051 120.958 94.104 120.953C94.515 121.898 95.456 122.56 96.55 122.56C98.023 122.56 99.218 121.361 99.218 119.888V106.435V94.8368V29.2388V17.6408V4.18782C99.216 2.71482 98.021 1.51882 96.548 1.51882ZM93.879 29.2388V94.8368V106.435V118.785C93.856 118.787 93.835 118.793 93.811 118.795C93.778 118.797 93.744 118.8 93.709 118.8H89.554V97.0428C89.554 96.6328 89.222 96.3008 88.816 96.3008C88.423 96.3008 88.108 96.6018 88.081 96.9848C88.078 97.0018 88.078 97.0258 88.078 97.0428V118.8H83.686V79.1458C83.686 78.7358 83.351 78.4078 82.948 78.4078H82.945C82.854 78.4078 82.772 78.4248 82.691 78.4558C82.423 78.5508 82.23 78.7978 82.214 79.0928C82.207 79.1098 82.207 79.1298 82.207 79.1468V118.801H71.672C71.637 118.801 71.603 118.798 71.568 118.796C71.546 118.795 71.526 118.789 71.504 118.787V106.437V94.8388V29.2388V17.6408V5.29082C71.528 5.28882 71.55 5.28282 71.574 5.28082C71.605 5.27882 71.639 5.27582 71.672 5.27582H76.337V56.1468C76.337 56.5548 76.668 56.8858 77.076 56.8858C77.484 56.8858 77.815 56.5548 77.815 56.1468V5.27682H82.206V35.8488C82.206 36.1668 82.406 36.4378 82.69 36.5428C82.771 36.5698 82.853 36.5868 82.944 36.5868H82.947C83.35 36.5868 83.685 36.2548 83.685 35.8488V5.27682H93.708C93.742 5.27682 93.775 5.27882 93.812 5.28182C93.834 5.28282 93.855 5.28882 93.877 5.29082V17.6408V29.2388H93.879Z" fill="white"/>
<path d="M88.8171 44.2229C88.4241 44.2229 88.1081 44.5219 88.0821 44.9059C88.0781 44.9229 88.0781 44.9439 88.0781 44.9619V76.4839C88.0781 76.8899 88.4071 77.2229 88.8171 77.2229C89.2231 77.2229 89.5561 76.8899 89.5561 76.4839V44.9619C89.5561 44.5519 89.2231 44.2229 88.8171 44.2229Z" fill="white"/>
<path d="M133.378 1.51882C132.284 1.51882 131.344 2.17882 130.932 3.12282C130.881 3.11782 130.831 3.10982 130.781 3.10682C130.704 3.10182 130.622 3.09782 130.541 3.09782H108.504C108.422 3.09782 108.34 3.10182 108.27 3.10682C108.217 3.10982 108.166 3.11782 108.113 3.12282C107.701 2.17882 106.76 1.51782 105.666 1.51782C104.194 1.51782 102.996 2.71582 102.996 4.18782V119.888C102.996 121.36 104.194 122.558 105.666 122.558C106.76 122.558 107.701 121.896 108.113 120.953C108.164 120.958 108.215 120.966 108.267 120.969C108.343 120.974 108.423 120.978 108.504 120.978H130.541C130.622 120.978 130.702 120.974 130.776 120.969C130.829 120.966 130.88 120.958 130.933 120.953C131.344 121.898 132.285 122.56 133.379 122.56C134.852 122.56 136.047 121.361 136.047 119.888V106.435V94.8368V29.2388V17.6408V4.18782C136.046 2.71482 134.851 1.51882 133.378 1.51882ZM130.71 29.2388V94.8368V106.435V118.785C130.687 118.787 130.666 118.793 130.642 118.795C130.609 118.797 130.575 118.8 130.54 118.8H126.385V97.0428C126.385 96.6328 126.053 96.3008 125.647 96.3008C125.254 96.3008 124.939 96.6018 124.912 96.9848C124.909 97.0018 124.909 97.0258 124.909 97.0428V118.8H120.517V79.1458C120.517 78.7358 120.182 78.4078 119.779 78.4078H119.776C119.685 78.4078 119.603 78.4248 119.522 78.4558C119.254 78.5508 119.061 78.7978 119.044 79.0928C119.037 79.1098 119.037 79.1298 119.037 79.1468V118.801H108.502C108.468 118.801 108.433 118.798 108.398 118.796C108.376 118.795 108.356 118.789 108.334 118.787V106.437V94.8388V29.2388V17.6408V5.29182C108.358 5.28982 108.38 5.28382 108.404 5.28182C108.435 5.27982 108.469 5.27682 108.502 5.27682H113.167V56.1478C113.167 56.5558 113.498 56.8868 113.906 56.8868C114.314 56.8868 114.645 56.5558 114.645 56.1478V5.27682H119.036V35.8488C119.036 36.1668 119.236 36.4378 119.52 36.5428C119.601 36.5698 119.682 36.5868 119.774 36.5868H119.777C120.18 36.5868 120.515 36.2548 120.515 35.8488V5.27682H130.538C130.572 5.27682 130.605 5.27882 130.643 5.28182C130.665 5.28282 130.686 5.28882 130.708 5.29082V17.6408V29.2388H130.71Z" fill="white"/>
<path d="M125.648 44.2229C125.255 44.2229 124.939 44.5219 124.913 44.9059C124.909 44.9229 124.909 44.9439 124.909 44.9619V76.4839C124.909 76.8899 125.238 77.2229 125.648 77.2229C126.054 77.2229 126.387 76.8899 126.387 76.4839V44.9619C126.386 44.5519 126.053 44.2229 125.648 44.2229Z" fill="white"/>
</svg>
