<svg width="143" height="91" viewBox="0 0 143 91" fill="none" xmlns="http://www.w3.org/2000/svg">
<path d="M20.6392 89.1798H29.4845H32.433H47.1753H50.1237H70.7629V9.09982H50.1237V1.81982H29.4845V23.6598H20.6392V1.81982H0V89.1798H17.6907H20.6392ZM67.8144 12.7398V85.5398H50.1237V12.7398H67.8144ZM32.433 5.45982H47.1753V9.09982V85.5398H32.433V23.6598V5.45982ZM29.4845 27.2998V85.5398H20.6392V27.2998H29.4845ZM2.94845 85.5398V5.45982H17.6907V23.6598V85.5398H2.94845Z" fill="white"/>
<path d="M14.7418 78.2598H5.89648V81.8998H14.7418V78.2598Z" fill="white"/>
<path d="M14.7418 69.1597H5.89648V72.7997H14.7418V69.1597Z" fill="white"/>
<path d="M14.7418 60.0596H5.89648V63.6996H14.7418V60.0596Z" fill="white"/>
<path d="M64.8661 78.2598H53.0723V81.8998H64.8661V78.2598Z" fill="white"/>
<path d="M64.8661 69.1597H53.0723V72.7997H64.8661V69.1597Z" fill="white"/>
<path d="M64.8661 60.0596H53.0723V63.6996H64.8661V60.0596Z" fill="white"/>
<path d="M44.2262 56.4199H35.3809V60.0599H44.2262V56.4199Z" fill="white"/>
<path d="M44.2262 63.6997H35.3809V67.3397H44.2262V63.6997Z" fill="white"/>
<path d="M44.2262 10.9197H35.3809V14.5597H44.2262V10.9197Z" fill="white"/>
<path d="M44.2262 18.1997H35.3809V21.8397H44.2262V18.1997Z" fill="white"/>
<path d="M44.2262 70.98H35.3809V74.62H44.2262V70.98Z" fill="white"/>
<path d="M44.2262 78.2598H35.3809V81.8998H44.2262V78.2598Z" fill="white"/>
<path d="M11.7932 12.7397H8.84473V16.3797H11.7932V12.7397Z" fill="white"/>
<path d="M60.4436 20.02H57.4951V23.66H60.4436V20.02Z" fill="white"/>
<path d="M91.2005 89.1801H100.08H103.04H117.84H120.8H141.52V9.10007H120.8V1.82007H100.08V23.6601H91.2005V1.82007H70.4805V89.1801H88.2405H91.2005ZM138.56 12.7401V85.5401H120.8V12.7401H138.56ZM103.04 5.46007H117.84V9.10007V85.5401H103.04V23.6601V5.46007ZM100.08 27.3001V85.5401H91.2005V27.3001H100.08ZM73.4405 85.5401V5.46007H88.2405V23.6601V85.5401H73.4405Z" fill="white"/>
<path d="M85.2804 78.2603H76.4004V81.9003H85.2804V78.2603Z" fill="white"/>
<path d="M85.2804 69.1602H76.4004V72.8002H85.2804V69.1602Z" fill="white"/>
<path d="M85.2804 60.0601H76.4004V63.7001H85.2804V60.0601Z" fill="white"/>
<path d="M135.601 78.2603H123.761V81.9003H135.601V78.2603Z" fill="white"/>
<path d="M135.601 69.1602H123.761V72.8002H135.601V69.1602Z" fill="white"/>
<path d="M135.601 60.0601H123.761V63.7001H135.601V60.0601Z" fill="white"/>
<path d="M114.88 56.4199H106V60.0599H114.88V56.4199Z" fill="white"/>
<path d="M114.88 63.7002H106V67.3402H114.88V63.7002Z" fill="white"/>
<path d="M114.88 10.9202H106V14.5602H114.88V10.9202Z" fill="white"/>
<path d="M114.88 18.2002H106V21.8402H114.88V18.2002Z" fill="white"/>
<path d="M114.88 70.98H106V74.62H114.88V70.98Z" fill="white"/>
<path d="M114.88 78.2603H106V81.9003H114.88V78.2603Z" fill="white"/>
<path d="M82.3204 12.74H79.3604V16.38H82.3204V12.74Z" fill="white"/>
<path d="M131.16 20.02H128.2V23.66H131.16V20.02Z" fill="white"/>
</svg>
