<svg width="193" height="50" viewBox="0 0 193 50" fill="none" xmlns="http://www.w3.org/2000/svg">
<path d="M15 49H21H23H33H35H49V5H35V1H21V13H15V1H1V49H13H15ZM47 7V47H35V7H47ZM23 3H33V5V47H23V13V3ZM21 15V47H15V15H21ZM3 47V3H13V13V47H3Z" fill="white"/>
<path d="M11 43H5V45H11V43Z" fill="white"/>
<path d="M11 38H5V40H11V38Z" fill="white"/>
<path d="M11 33H5V35H11V33Z" fill="white"/>
<path d="M45 43H37V45H45V43Z" fill="white"/>
<path d="M45 38H37V40H45V38Z" fill="white"/>
<path d="M45 33H37V35H45V33Z" fill="white"/>
<path d="M31 31H25V33H31V31Z" fill="white"/>
<path d="M31 35H25V37H31V35Z" fill="white"/>
<path d="M31 6H25V8H31V6Z" fill="white"/>
<path d="M31 10H25V12H31V10Z" fill="white"/>
<path d="M31 39H25V41H31V39Z" fill="white"/>
<path d="M31 43H25V45H31V43Z" fill="white"/>
<path d="M9 7H7V9H9V7Z" fill="white"/>
<path d="M42 11H40V13H42V11Z" fill="white"/>
<path d="M63 49H69H71H81H83H97V5H83V1H69V13H63V1H49V49H61H63ZM95 7V47H83V7H95ZM71 3H81V5V47H71V13V3ZM69 15V47H63V15H69ZM51 47V3H61V13V47H51Z" fill="white"/>
<path d="M59 43H53V45H59V43Z" fill="white"/>
<path d="M59 38H53V40H59V38Z" fill="white"/>
<path d="M59 33H53V35H59V33Z" fill="white"/>
<path d="M93 43H85V45H93V43Z" fill="white"/>
<path d="M93 38H85V40H93V38Z" fill="white"/>
<path d="M93 33H85V35H93V33Z" fill="white"/>
<path d="M79 31H73V33H79V31Z" fill="white"/>
<path d="M79 35H73V37H79V35Z" fill="white"/>
<path d="M79 6H73V8H79V6Z" fill="white"/>
<path d="M79 10H73V12H79V10Z" fill="white"/>
<path d="M79 39H73V41H79V39Z" fill="white"/>
<path d="M79 43H73V45H79V43Z" fill="white"/>
<path d="M57 7H55V9H57V7Z" fill="white"/>
<path d="M90 11H88V13H90V11Z" fill="white"/>
<path d="M110 49H116H118H128H130H144V5H130V1H116V13H110V1H96V49H108H110ZM142 7V47H130V7H142ZM118 3H128V5V47H118V13V3ZM116 15V47H110V15H116ZM98 47V3H108V13V47H98Z" fill="white"/>
<path d="M106 43H100V45H106V43Z" fill="white"/>
<path d="M106 38H100V40H106V38Z" fill="white"/>
<path d="M106 33H100V35H106V33Z" fill="white"/>
<path d="M140 43H132V45H140V43Z" fill="white"/>
<path d="M140 38H132V40H140V38Z" fill="white"/>
<path d="M140 33H132V35H140V33Z" fill="white"/>
<path d="M126 31H120V33H126V31Z" fill="white"/>
<path d="M126 35H120V37H126V35Z" fill="white"/>
<path d="M126 6H120V8H126V6Z" fill="white"/>
<path d="M126 10H120V12H126V10Z" fill="white"/>
<path d="M126 39H120V41H126V39Z" fill="white"/>
<path d="M126 43H120V45H126V43Z" fill="white"/>
<path d="M104 7H102V9H104V7Z" fill="white"/>
<path d="M137 11H135V13H137V11Z" fill="white"/>
<path d="M158 49H164H166H176H178H192V5H178V1H164V13H158V1H144V49H156H158ZM190 7V47H178V7H190ZM166 3H176V5V47H166V13V3ZM164 15V47H158V15H164ZM146 47V3H156V13V47H146Z" fill="white"/>
<path d="M154 43H148V45H154V43Z" fill="white"/>
<path d="M154 38H148V40H154V38Z" fill="white"/>
<path d="M154 33H148V35H154V33Z" fill="white"/>
<path d="M188 43H180V45H188V43Z" fill="white"/>
<path d="M188 38H180V40H188V38Z" fill="white"/>
<path d="M188 33H180V35H188V33Z" fill="white"/>
<path d="M174 31H168V33H174V31Z" fill="white"/>
<path d="M174 35H168V37H174V35Z" fill="white"/>
<path d="M174 6H168V8H174V6Z" fill="white"/>
<path d="M174 10H168V12H174V10Z" fill="white"/>
<path d="M174 39H168V41H174V39Z" fill="white"/>
<path d="M174 43H168V45H174V43Z" fill="white"/>
<path d="M152 7H150V9H152V7Z" fill="white"/>
<path d="M185 11H183V13H185V11Z" fill="white"/>
</svg>
