<svg width="50" height="50" viewBox="0 0 50 50" fill="none" xmlns="http://www.w3.org/2000/svg">
<g clip-path="url(#clip0_223_2)">
<path fill-rule="evenodd" clip-rule="evenodd" d="M14.8046 26.5684L6.93774 34.7117L12.5687 33.4525L17.0406 27.9008C21.4753 27.476 25.8229 26.5045 29.9595 25.0139C33.4426 23.7584 36.7498 22.1438 39.8139 20.2028L33.0241 15.9835C36.4957 15.7365 39.9838 16.2182 43.2101 17.3903C43.9993 16.126 44.6907 14.8149 45.2797 13.4663C46.0615 11.6767 46.4254 10.3598 46.8464 8.83634C47.0802 7.99018 47.3316 7.08031 47.6821 5.99033C48.3297 3.9777 49.1035 1.99926 50 0.0644171C46.3243 -0.148769 40.8636 0.0388792 35.0675 2.28511C19.0915 8.47751 15.2332 24.6253 14.8046 26.5684ZM35.1768 7.91456C27.3012 13.3153 22.3262 19.4066 19.3176 23.9035C23.727 19.3346 28.4424 15.0089 33.4377 10.9502C37.373 7.75245 41.2288 4.92773 44.907 2.43722C41.4821 3.99168 38.2249 5.82523 35.1768 7.91456Z" fill="black"/>
<path d="M4.95018 40.4854C5.14917 39.8936 5.55542 39.3744 6.10916 39.0042C6.85449 38.5279 7.62838 38.5401 8.84202 38.5601C10.1501 38.5823 11.2246 38.6001 12.0717 39.3007C12.4564 39.626 12.7416 40.0339 12.9003 40.4854C13.8531 40.39 15.745 40.3344 16.7089 41.3737C17.0518 41.7424 17.2058 42.1676 17.4542 44.2606C17.6095 45.5364 17.7027 46.6012 17.7598 47.3596C17.8558 47.5846 17.9004 47.8246 17.8908 48.0653C17.8812 48.306 17.8176 48.5425 17.7039 48.7609C17.3226 49.4515 16.376 49.6425 15.9561 49.7313C13.1773 50.3209 3.16141 49.7613 2.54652 49.7258C1.94888 49.7456 1.36311 49.5731 0.895769 49.2395C0.428431 48.9059 0.11057 48.4335 0 47.9081C0.0746945 46.4846 0.261904 45.0676 0.560232 43.6677C0.910534 42.0333 1.18134 41.5392 1.63723 41.1517C2.67944 40.2623 4.29927 40.3977 4.95018 40.4854Z" fill="black"/>
</g>
<defs>
<clipPath id="clip0_223_2">
<rect width="50" height="50" fill="white"/>
</clipPath>
</defs>
</svg>
