<svg width="30" height="30" viewBox="0 0 30 30" fill="none" xmlns="http://www.w3.org/2000/svg">
<circle cx="15" cy="15" r="15" fill="#0D0D0D"/>
<g clip-path="url(#clip0_232_5)">
<path d="M21 13C21 11.4087 20.3679 9.88258 19.2426 8.75736C18.1174 7.63214 16.5913 7 15 7C13.4087 7 11.8826 7.63214 10.7574 8.75736C9.63214 9.88258 9 11.4087 9 13V24H7C6.46957 24 5.96086 23.7893 5.58579 23.4142C5.21071 23.0391 5 22.5304 5 22V18C5 17.4696 5.21071 16.9609 5.58579 16.5858C5.96086 16.2107 6.46957 16 7 16V13C7 10.8783 7.84285 8.84344 9.34315 7.34315C10.8434 5.84285 12.8783 5 15 5C17.1217 5 19.1566 5.84285 20.6569 7.34315C22.1571 8.84344 23 10.8783 23 13V16C23.5304 16 24.0391 16.2107 24.4142 16.5858C24.7893 16.9609 25 17.4696 25 18V22C25 22.5304 24.7893 23.0391 24.4142 23.4142C24.0391 23.7893 23.5304 24 23 24H21V13ZM17 15H20V25H17V15ZM10 15H13V25H10V15Z" fill="#A7A7A7"/>
</g>
<defs>
<clipPath id="clip0_232_5">
<rect width="20" height="20" fill="white" transform="translate(5 5)"/>
</clipPath>
</defs>
</svg>
