<svg width="50" height="44" viewBox="0 0 50 44" fill="none" xmlns="http://www.w3.org/2000/svg">
<path d="M25.4052 30.0878L17.6454 23.4197C18.2942 27.234 21.3385 30.128 25.0082 30.128C25.1473 30.1306 25.2723 30.0964 25.4052 30.0878ZM25.0066 34.2393C18.7941 34.2393 13.7538 28.7165 13.7538 21.9902C13.7538 21.4091 13.8389 20.8535 13.8397 20.2937L6.35186 13.73C4.96323 15.7629 3.75198 18.0133 2.77204 20.4571C2.62278 20.8346 2.43055 21.4852 2.43055 21.9132C2.43055 22.3392 2.55269 22.9917 2.70163 23.3709C6.941 33.9338 15.3299 41.0127 24.9339 41.0127C28.4864 41.0127 31.8708 40.0292 34.9443 38.2616L29.1225 33.2627C27.8277 33.9055 26.4211 34.2393 25.0066 34.2393ZM49.2941 40.1542L41.2061 33.2113C43.6575 30.4756 45.7205 27.1552 47.2397 23.4445C47.3886 23.0653 47.5108 22.4114 47.5108 21.9868C47.5108 21.5609 47.3887 20.9083 47.2397 20.5291C43.0003 9.96621 34.6114 2.88723 25.0074 2.88723C20.1085 2.88723 15.5362 4.76526 11.6603 7.99061L3.03304 0.437921C2.68921 0.14372 2.28129 0 1.87806 0C1.32167 0 0.769105 0.27032 0.400417 0.786563C-0.239356 1.68021 -0.0973665 2.97189 0.718311 3.67123L46.9098 43.3118C47.7304 44.014 48.908 43.8539 49.5425 42.9632C50.2553 42.1486 50.1068 40.8561 49.2941 40.1542ZM36.1892 21.9132C36.1892 24.0403 35.6652 26.0202 34.7865 27.757L31.774 25.1693C32.1835 24.1695 32.4378 23.079 32.4378 21.9098C32.4378 17.4501 29.0776 13.6923 25.0062 13.6923C24.8264 13.6948 24.5706 13.7303 24.3451 13.7579C24.7566 14.5517 24.9363 15.4591 24.9363 16.4349C24.9363 17.3054 24.7362 18.1186 24.4033 18.8453L17.4735 12.8312C19.463 10.8299 22.0934 9.58445 25.0082 9.58445C31.2192 9.58701 36.1892 15.1167 36.1892 21.9132Z" fill="black"/>
</svg>
