<svg width="95" height="95" viewBox="0 0 95 95" fill="none" xmlns="http://www.w3.org/2000/svg">
<path d="M17 57H77" stroke="white" stroke-width="2" stroke-linecap="round"/>
<rect x="42.1611" y="18" width="8.70968" height="37.05" rx="1" fill="white"/>
<rect x="52.8064" y="22.875" width="8.70968" height="32.175" rx="1" fill="white"/>
<rect x="31.5161" y="24.825" width="8.70968" height="30.225" rx="1" fill="white"/>
<path d="M20.8027 29.6515C20.8411 29.1291 21.2761 28.7249 21.8 28.7249H28.4843C29.0728 28.7249 29.534 29.2304 29.4801 29.8164L27.2446 54.1414C27.1973 54.656 26.7656 55.0499 26.2488 55.0499H20.0115C19.4304 55.0499 18.9716 54.5561 19.0142 53.9765L20.8027 29.6515Z" fill="white"/>
<path d="M63.5281 29.796C63.4868 29.2172 63.9452 28.7249 64.5256 28.7249H71.2871C71.8117 28.7249 72.2472 29.1303 72.2845 29.6537L74.0204 53.9787C74.0617 54.5575 73.6032 55.0499 73.0229 55.0499H66.2614C65.7367 55.0499 65.3013 54.6444 65.2639 54.121L63.5281 29.796Z" fill="white"/>
<path fill-rule="evenodd" clip-rule="evenodd" d="M68.0034 76C62.1532 80.3954 54.8808 83 47 83C39.1192 83 31.8468 80.3954 25.9966 76H18.4343C25.694 83.4054 35.8104 88 47 88C58.1896 88 68.306 83.4054 75.5657 76H68.0034ZM12.9185 56C12.3177 53.4307 12 50.7524 12 48C12 28.67 27.67 13 47 13C66.33 13 82 28.67 82 48C82 50.7524 81.6823 53.4307 81.0815 56H86.1999C86.7246 53.4151 87 50.7397 87 48C87 25.9086 69.0914 8 47 8C24.9086 8 7 25.9086 7 48C7 50.7397 7.27544 53.4151 7.80014 56H12.9185Z" fill="white"/>
<path d="M9.02534 74.107C8.38354 74.107 7.82196 73.988 7.34061 73.75C6.87531 73.526 6.64265 73.127 6.64265 72.553C6.64265 72.189 6.74695 71.783 6.95553 71.335C7.24434 71.615 7.50909 71.811 7.74976 71.923C8.00648 72.035 8.27925 72.091 8.56806 72.091C9.37031 72.091 9.96398 71.699 10.3491 70.915C10.7502 70.131 10.9507 69.263 10.9507 68.311C10.9507 66.533 10.1886 65.644 8.66433 65.644C8.23111 65.644 7.86208 65.665 7.55722 65.707L5.58368 73.75H2.11795L5.39114 60.394L8.95314 59.974L7.82196 64.636H7.96637C8.57608 64.636 9.14568 64.468 9.67517 64.132C10.2047 63.782 10.6298 63.348 10.9507 62.83C11.2717 62.298 11.4321 61.766 11.4321 61.234C11.4321 60.59 11.1674 60.051 10.6379 59.617C10.1244 59.183 9.3302 58.966 8.25518 58.966C7.27643 58.966 6.32175 59.162 5.39114 59.554C4.46053 59.932 3.69838 60.506 3.10472 61.276C2.5271 62.046 2.23828 62.977 2.23828 64.069C2.23828 64.587 2.29444 64.951 2.40676 65.161C2.51907 65.357 2.57523 65.469 2.57523 65.497C1.72484 65.497 1.08304 65.35 0.649825 65.056C0.216608 64.748 0 64.251 0 63.565C0 62.613 0.409149 61.71 1.22745 60.856C2.04574 60.002 3.12879 59.316 4.47657 58.798C5.82435 58.266 7.24434 58 8.73653 58C9.85969 58 10.8063 58.154 11.5765 58.462C12.3467 58.77 12.9163 59.176 13.2853 59.68C13.6704 60.184 13.8629 60.737 13.8629 61.339C13.8629 61.983 13.6543 62.606 13.2372 63.208C12.82 63.81 12.2263 64.3 11.4562 64.678C12.4189 64.832 13.1329 65.224 13.5982 65.854C14.0635 66.47 14.2961 67.205 14.2961 68.059C14.2961 68.857 14.1196 69.725 13.7667 70.663C13.4297 71.601 12.8601 72.413 12.0579 73.099C11.2717 73.771 10.2608 74.107 9.02534 74.107Z" fill="white"/>
<path d="M18.6433 73.834C17.456 73.834 16.5174 73.568 15.8274 73.036C15.1375 72.504 14.7925 71.664 14.7925 70.516C14.7925 69.564 15.0172 68.507 15.4664 67.345C15.9157 66.183 16.6377 65.182 17.6325 64.342C18.6273 63.488 19.8788 63.061 21.3871 63.061C23.4408 63.061 24.4677 64.181 24.4677 66.421V66.442C24.5158 66.456 24.6041 66.463 24.7324 66.463C25.2619 66.463 25.8716 66.344 26.5616 66.106C27.2515 65.854 27.8773 65.553 28.4389 65.203L28.6555 65.77C28.1902 66.204 27.5804 66.575 26.8263 66.883C26.0883 67.177 25.278 67.387 24.3955 67.513C24.2671 68.787 23.9382 69.9 23.4087 70.852C22.8792 71.804 22.1973 72.539 21.363 73.057C20.5286 73.575 19.6221 73.834 18.6433 73.834ZM19.6061 71.944C19.9911 71.944 20.3762 71.755 20.7613 71.377C21.1464 70.985 21.4833 70.46 21.7721 69.802C22.0609 69.13 22.2695 68.388 22.3979 67.576C21.9647 67.492 21.7481 67.198 21.7481 66.694C21.7481 66.12 21.9968 65.742 22.4942 65.56C22.4621 65.098 22.3818 64.783 22.2535 64.615C22.1251 64.433 21.9005 64.342 21.5796 64.342C21.0501 64.342 20.5367 64.678 20.0393 65.35C19.5419 66.022 19.1407 66.827 18.8359 67.765C18.531 68.703 18.3786 69.529 18.3786 70.243C18.3786 70.915 18.4669 71.37 18.6433 71.608C18.8198 71.832 19.1407 71.944 19.6061 71.944Z" fill="white"/>
<path d="M29.2199 73.834C28.0326 73.834 27.094 73.568 26.404 73.036C25.7141 72.504 25.3691 71.664 25.3691 70.516C25.3691 69.564 25.5937 68.507 26.043 67.345C26.4923 66.183 27.2143 65.182 28.2091 64.342C29.2039 63.488 30.4554 63.061 31.9636 63.061C34.0174 63.061 35.0443 64.181 35.0443 66.421V66.442C35.0924 66.456 35.1807 66.463 35.309 66.463C35.8385 66.463 36.4482 66.344 37.1382 66.106C37.8281 65.854 38.4538 65.553 39.0154 65.203L39.232 65.77C38.7667 66.204 38.157 66.575 37.4029 66.883C36.6648 67.177 35.8546 67.387 34.9721 67.513C34.8437 68.787 34.5148 69.9 33.9853 70.852C33.4558 71.804 32.7739 72.539 31.9396 73.057C31.1052 73.575 30.1987 73.834 29.2199 73.834ZM30.1826 71.944C30.5677 71.944 30.9528 71.755 31.3379 71.377C31.723 70.985 32.0599 70.46 32.3487 69.802C32.6375 69.13 32.8461 68.388 32.9745 67.576C32.5412 67.492 32.3246 67.198 32.3246 66.694C32.3246 66.12 32.5733 65.742 33.0707 65.56C33.0386 65.098 32.9584 64.783 32.8301 64.615C32.7017 64.433 32.4771 64.342 32.1562 64.342C31.6267 64.342 31.1132 64.678 30.6158 65.35C30.1184 66.022 29.7173 66.827 29.4125 67.765C29.1076 68.703 28.9552 69.529 28.9552 70.243C28.9552 70.915 29.0434 71.37 29.2199 71.608C29.3964 71.832 29.7173 71.944 30.1826 71.944Z" fill="white"/>
<path d="M45.332 73.876C44.3372 73.876 43.5831 73.673 43.0697 73.267C42.5562 72.847 42.2995 72.252 42.2995 71.482C42.2995 71.146 42.3477 70.782 42.4439 70.39L42.6365 69.571C42.7006 69.333 42.7327 69.074 42.7327 68.794C42.7327 68.122 42.4439 67.786 41.8663 67.786C41.6096 67.786 41.3368 67.849 41.048 67.975C40.7752 68.101 40.4543 68.297 40.0853 68.563L38.8338 73.75H35.3681L38.8579 59.47L42.4199 59.05L40.6148 66.442L45.2598 63.25H47.6425L42.829 66.169C43.0697 66.113 43.3344 66.085 43.6232 66.085C44.4897 66.085 45.1475 66.316 45.5968 66.778C46.046 67.24 46.2707 67.828 46.2707 68.542C46.2707 68.836 46.2386 69.102 46.1744 69.34L45.9097 70.39C45.8294 70.642 45.7893 70.866 45.7893 71.062C45.7893 71.58 46.1022 71.839 46.728 71.839C47.2093 71.839 47.5944 71.692 47.8832 71.398C48.172 71.09 48.4608 70.621 48.7496 69.991H49.7605C48.7657 72.581 47.2895 73.876 45.332 73.876Z" fill="white"/>
<path d="M51.4832 73.876C50.713 73.876 50.0632 73.75 49.5337 73.498C49.0042 73.232 48.6111 72.896 48.3544 72.49C48.0977 72.07 47.9693 71.636 47.9693 71.188C47.9693 70.726 48.0977 70.327 48.3544 69.991C48.5951 69.641 48.8919 69.389 49.2449 69.235C49.8707 68.255 50.4162 67.268 50.8815 66.274C51.3468 65.266 51.788 64.181 52.2052 63.019L55.7672 62.599C55.8474 64.391 55.9838 66.33 56.1764 68.416C56.2566 69.256 56.2967 69.865 56.2967 70.243C56.2967 70.565 56.2646 70.831 56.2004 71.041C56.9545 70.663 57.5322 70.313 57.9333 69.991H58.9441C57.9173 71.027 56.6898 71.902 55.2618 72.616C54.7965 73.05 54.2189 73.372 53.5289 73.582C52.855 73.778 52.1731 73.876 51.4832 73.876ZM50.713 72.217C51.3067 72.217 51.8041 72.063 52.2052 71.755C52.6063 71.447 52.8069 70.95 52.8069 70.264C52.8069 69.844 52.7588 69.256 52.6625 68.5C52.502 66.904 52.3978 65.833 52.3496 65.287C51.9645 66.393 51.3147 67.716 50.4001 69.256C50.7692 69.424 50.9537 69.669 50.9537 69.991C50.9537 70.257 50.8494 70.495 50.6408 70.705C50.4483 70.915 50.1996 71.02 49.8947 71.02C49.5578 71.02 49.3412 70.929 49.2449 70.747C49.2449 71.251 49.3572 71.622 49.5818 71.86C49.8225 72.098 50.1996 72.217 50.713 72.217Z" fill="white"/>
<path d="M66.6177 73.876C65.639 73.876 64.917 73.652 64.4517 73.204C64.0024 72.742 63.7778 72.175 63.7778 71.503C63.7778 71.209 63.8179 70.88 63.8981 70.516C63.9783 70.138 64.0586 69.774 64.1388 69.424C64.2351 69.074 64.2992 68.85 64.3313 68.752C64.4597 68.262 64.58 67.779 64.6923 67.303C64.8047 66.827 64.8608 66.442 64.8608 66.148C64.8608 65.434 64.572 65.077 63.9944 65.077C63.5772 65.077 63.2082 65.259 62.8873 65.623C62.5664 65.973 62.3096 66.435 62.1171 67.009L60.4805 73.75H57.0148L60.5046 59.47L64.0666 59.05L62.7669 64.342C63.5692 63.558 64.5078 63.166 65.5828 63.166C66.4011 63.166 67.051 63.362 67.5323 63.754C68.0137 64.146 68.2543 64.741 68.2543 65.539C68.2543 65.945 68.1982 66.4 68.0859 66.904C67.9736 67.394 67.8131 67.996 67.6045 68.71C67.4762 69.144 67.3558 69.571 67.2435 69.991C67.1472 70.397 67.0991 70.719 67.0991 70.957C67.0991 71.237 67.1713 71.454 67.3157 71.608C67.4601 71.762 67.7088 71.839 68.0618 71.839C68.5432 71.839 68.9282 71.692 69.217 71.398C69.5059 71.09 69.7947 70.621 70.0835 69.991H71.0943C70.5007 71.531 69.8107 72.567 69.0245 73.099C68.2543 73.617 67.4521 73.876 66.6177 73.876Z" fill="white"/>
<path d="M73.5223 73.876C72.335 73.876 71.4124 73.61 70.7545 73.078C70.0967 72.532 69.7678 71.685 69.7678 70.537C69.7678 69.571 69.9844 68.507 70.4176 67.345C70.8508 66.183 71.5568 65.182 72.5356 64.342C73.5143 63.488 74.7578 63.061 76.266 63.061C78.031 63.061 78.9135 63.733 78.9135 65.077C78.9135 65.861 78.6567 66.582 78.1433 67.24C77.6299 67.898 76.9479 68.43 76.0975 68.836C75.2472 69.228 74.3406 69.452 73.3779 69.508C73.3458 69.928 73.3298 70.208 73.3298 70.348C73.3298 71.034 73.4662 71.503 73.7389 71.755C74.0117 71.993 74.4529 72.112 75.0626 72.112C75.9291 72.112 76.6672 71.937 77.2769 71.587C77.9026 71.237 78.5845 70.705 79.3226 69.991H80.1409C78.3599 72.581 76.1537 73.876 73.5223 73.876ZM73.5705 68.5C74.1641 68.472 74.7257 68.29 75.2552 67.954C75.8007 67.618 76.2339 67.191 76.5548 66.673C76.8918 66.155 77.0602 65.609 77.0602 65.035C77.0602 64.461 76.8597 64.174 76.4586 64.174C75.8809 64.174 75.3113 64.615 74.7498 65.497C74.2042 66.379 73.8111 67.38 73.5705 68.5Z" fill="white"/>
<path d="M81.7002 73.876C80.9301 73.876 80.3043 73.666 79.8229 73.246C79.3576 72.826 79.125 72.196 79.125 71.356C79.125 71.006 79.1892 70.551 79.3175 69.991L81.8928 59.47L85.4548 59.05L82.687 70.39C82.6228 70.6 82.5907 70.824 82.5907 71.062C82.5907 71.342 82.6629 71.545 82.8073 71.671C82.9678 71.783 83.2245 71.839 83.5775 71.839C84.0428 71.839 84.476 71.671 84.8771 71.335C85.2783 70.985 85.5671 70.537 85.7436 69.991H86.7544C86.1607 71.503 85.3986 72.532 84.468 73.078C83.5374 73.61 82.6148 73.876 81.7002 73.876Z" fill="white"/>
<path d="M83.5679 79C82.8138 79 82.1559 78.783 81.5944 78.349C81.0167 77.929 80.7279 77.39 80.7279 76.732C80.7279 76.13 80.9044 75.633 81.2574 75.241C81.6104 74.849 82.0677 74.534 82.6293 74.296C83.1908 74.072 83.9369 73.834 84.8676 73.582L87.7797 61.591C88.1006 60.247 88.6622 59.316 89.4645 58.798C90.2828 58.28 91.1813 58.021 92.16 58.021C92.9141 58.021 93.572 58.238 94.1336 58.672C94.7112 59.092 95 59.631 95 60.289C95 60.611 94.9759 60.898 94.9278 61.15H93.7966C93.8287 60.842 93.8448 60.653 93.8448 60.583C93.8448 60.359 93.7565 60.184 93.58 60.058C93.4035 59.932 93.1869 59.869 92.9302 59.869C92.5932 59.869 92.2643 60.002 91.9434 60.268C91.6225 60.52 91.3899 60.961 91.2455 61.591L90.8363 63.25H92.5932L92.4248 64.09H90.6438L87.876 75.43C87.5551 76.788 87.0015 77.719 86.2153 78.223C85.4291 78.741 84.5466 79 83.5679 79ZM83.0144 77.131C83.6562 77.131 84.1134 76.585 84.3862 75.493L84.6991 74.275C83.8487 74.527 83.1989 74.814 82.7496 75.136C82.2843 75.472 82.0517 75.906 82.0517 76.438C82.0517 76.606 82.1479 76.76 82.3405 76.9C82.533 77.054 82.7576 77.131 83.0144 77.131Z" fill="white"/>
</svg>
