<svg width="89" height="60" viewBox="0 0 89 60" fill="none" xmlns="http://www.w3.org/2000/svg">
<path d="M21 35H68" stroke="white" stroke-width="2"/>
<path d="M48 5H41V33H48V5Z" fill="white"/>
<path d="M56 9H49V33H56V9Z" fill="white"/>
<path d="M40 13H33V33H40V13Z" fill="white"/>
<path d="M63.015 13H57L60.6842 33H67L63.015 13Z" fill="white"/>
<path d="M29 33H23L26 14H32L29 33Z" fill="white"/>
<path fill-rule="evenodd" clip-rule="evenodd" d="M61.972 51C57.3348 54.7524 51.4299 57 45 57C38.5701 57 32.6652 54.7524 28.028 51H23.5757C29.0205 56.5541 36.6078 60 45 60C53.3922 60 60.9795 56.5541 66.4243 51H61.972ZM18.4621 35C18.1587 33.3797 18 31.7084 18 30C18 15.0883 30.0883 3 45 3C59.9117 3 72 15.0883 72 30C72 31.7084 71.8413 33.3797 71.5379 35H74.5852C74.858 33.374 75 31.7036 75 30C75 13.4315 61.5685 0 45 0C28.4315 0 15 13.4315 15 30C15 31.7036 15.142 33.374 15.4148 35H18.4621Z" fill="white"/>
<path d="M16.8984 49.306C16.4184 49.306 15.9984 49.204 15.6384 49C15.2904 48.808 15.1164 48.466 15.1164 47.974C15.1164 47.662 15.1944 47.314 15.3504 46.93C15.5664 47.17 15.7644 47.338 15.9444 47.434C16.1364 47.53 16.3404 47.578 16.5564 47.578C17.1564 47.578 17.6004 47.242 17.8884 46.57C18.1884 45.898 18.3384 45.154 18.3384 44.338C18.3384 42.814 17.7684 42.052 16.6284 42.052C16.3044 42.052 16.0284 42.07 15.8004 42.106L14.3244 49H11.7324L14.1804 37.552L16.8444 37.192L15.9984 41.188H16.1064C16.5624 41.188 16.9884 41.044 17.3844 40.756C17.7804 40.456 18.0984 40.084 18.3384 39.64C18.5784 39.184 18.6984 38.728 18.6984 38.272C18.6984 37.72 18.5004 37.258 18.1044 36.886C17.7204 36.514 17.1264 36.328 16.3224 36.328C15.5904 36.328 14.8764 36.496 14.1804 36.832C13.4844 37.156 12.9144 37.648 12.4704 38.308C12.0384 38.968 11.8224 39.766 11.8224 40.702C11.8224 41.146 11.8644 41.458 11.9484 41.638C12.0324 41.806 12.0744 41.902 12.0744 41.926C11.4384 41.926 10.9584 41.8 10.6344 41.548C10.3104 41.284 10.1484 40.858 10.1484 40.27C10.1484 39.454 10.4544 38.68 11.0664 37.948C11.6784 37.216 12.4884 36.628 13.4964 36.184C14.5044 35.728 15.5664 35.5 16.6824 35.5C17.5224 35.5 18.2304 35.632 18.8064 35.896C19.3824 36.16 19.8084 36.508 20.0844 36.94C20.3724 37.372 20.5164 37.846 20.5164 38.362C20.5164 38.914 20.3604 39.448 20.0484 39.964C19.7364 40.48 19.2924 40.9 18.7164 41.224C19.4364 41.356 19.9704 41.692 20.3184 42.232C20.6664 42.76 20.8404 43.39 20.8404 44.122C20.8404 44.806 20.7084 45.55 20.4444 46.354C20.1924 47.158 19.7664 47.854 19.1664 48.442C18.5784 49.018 17.8224 49.306 16.8984 49.306ZM24.0917 49.072C23.2037 49.072 22.5017 48.844 21.9857 48.388C21.4697 47.932 21.2117 47.212 21.2117 46.228C21.2117 45.412 21.3797 44.506 21.7157 43.51C22.0517 42.514 22.5917 41.656 23.3357 40.936C24.0797 40.204 25.0157 39.838 26.1437 39.838C27.6797 39.838 28.4477 40.798 28.4477 42.718V42.736C28.4837 42.748 28.5497 42.754 28.6457 42.754C29.0417 42.754 29.4977 42.652 30.0137 42.448C30.5297 42.232 30.9977 41.974 31.4177 41.674L31.5797 42.16C31.2317 42.532 30.7757 42.85 30.2117 43.114C29.6597 43.366 29.0537 43.546 28.3937 43.654C28.2977 44.746 28.0517 45.7 27.6557 46.516C27.2597 47.332 26.7497 47.962 26.1257 48.406C25.5017 48.85 24.8237 49.072 24.0917 49.072ZM24.8117 47.452C25.0997 47.452 25.3877 47.29 25.6757 46.966C25.9637 46.63 26.2157 46.18 26.4317 45.616C26.6477 45.04 26.8037 44.404 26.8997 43.708C26.5757 43.636 26.4137 43.384 26.4137 42.952C26.4137 42.46 26.5997 42.136 26.9717 41.98C26.9477 41.584 26.8877 41.314 26.7917 41.17C26.6957 41.014 26.5277 40.936 26.2877 40.936C25.8917 40.936 25.5077 41.224 25.1357 41.8C24.7637 42.376 24.4637 43.066 24.2357 43.87C24.0077 44.674 23.8937 45.382 23.8937 45.994C23.8937 46.57 23.9597 46.96 24.0917 47.164C24.2237 47.356 24.4637 47.452 24.8117 47.452ZM32.0018 49.072C31.1138 49.072 30.4118 48.844 29.8958 48.388C29.3798 47.932 29.1218 47.212 29.1218 46.228C29.1218 45.412 29.2898 44.506 29.6258 43.51C29.9618 42.514 30.5018 41.656 31.2458 40.936C31.9898 40.204 32.9258 39.838 34.0538 39.838C35.5898 39.838 36.3578 40.798 36.3578 42.718V42.736C36.3938 42.748 36.4598 42.754 36.5558 42.754C36.9518 42.754 37.4078 42.652 37.9238 42.448C38.4398 42.232 38.9078 41.974 39.3278 41.674L39.4898 42.16C39.1418 42.532 38.6858 42.85 38.1218 43.114C37.5698 43.366 36.9638 43.546 36.3038 43.654C36.2078 44.746 35.9618 45.7 35.5658 46.516C35.1698 47.332 34.6598 47.962 34.0358 48.406C33.4118 48.85 32.7338 49.072 32.0018 49.072ZM32.7218 47.452C33.0098 47.452 33.2978 47.29 33.5858 46.966C33.8738 46.63 34.1258 46.18 34.3418 45.616C34.5578 45.04 34.7138 44.404 34.8098 43.708C34.4858 43.636 34.3238 43.384 34.3238 42.952C34.3238 42.46 34.5098 42.136 34.8818 41.98C34.8578 41.584 34.7978 41.314 34.7018 41.17C34.6058 41.014 34.4378 40.936 34.1978 40.936C33.8018 40.936 33.4178 41.224 33.0458 41.8C32.6738 42.376 32.3738 43.066 32.1458 43.87C31.9178 44.674 31.8038 45.382 31.8038 45.994C31.8038 46.57 31.8698 46.96 32.0018 47.164C32.1338 47.356 32.3738 47.452 32.7218 47.452ZM44.052 49.108C43.308 49.108 42.744 48.934 42.36 48.586C41.976 48.226 41.784 47.716 41.784 47.056C41.784 46.768 41.82 46.456 41.892 46.12L42.036 45.418C42.084 45.214 42.108 44.992 42.108 44.752C42.108 44.176 41.892 43.888 41.46 43.888C41.268 43.888 41.064 43.942 40.848 44.05C40.644 44.158 40.404 44.326 40.128 44.554L39.192 49H36.6L39.21 36.76L41.874 36.4L40.524 42.736L43.998 40H45.78L42.18 42.502C42.36 42.454 42.558 42.43 42.774 42.43C43.422 42.43 43.914 42.628 44.25 43.024C44.586 43.42 44.754 43.924 44.754 44.536C44.754 44.788 44.73 45.016 44.682 45.22L44.484 46.12C44.424 46.336 44.394 46.528 44.394 46.696C44.394 47.14 44.628 47.362 45.096 47.362C45.456 47.362 45.744 47.236 45.96 46.984C46.176 46.72 46.392 46.318 46.608 45.778H47.364C46.62 47.998 45.516 49.108 44.052 49.108ZM48.6524 49.108C48.0764 49.108 47.5904 49 47.1944 48.784C46.7984 48.556 46.5044 48.268 46.3124 47.92C46.1204 47.56 46.0244 47.188 46.0244 46.804C46.0244 46.408 46.1204 46.066 46.3124 45.778C46.4924 45.478 46.7144 45.262 46.9784 45.13C47.4464 44.29 47.8544 43.444 48.2024 42.592C48.5504 41.728 48.8804 40.798 49.1924 39.802L51.8564 39.442C51.9164 40.978 52.0184 42.64 52.1624 44.428C52.2224 45.148 52.2524 45.67 52.2524 45.994C52.2524 46.27 52.2284 46.498 52.1804 46.678C52.7444 46.354 53.1764 46.054 53.4764 45.778H54.2324C53.4644 46.666 52.5464 47.416 51.4784 48.028C51.1304 48.4 50.6984 48.676 50.1824 48.856C49.6784 49.024 49.1684 49.108 48.6524 49.108ZM48.0764 47.686C48.5204 47.686 48.8924 47.554 49.1924 47.29C49.4924 47.026 49.6424 46.6 49.6424 46.012C49.6424 45.652 49.6064 45.148 49.5344 44.5C49.4144 43.132 49.3364 42.214 49.3004 41.746C49.0124 42.694 48.5264 43.828 47.8424 45.148C48.1184 45.292 48.2564 45.502 48.2564 45.778C48.2564 46.006 48.1784 46.21 48.0224 46.39C47.8784 46.57 47.6924 46.66 47.4644 46.66C47.2124 46.66 47.0504 46.582 46.9784 46.426C46.9784 46.858 47.0624 47.176 47.2304 47.38C47.4104 47.584 47.6924 47.686 48.0764 47.686ZM59.9714 49.108C59.2394 49.108 58.6994 48.916 58.3514 48.532C58.0154 48.136 57.8474 47.65 57.8474 47.074C57.8474 46.822 57.8774 46.54 57.9374 46.228C57.9974 45.904 58.0574 45.592 58.1174 45.292C58.1894 44.992 58.2374 44.8 58.2614 44.716C58.3574 44.296 58.4474 43.882 58.5314 43.474C58.6154 43.066 58.6574 42.736 58.6574 42.484C58.6574 41.872 58.4414 41.566 58.0094 41.566C57.6974 41.566 57.4214 41.722 57.1814 42.034C56.9414 42.334 56.7494 42.73 56.6054 43.222L55.3814 49H52.7894L55.3994 36.76L58.0634 36.4L57.0914 40.936C57.6914 40.264 58.3934 39.928 59.1974 39.928C59.8094 39.928 60.2954 40.096 60.6554 40.432C61.0154 40.768 61.1954 41.278 61.1954 41.962C61.1954 42.31 61.1534 42.7 61.0694 43.132C60.9854 43.552 60.8654 44.068 60.7094 44.68C60.6134 45.052 60.5234 45.418 60.4394 45.778C60.3674 46.126 60.3314 46.402 60.3314 46.606C60.3314 46.846 60.3854 47.032 60.4934 47.164C60.6014 47.296 60.7874 47.362 61.0514 47.362C61.4114 47.362 61.6994 47.236 61.9154 46.984C62.1314 46.72 62.3474 46.318 62.5634 45.778H63.3194C62.8754 47.098 62.3594 47.986 61.7714 48.442C61.1954 48.886 60.5954 49.108 59.9714 49.108ZM65.1353 49.108C64.2473 49.108 63.5573 48.88 63.0653 48.424C62.5733 47.956 62.3273 47.23 62.3273 46.246C62.3273 45.418 62.4893 44.506 62.8133 43.51C63.1373 42.514 63.6653 41.656 64.3973 40.936C65.1293 40.204 66.0593 39.838 67.1873 39.838C68.5073 39.838 69.1673 40.414 69.1673 41.566C69.1673 42.238 68.9753 42.856 68.5913 43.42C68.2073 43.984 67.6973 44.44 67.0613 44.788C66.4253 45.124 65.7473 45.316 65.0273 45.364C65.0033 45.724 64.9913 45.964 64.9913 46.084C64.9913 46.672 65.0933 47.074 65.2973 47.29C65.5013 47.494 65.8313 47.596 66.2873 47.596C66.9353 47.596 67.4873 47.446 67.9433 47.146C68.4113 46.846 68.9213 46.39 69.4733 45.778H70.0853C68.7533 47.998 67.1033 49.108 65.1353 49.108ZM65.1713 44.5C65.6153 44.476 66.0353 44.32 66.4313 44.032C66.8393 43.744 67.1633 43.378 67.4033 42.934C67.6553 42.49 67.7813 42.022 67.7813 41.53C67.7813 41.038 67.6313 40.792 67.3313 40.792C66.8993 40.792 66.4733 41.17 66.0533 41.926C65.6453 42.682 65.3513 43.54 65.1713 44.5ZM71.2515 49.108C70.6755 49.108 70.2075 48.928 69.8475 48.568C69.4995 48.208 69.3255 47.668 69.3255 46.948C69.3255 46.648 69.3735 46.258 69.4695 45.778L71.3955 36.76L74.0595 36.4L71.9895 46.12C71.9415 46.3 71.9175 46.492 71.9175 46.696C71.9175 46.936 71.9715 47.11 72.0795 47.218C72.1995 47.314 72.3915 47.362 72.6555 47.362C73.0035 47.362 73.3275 47.218 73.6275 46.93C73.9275 46.63 74.1435 46.246 74.2755 45.778H75.0315C74.5875 47.074 74.0175 47.956 73.3215 48.424C72.6255 48.88 71.9355 49.108 71.2515 49.108ZM72.6484 53.5C72.0844 53.5 71.5924 53.314 71.1724 52.942C70.7404 52.582 70.5244 52.12 70.5244 51.556C70.5244 51.04 70.6564 50.614 70.9204 50.278C71.1844 49.942 71.5264 49.672 71.9464 49.468C72.3664 49.276 72.9244 49.072 73.6204 48.856L75.7984 38.578C76.0384 37.426 76.4584 36.628 77.0584 36.184C77.6704 35.74 78.3424 35.518 79.0744 35.518C79.6384 35.518 80.1304 35.704 80.5504 36.076C80.9824 36.436 81.1984 36.898 81.1984 37.462C81.1984 37.738 81.1804 37.984 81.1444 38.2H80.2984C80.3224 37.936 80.3344 37.774 80.3344 37.714C80.3344 37.522 80.2684 37.372 80.1364 37.264C80.0044 37.156 79.8424 37.102 79.6504 37.102C79.3984 37.102 79.1524 37.216 78.9124 37.444C78.6724 37.66 78.4984 38.038 78.3904 38.578L78.0844 40H79.3984L79.2724 40.72H77.9404L75.8704 50.44C75.6304 51.604 75.2164 52.402 74.6284 52.834C74.0404 53.278 73.3804 53.5 72.6484 53.5ZM72.2344 51.898C72.7144 51.898 73.0564 51.43 73.2604 50.494L73.4944 49.45C72.8584 49.666 72.3724 49.912 72.0364 50.188C71.6884 50.476 71.5144 50.848 71.5144 51.304C71.5144 51.448 71.5864 51.58 71.7304 51.7C71.8744 51.832 72.0424 51.898 72.2344 51.898Z" fill="white"/>
</svg>
