<svg width="18" height="18" viewBox="0 0 18 18" fill="none" xmlns="http://www.w3.org/2000/svg">
<g clip-path="url(#clip0_138_143)">
<path d="M8.7613 5.21222L2.99974 10.5507V16.3125C2.99974 16.4616 3.05241 16.6047 3.14618 16.7102C3.23995 16.8157 3.36713 16.875 3.49974 16.875L7.00161 16.8648C7.13378 16.864 7.26032 16.8044 7.35355 16.699C7.44678 16.5936 7.49911 16.451 7.49911 16.3023V12.9375C7.49911 12.7883 7.55179 12.6452 7.64556 12.5397C7.73932 12.4342 7.8665 12.375 7.99911 12.375H9.99911C10.1317 12.375 10.2589 12.4342 10.3527 12.5397C10.4464 12.6452 10.4991 12.7883 10.4991 12.9375V16.2998C10.4989 16.3738 10.5117 16.4471 10.5367 16.5156C10.5618 16.584 10.5986 16.6463 10.645 16.6987C10.6915 16.7511 10.7466 16.7927 10.8074 16.8211C10.8682 16.8494 10.9333 16.8641 10.9991 16.8641L14.4997 16.875C14.6323 16.875 14.7595 16.8157 14.8533 16.7102C14.9471 16.6047 14.9997 16.4616 14.9997 16.3125V10.5468L9.23942 5.21222C9.1717 5.15081 9.08734 5.11732 9.00036 5.11732C8.91338 5.11732 8.82902 5.15081 8.7613 5.21222ZM17.8622 8.84069L15.2497 6.41808V1.54858C15.2497 1.4367 15.2102 1.32939 15.1399 1.25027C15.0696 1.17116 14.9742 1.12671 14.8747 1.12671H13.1247C13.0253 1.12671 12.9299 1.17116 12.8596 1.25027C12.7892 1.32939 12.7497 1.4367 12.7497 1.54858V4.10128L9.95192 1.51167C9.68343 1.26311 9.34651 1.12721 8.9988 1.12721C8.65108 1.12721 8.31417 1.26311 8.04567 1.51167L0.135361 8.84069C0.0973883 8.876 0.0659719 8.91938 0.0429069 8.96835C0.0198419 9.01733 0.00558032 9.07093 0.000937001 9.12611C-0.00370631 9.18128 0.00135966 9.23695 0.0158455 9.28992C0.0303313 9.34289 0.053953 9.39214 0.0853609 9.43483L0.882236 10.5247C0.913558 10.5675 0.952085 10.603 0.99561 10.6291C1.03914 10.6552 1.0868 10.6713 1.13589 10.6766C1.18497 10.682 1.23451 10.6763 1.28166 10.6601C1.32881 10.6439 1.37265 10.6173 1.41067 10.582L8.7613 3.77081C8.82902 3.7094 8.91338 3.67591 9.00036 3.67591C9.08734 3.67591 9.1717 3.7094 9.23942 3.77081L16.5904 10.582C16.6283 10.6173 16.6721 10.6439 16.7192 10.6602C16.7663 10.6765 16.8157 10.6822 16.8648 10.677C16.9138 10.6717 16.9615 10.6557 17.005 10.6297C17.0485 10.6038 17.0871 10.5685 17.1185 10.5257L17.9154 9.43589C17.9467 9.39294 17.9703 9.34345 17.9846 9.29024C17.9989 9.23704 18.0037 9.18118 17.9988 9.12587C17.9938 9.07056 17.9792 9.01689 17.9558 8.96795C17.9324 8.91901 17.9006 8.87576 17.8622 8.84069Z" fill="black"/>
</g>
<defs>
<clipPath id="clip0_138_143">
<rect width="18" height="18" fill="white"/>
</clipPath>
</defs>
</svg>
