<svg width="155" height="177" viewBox="0 0 155 177" fill="none" xmlns="http://www.w3.org/2000/svg">
<path d="M6.8624 122.478C6.8164 128.358 6.76642 134.436 10.1284 137.82C11.6354 139.341 13.6274 140.11 16.0504 140.11C20.8634 140.11 23.9044 138.883 25.6084 137.857C26.6754 137.211 27.8934 136.872 29.1254 136.872H144.794C146.109 136.872 147.171 135.809 147.171 134.495C147.171 133.181 146.108 132.118 144.794 132.118H141.031C141.021 132.058 141.01 131.999 141 131.939C140.783 130.625 140.608 129.135 140.48 127.499C140.44 127.031 140.408 126.545 140.377 126.042C140.293 124.57 140.246 122.979 140.237 121.294C140.233 121.1 140.233 120.907 140.233 120.71V120.577C140.233 120.332 140.233 120.087 140.238 119.839C140.251 118.14 140.305 116.549 140.397 115.098C140.421 114.648 140.453 114.189 140.5 113.651C140.635 112.02 140.82 110.529 141.047 109.216C141.058 109.153 141.069 109.093 141.08 109.031H144.796C146.111 109.031 147.173 107.964 147.173 106.649C147.173 105.334 146.11 104.272 144.796 104.272H29.1254C27.8934 104.272 26.6754 103.933 25.6084 103.287C23.9044 102.261 20.8634 101.034 16.0504 101.034C13.6274 101.034 11.6354 101.803 10.1284 103.324C6.76642 106.709 6.8174 112.786 6.8624 118.667C6.8674 119.308 6.8714 119.945 6.8714 120.572V120.577C6.8724 121.204 6.8674 121.836 6.8624 122.478ZM11.9144 111.274C12.2544 109.778 12.6724 108.504 13.1544 107.489C13.3354 107.109 13.5264 106.774 13.7234 106.476C14.1314 106.142 14.8024 105.793 16.0504 105.793C19.7694 105.793 21.9674 106.645 23.1534 107.359C23.3014 107.447 23.4504 107.531 23.5994 107.611C22.7454 109.795 21.8024 113.747 21.8024 120.575C21.8024 127.388 22.7544 131.35 23.6044 133.529C23.4534 133.611 23.3034 133.696 23.1534 133.784C21.9674 134.498 19.7684 135.35 16.0504 135.35C14.5524 135.35 13.8794 134.846 13.5044 134.471C11.5394 132.488 11.5804 127.189 11.6174 122.513C11.6224 121.858 11.6314 121.212 11.6314 120.576V120.571C11.6314 119.935 11.6224 119.284 11.6174 118.629C11.6014 116.383 11.5824 113.989 11.7844 111.892C11.8274 111.686 11.8684 111.475 11.9144 111.274ZM138.327 113.467C138.327 113.474 138.326 113.48 138.325 113.487H104.972C104.534 113.487 104.179 113.842 104.179 114.28C104.179 114.718 104.534 115.073 104.972 115.073H138.214C138.124 116.519 138.071 118.107 138.058 119.786H83.9274C82.5654 119.786 82.2084 120.139 82.2084 120.578C82.2084 121.013 82.5654 121.37 83.0004 121.37H138.058C138.067 123.021 138.114 124.6 138.197 126.074H125.309C124.869 126.074 124.517 126.431 124.517 126.866C124.517 127.306 124.87 127.658 125.309 127.658H138.307C138.308 127.665 138.308 127.672 138.309 127.679C138.436 129.297 138.61 130.787 138.824 132.119H29.1254C27.8984 132.119 26.6874 132.317 25.5254 132.697C24.8014 130.81 23.9034 127.145 23.9034 120.576C23.9034 114.022 24.8064 110.348 25.5294 108.454C26.6904 108.833 27.8994 109.031 29.1254 109.031H138.869C138.645 110.361 138.462 111.85 138.327 113.467Z" fill="black"/>
<path d="M32.5904 127.513H56.2014C56.5584 127.513 56.8484 127.223 56.8484 126.866C56.8484 126.508 56.5584 126.219 56.2014 126.219H32.5904C32.2334 126.219 31.9434 126.508 31.9434 126.866C31.9434 127.223 32.2334 127.513 32.5904 127.513Z" fill="black"/>
<path d="M153.998 156.799V156.607C153.998 155.984 154.003 155.343 154.012 154.702C154.058 148.826 154.104 142.744 150.742 139.36C149.24 137.844 147.243 137.075 144.82 137.075C140.007 137.075 136.966 138.298 135.262 139.324C134.195 139.97 132.981 140.309 131.745 140.309H2.37701C1.06301 140.309 0 141.372 0 142.686C0 144 1.06301 145.068 2.37701 145.068H6.112C6.122 145.129 6.13301 145.188 6.14401 145.25C6.67201 148.365 6.94 152.187 6.94 156.609V156.799C6.936 158.679 6.88401 160.444 6.78601 162.046C6.75401 162.587 6.71801 163.105 6.67801 163.601C6.55101 165.154 6.37101 166.625 6.14401 167.977C6.13401 168.038 6.12301 168.096 6.11301 168.156H2.37802C1.06402 168.156 0.00100708 169.219 0.00100708 170.533C0.00100708 171.847 1.06402 172.91 2.37802 172.91H131.745C132.982 172.91 134.195 173.253 135.262 173.895C136.966 174.921 140.007 176.148 144.82 176.148C147.243 176.148 149.24 175.378 150.742 173.858C154.104 170.473 154.058 164.396 154.012 158.516C154.003 157.935 153.998 157.362 153.998 156.799ZM149.254 158.549C149.291 163.225 149.332 168.529 147.367 170.507C146.991 170.883 146.318 171.386 144.821 171.386C141.102 171.386 138.908 170.534 137.722 169.82C137.573 169.732 137.422 169.652 137.272 169.571C138.127 167.388 139.069 163.435 139.069 156.605C139.069 149.792 138.117 145.831 137.267 143.651C137.419 143.569 137.571 143.488 137.722 143.399C138.908 142.68 141.102 141.828 144.821 141.828C146.319 141.828 146.992 142.332 147.367 142.712C149.332 144.691 149.29 149.989 149.254 154.665C149.249 155.32 149.245 155.97 149.245 156.607V156.799C149.244 157.372 149.249 157.958 149.254 158.549ZM8.849 163.776C8.851 163.749 8.85301 163.72 8.85501 163.693H22.027C22.467 163.693 22.819 163.34 22.819 162.901C22.819 162.466 22.466 162.109 22.027 162.109H8.96402C9.05102 160.66 9.10001 159.078 9.11301 157.405H64.336C64.771 157.405 65.128 157.048 65.128 156.613C65.128 156.173 64.771 155.821 63.408 155.821H9.11099C9.09899 154.165 9.049 152.592 8.961 151.108H42.362C42.8 151.108 43.155 150.753 43.155 150.315C43.155 149.877 42.8 149.522 42.362 149.522H8.85001C8.72001 147.919 8.544 146.428 8.319 145.066H131.743C132.969 145.066 134.183 144.868 135.344 144.485C136.068 146.373 136.966 150.037 136.966 156.605C136.966 163.163 136.062 166.837 135.338 168.73C134.181 168.351 132.968 168.153 131.742 168.153H8.32101C8.54401 166.791 8.722 165.322 8.849 163.776Z" fill="black"/>
<path d="M114.746 162.254H79.8469C79.5249 162.254 79.2259 162.474 79.1739 162.792C79.1079 163.197 79.4189 163.547 79.8119 163.547H115.057C115.707 162.977 115.311 162.254 114.746 162.254Z" fill="black"/>
<path d="M23.7016 85.329C23.6926 86.909 23.6446 88.472 23.5566 89.975C23.5256 90.515 23.4846 91.033 23.4436 91.529C23.3146 93.112 23.1366 94.582 22.9146 95.9C22.9046 95.961 22.8936 96.019 22.8836 96.079H19.1486C17.8346 96.079 16.7666 97.146 16.7666 98.461C16.7666 99.771 17.8336 100.838 19.1486 100.838H114.983C115.003 100.838 115.024 100.84 115.044 100.84C115.871 100.973 116.615 101.112 117.309 101.253C117.721 101.404 118.12 101.593 118.5 101.822C120.204 102.848 123.245 104.071 128.058 104.071C130.481 104.071 132.473 103.302 133.98 101.786C137.342 98.401 137.291 92.319 137.246 86.443C137.241 85.848 137.237 85.248 137.237 84.666V84.538C137.237 83.911 137.242 83.274 137.246 82.633C137.292 76.752 137.342 70.675 133.98 67.29C132.473 65.769 130.481 65 128.058 65C123.244 65 120.204 66.227 118.5 67.253C117.433 67.894 116.215 68.238 114.983 68.238H19.1486C17.8346 68.238 16.7666 69.301 16.7666 70.615C16.7666 71.929 17.8336 72.992 19.1486 72.992H22.8836C22.8936 73.053 22.9046 73.111 22.9156 73.173C23.1366 74.486 23.3146 75.958 23.4446 77.547C23.4856 78.042 23.5266 78.56 23.5576 79.101C23.6456 80.604 23.6946 82.168 23.7026 83.763C23.7066 84.018 23.7066 84.273 23.7066 84.537V84.665C23.7056 84.884 23.7056 85.101 23.7016 85.329ZM120.954 71.325C122.14 70.61 124.339 69.759 128.057 69.759C129.555 69.759 130.228 70.263 130.603 70.638C132.568 72.621 132.526 77.92 132.49 82.596C132.485 83.251 132.476 83.901 132.476 84.538V84.666C132.476 85.261 132.485 85.87 132.49 86.48C132.527 91.156 132.568 96.455 130.603 98.433C130.227 98.813 129.554 99.317 128.057 99.317C124.338 99.317 122.14 98.465 120.954 97.746C120.808 97.658 120.658 97.579 120.508 97.497C121.362 95.314 122.305 91.363 122.305 84.54C122.305 77.721 121.352 73.758 120.502 71.578C120.653 71.496 120.805 71.414 120.954 71.325ZM114.982 72.992C116.204 72.992 117.417 72.794 118.575 72.415C119.302 74.312 120.205 77.986 120.205 84.541C120.205 91.093 119.301 94.766 118.578 96.659C117.422 96.277 116.207 96.08 114.983 96.08H25.0916C25.3096 94.749 25.4866 93.282 25.6156 91.709C25.6426 91.382 25.6686 91.042 25.6926 90.696H38.9836C39.4236 90.696 39.7756 90.343 39.7756 89.904C39.7756 89.469 39.4226 89.112 38.9836 89.112H25.7836C25.8406 87.88 25.8746 86.62 25.8806 85.358C25.8856 85.131 25.8856 84.9 25.8856 84.668V84.54C25.8856 84.494 25.8846 84.454 25.8846 84.409H81.2926C81.7276 84.409 82.0846 84.052 82.0846 83.617C82.0846 83.177 81.7276 82.825 81.2926 82.825H25.8706C25.8506 81.517 25.8056 80.226 25.7326 78.977C25.7156 78.682 25.6956 78.394 25.6746 78.112H59.3206C59.7586 78.112 60.1136 77.757 60.1136 77.319C60.1136 76.881 59.7586 76.526 59.3206 76.526H25.5386C25.4186 75.266 25.2696 74.081 25.0916 72.994H114.982V72.992Z" fill="black"/>
<path d="M82.855 90.5501H106.466C106.823 90.5501 107.113 90.2601 107.113 89.9031C107.113 89.5461 106.823 89.2561 106.466 89.2561H82.855C82.498 89.2561 82.208 89.5461 82.208 89.9031C82.208 90.2601 82.498 90.5501 82.855 90.5501Z" fill="black"/>
<path d="M68.8083 42.4522C68.8083 39.8938 69.2677 37.602 70.1865 35.5767C71.171 33.498 72.3195 31.7125 73.6321 30.2202C75.0104 28.7278 76.7824 26.9956 78.9482 25.0236C81.7703 22.4653 83.8705 20.2267 85.2487 18.308C86.6926 16.336 87.4145 14.0441 87.4145 11.4325C87.4145 9.14067 86.8566 7.35517 85.7409 6.07601C84.6252 4.79685 83.0173 4.15727 80.9171 4.15727C78.7513 4.15727 76.9136 4.79685 75.4041 6.07601C73.9603 7.30188 73.2383 8.84753 73.2383 10.713C73.2383 12.0987 73.6649 13.3779 74.5181 14.5505C75.3713 15.6697 76.5199 16.4958 77.9637 17.0288V17.3486C76.7824 18.2014 75.5354 18.8676 74.2228 19.3473C72.9758 19.827 71.7617 20.0668 70.5803 20.0668C68.4801 20.0668 66.7409 19.4539 65.3627 18.228C64.0501 16.9489 63.3938 15.3233 63.3938 13.3512C63.3938 10.8462 64.2798 8.58104 66.0518 6.5557C67.8895 4.53036 70.3506 2.93141 73.4352 1.75884C76.5199 0.586281 79.9655 0 83.772 0C89.0881 0 93.2884 0.98602 96.3731 2.95806C99.4577 4.9301 101 7.62167 101 11.0328C101 13.1114 100.442 15.0301 99.3264 16.789C98.2107 18.4945 96.7997 20.0135 95.0933 21.346C93.4525 22.6785 91.2539 24.2508 88.4974 26.0629C85.544 28.0882 83.2142 29.7938 81.5078 31.1796C79.8014 32.5653 78.3247 34.2176 77.0777 36.1363C75.8964 38.0017 75.3057 40.107 75.3057 42.4522H68.8083ZM70.8756 61C68.7755 61 66.9378 60.3871 65.3627 59.1612C63.7876 57.882 63 56.363 63 54.6042C63 52.8453 63.7547 51.353 65.2642 50.1271C66.8394 48.9013 68.7098 48.2883 70.8756 48.2883C73.0415 48.2883 74.8791 48.9013 76.3886 50.1271C77.9637 51.353 78.7513 52.8453 78.7513 54.6042C78.7513 56.363 77.9637 57.882 76.3886 59.1612C74.8791 60.3871 73.0415 61 70.8756 61Z" fill="black"/>
</svg>
