<svg width="24" height="25" viewBox="0 0 24 25" fill="none" xmlns="http://www.w3.org/2000/svg">
<g clip-path="url(#clip0_138_104)">
<path d="M20 10.6491H16H8V7.85128C8 5.75289 9.5 3.85436 11.6 3.65451C14 3.45466 16 5.3532 16 7.65143C16 8.25097 16.4 8.65066 17 8.65066H18C18.6 8.65066 19 8.25097 19 7.65143C19 3.85436 16 0.756744 12.2 0.656821C8.3 0.556898 5 3.75443 5 7.65143V10.6491H4C2.9 10.6491 2 11.5484 2 12.6476V19.6422C2 22.44 4.2 24.6383 7 24.6383H17C19.8 24.6383 22 22.44 22 19.6422V12.6476C22 11.5484 21.1 10.6491 20 10.6491ZM13 18.3432V19.6422C13 20.1418 12.5 20.6414 12 20.6414C11.5 20.6414 11 20.1418 11 19.6422V18.3432C10.4 18.0434 10 17.344 10 16.6445C10 15.5453 10.9 14.646 12 14.646C13.1 14.646 14 15.5453 14 16.6445C14 17.344 13.6 18.0434 13 18.3432Z" fill="#ADADAD"/>
</g>
<defs>
<clipPath id="clip0_138_104">
<rect width="24" height="23.9815" fill="white" transform="translate(0 0.656738)"/>
</clipPath>
</defs>
</svg>
