<svg width="18" height="18" viewBox="0 0 18 18" fill="none" xmlns="http://www.w3.org/2000/svg">
<path d="M9 10.5C11.0711 10.5 12.75 8.48528 12.75 6C12.75 3.51472 11.0711 1.5 9 1.5C6.92893 1.5 5.25 3.51472 5.25 6C5.25 8.48528 6.92893 10.5 9 10.5Z" fill="black"/>
<path d="M16.3502 14.3251C15.6752 12.9751 14.4002 11.8501 12.7502 11.1751C12.3002 11.0251 11.7752 11.0251 11.4002 11.2501C10.6502 11.7001 9.90016 11.9251 9.00016 11.9251C8.10016 11.9251 7.35016 11.7001 6.60016 11.2501C6.22516 11.1001 5.70016 11.0251 5.25016 11.2501C3.60016 11.9251 2.32516 13.0501 1.65016 14.4001C1.12516 15.3751 1.95016 16.5001 3.07516 16.5001H14.9252C16.0502 16.5001 16.8752 15.3751 16.3502 14.3251Z" fill="black"/>
</svg>
