<svg width="120" height="150" viewBox="0 0 120 150" fill="none" xmlns="http://www.w3.org/2000/svg">
<path d="M0 78.375V128.18C0 131.52 2.72344 134.332 6.21094 134.508C17.6531 135.094 42.2344 137.461 56.25 146.977V84.4687C42.5156 75.1641 18.7477 72.6562 6.99375 72C3.18516 71.7891 0 74.7187 0 78.375ZM113.016 72C101.276 72.6675 77.5547 75.157 64.0078 84.443C63.7734 84.4687 63.75 84.4922 63.75 84.5391V147C77.8219 137.534 102.352 135.103 113.789 134.513C117.281 134.32 120 131.508 120 128.18V78.375C120 74.7187 116.813 71.7891 113.016 72ZM82.5 49.5C82.5 37.0781 72.4219 27 60 27C47.5781 27 37.5 37.0781 37.5 49.5C37.5 61.9219 47.5781 72 60 72C72.4219 72 82.5 61.9219 82.5 49.5Z" fill="black"/>
</svg>
