<svg width="20" height="20" viewBox="0 0 20 20" fill="none" xmlns="http://www.w3.org/2000/svg">
<path d="M9.9092 11.9994L17.7531 11.9997C18.9957 11.9997 20.0031 13.0071 20.0031 14.2497V15.1548C20.0031 16.2484 19.5256 17.2876 18.6958 18C17.1303 19.344 14.89 20.0008 12 20.0008L11.821 19.9997C12.1231 19.3912 12.0492 18.6435 11.5995 18.1033L11.489 17.9824L9.2591 15.7585C9.7394 14.9314 10 13.9849 10 12.9998C10 12.6581 9.9689 12.3238 9.9092 11.9994ZM4.5 8.4998C6.98528 8.4998 9 10.5145 9 12.9998C9 14.0936 8.6097 15.0962 7.96089 15.8761L10.7827 18.6904C11.076 18.9829 11.0766 19.4578 10.784 19.751C10.5181 20.0176 10.1014 20.0423 9.8076 19.8248L9.7234 19.7523L6.82025 16.8563C6.14274 17.2648 5.34881 17.4998 4.5 17.4998C2.01472 17.4998 0 15.4851 0 12.9998C0 10.5145 2.01472 8.4998 4.5 8.4998ZM4.5 9.9998C2.84315 9.9998 1.5 11.3429 1.5 12.9998C1.5 14.6566 2.84315 15.9998 4.5 15.9998C6.15685 15.9998 7.5 14.6566 7.5 12.9998C7.5 11.3429 6.15685 9.9998 4.5 9.9998ZM12 0.00439453C14.7614 0.00439453 17 2.24297 17 5.00439C17 7.76582 14.7614 10.0044 12 10.0044C9.2386 10.0044 7 7.76582 7 5.00439C7 2.24297 9.2386 0.00439453 12 0.00439453Z" fill="black"/>
</svg>
