<svg width="44" height="37" viewBox="0 0 44 37" fill="none" xmlns="http://www.w3.org/2000/svg">
<path d="M43.7326 17.0217C39.5924 6.89621 31.3882 0 22 0C12.6118 0 4.40688 6.90446 0.264993 17.0217C0.119396 17.4594 0 18.0871 0 18.5C0 18.911 0.119319 19.5406 0.264993 19.9065C4.40917 30.1038 12.6118 37 22 37C31.3882 37 39.5924 30.0972 43.7326 19.9783C43.8778 19.5406 44 18.8386 44 18.5C44 18.0871 43.8778 17.4594 43.7326 17.0217ZM33 18.5C33 25.0617 28.0752 30.3929 22.0076 30.3929C15.9347 30.3929 11 25.0658 11 18.5C11 11.9342 15.9271 6.60714 22 6.60714C28.0729 6.60714 33 11.9342 33 18.5ZM22 10.5714C21.8243 10.5714 21.5722 10.6045 21.3507 10.6375C21.7556 11.3973 22 12.2728 22 13.2143C22 16.1338 19.8115 18.5 17.1111 18.5C16.2403 18.5 15.3618 18.2275 14.7201 17.798C14.6972 18.0458 14.6667 18.3018 14.6667 18.5C14.6667 22.8029 17.9514 26.4286 22 26.4286C26.0486 26.4286 29.3333 22.8781 29.3333 18.5008C29.3333 14.1236 25.9799 10.5714 22 10.5714Z" fill="black"/>
</svg>
