<svg width="22" height="13" viewBox="0 0 22 13" fill="none" xmlns="http://www.w3.org/2000/svg">
<path d="M17.5191 10C17.3226 10 17.1262 9.9254 16.969 9.77621L14.7689 7.57558C14.4546 7.27719 14.4546 6.9415 14.7689 6.64311C15.0832 6.34471 15.6725 6.53121 15.9476 6.8296L17.5191 8.20966L20.6621 5.33765C20.9764 5.03925 21.5264 4.85276 21.8407 5.15115C22.155 5.44954 21.9586 5.97173 21.6443 6.27012L18.0691 9.77621C17.9119 9.9254 17.7155 10 17.5191 10Z" fill="black"/>
<path d="M3.40476 3C3.40476 1.3 4.88016 0 6.80952 0C8.73889 0 10.2143 1.3 10.2143 3C10.2143 4.7 8.73889 6.5 6.80952 6.5C4.88016 6.5 3.40476 4.7 3.40476 3ZM6.80952 8C1.58889 8 0 11.3 0 11.3V13H13.619V11.3C13.619 11.3 12.0302 8 6.80952 8Z" fill="black"/>
</svg>
