<svg width="32" height="32" viewBox="0 0 32 32" fill="none" xmlns="http://www.w3.org/2000/svg">
<g clip-path="url(#clip0_306_2)">
<path d="M32.0001 23.001C32.0001 19.084 29.4941 15.761 26.0021 14.524V4H24.0021V1.999H26.0021V0H3.00206C2.91806 0.004 2.29406 -0.00799999 1.55606 0.354C0.808055 0.686 -0.0339445 1.645 0.00105545 3C0.00105545 3.006 0.00205545 3.012 0.00205545 3.018V30C0.00205545 32 2.00206 32 2.00206 32H23.0831L23.0761 31.996C28.0131 31.955 32.0001 27.946 32.0001 23.001ZM2.85306 3.981C2.67506 3.955 2.41806 3.869 2.27406 3.743C2.13606 3.609 2.01706 3.5 2.00206 3C2.03506 2.354 2.19606 2.314 2.44906 2.144C2.57906 2.079 2.73806 2.037 2.85306 2.019C2.97006 1.997 3.00006 2.005 3.00206 1.999H22.0021V4H3.00206C3.00006 4 2.97006 4.002 2.85306 3.981ZM4.00006 30V6H24.0001V14.06C23.6711 14.023 23.3371 14 22.9981 14C20.8561 14 18.8921 14.751 17.3471 16H6.00006V18H15.5161C15.1031 18.616 14.7731 19.289 14.5211 20H6.00006V22H14.0571C14.0211 22.329 13.9981 22.662 13.9981 23.001C13.9981 25.83 15.3051 28.351 17.3461 30H4.00006ZM23.0001 30C19.1351 29.992 16.0061 26.865 16.0001 23.001C16.0061 19.136 19.1351 16.006 23.0001 16.001C26.8651 16.007 29.9921 19.136 30.0001 23.001C29.9921 26.865 26.8651 29.992 23.0001 30ZM22.0001 12H6.00006V14H22.0001V12Z" fill="white"/>
<path fill-rule="evenodd" clip-rule="evenodd" d="M20.961 23.3143L19.3877 24.943L20.5138 24.6912L21.4082 23.5808C22.2951 23.4959 23.1646 23.3015 23.9919 23.0034C24.6885 22.7523 25.3499 22.4294 25.9628 22.0412L24.6048 21.1973C25.2991 21.1479 25.9967 21.2442 26.642 21.4786C26.7998 21.2258 26.9381 20.9636 27.0559 20.6938C27.2122 20.3359 27.285 20.0725 27.3692 19.7678C27.416 19.5986 27.4662 19.4166 27.5363 19.1986C27.6658 18.796 27.8206 18.4003 27.9999 18.0133C27.2648 17.9707 26.1727 18.0082 25.0135 18.4575C21.8184 19.696 21.0467 22.9257 20.961 23.3143ZM25.0345 19.5832C23.4594 20.6634 22.4644 21.8817 21.8627 22.7811C22.7446 21.8673 23.6876 21.0022 24.6867 20.1904C25.4737 19.5508 26.2448 18.9859 26.9804 18.4877C26.2955 18.7986 25.6441 19.1654 25.0345 19.5832Z" fill="white"/>
<path d="M19.1067 26.3377C19.1512 26.2342 19.242 26.1435 19.3658 26.0789C19.5324 25.9956 19.7054 25.9978 19.9767 26.0013C20.2692 26.0051 20.5094 26.0083 20.6988 26.1307C20.7848 26.1875 20.8486 26.2588 20.884 26.3377C21.097 26.321 21.52 26.3113 21.7355 26.4929C21.8121 26.5573 21.8466 26.6316 21.9021 26.9972C21.9368 27.2201 21.9577 27.4062 21.9704 27.5387C21.9919 27.578 22.0019 27.6199 21.9997 27.662C21.9976 27.704 21.9834 27.7454 21.9579 27.7835C21.8727 27.9042 21.6611 27.9375 21.5672 27.9531C20.946 28.0561 18.7068 27.9583 18.5693 27.9521C18.4357 27.9556 18.3047 27.9254 18.2003 27.8671C18.0958 27.8089 18.0247 27.7263 18 27.6345C18.0167 27.3858 18.0586 27.1382 18.1252 26.8937C18.2036 26.6081 18.2641 26.5218 18.366 26.4541C18.599 26.2987 18.9612 26.3223 19.1067 26.3377Z" fill="white"/>
</g>
<defs>
<clipPath id="clip0_306_2">
<rect width="32" height="32" fill="white"/>
</clipPath>
</defs>
</svg>
