<svg width="100" height="75" viewBox="0 0 100 75" fill="none" xmlns="http://www.w3.org/2000/svg">
<path fill-rule="evenodd" clip-rule="evenodd" d="M30.1218 0.789676L29.7707 0.732495C24.7311 -0.100655 19.5279 -0.299571 14.4736 0.537295L14.225 0.579414C12.3492 0.891824 10.488 1.30582 8.6557 1.84113C8.45525 1.90035 8.25477 1.95928 8.05389 2.01679C6.90583 2.34486 5.78346 2.73499 4.66529 3.16654L4.42904 3.25832C3.68656 3.54624 2.95567 3.85754 2.23107 4.19447L1.99336 4.30597C1.42108 4.57285 0.875369 4.84078 0.396199 5.27708C-0.00431752 5.79531 -0.00265383 6.27991 0.000533781 6.9338C0.00109628 7.04133 0.00126077 7.14887 0.00106669 7.25641C4.92085e-05 7.55514 -0.000182438 7.85385 0.000561943 8.15258C0.00138816 8.48111 0.00128343 8.80963 0.000837062 9.13817C1.61953e-05 9.71415 -0.000170506 10.2901 0.000412468 10.8661C0.00137394 11.7292 0.00149517 12.5923 0.00102336 13.4554C0.000141305 14.9966 0.00025386 16.5379 0.00110785 18.0791C0.0018598 19.4348 0.00233236 20.7904 0.00224948 22.1461L0.00222999 22.4179L0.002152 23.5105C0.00186652 26.9284 0.00262999 30.3462 0.0040995 33.7641C0.00540982 36.8081 0.00597242 39.8521 0.00559207 42.8961L0.00551842 43.4829L0.00548159 43.776L0.00530396 45.237L0.0052693 45.5281C0.00497332 48.0753 0.00528157 50.6224 0.00588019 53.1695L0.00607299 53.9911L0.0062008 54.5363C0.00650619 55.8026 0.00663187 57.0689 0.00650192 58.3352C0.00632689 59.9753 0.00644531 61.6155 0.00752874 63.2556C0.00811832 64.1235 0.00855024 64.9915 0.0081743 65.8594C0.00792081 66.4431 0.00801246 67.0268 0.00863572 67.6104L0.00877988 67.7224C0.00916378 68.0178 0.00954768 68.3133 0.0092856 68.6087C0.00887127 68.9151 0.00859577 69.2214 0.00920978 69.5278L0.00989866 69.8607L0.00895416 70.1727L0.010085 70.4569C0.0101634 70.7055 0.0193812 70.8924 0.0928568 71.1283C0.291957 71.5787 0.598406 71.8762 1.02175 72.0681C1.57616 72.218 2.02132 71.9868 2.50898 71.7228C2.87248 71.5248 3.23931 71.3472 3.61637 71.1813L3.82123 71.0922L4.2025 70.9259L4.57101 70.7669C5.00122 70.5769 5.43259 70.3993 5.87328 70.2394L6.08388 70.1641C6.64109 69.9642 7.19999 69.7757 7.76534 69.6044C8.08847 69.5084 8.41035 69.4116 8.72958 69.3012C9.36814 69.0788 10.0068 68.8953 10.6627 68.7421L10.8221 68.7051C11.162 68.6253 11.5019 68.5459 11.8422 68.4681C11.9991 68.4323 12.1561 68.3965 12.313 68.3602C16.1581 67.4699 20.1424 67.1922 24.0677 67.4586L24.3049 67.4756C27.449 67.7005 30.6051 68.1117 33.6669 68.9409L33.8701 68.9969C34.0902 69.0569 34.3102 69.1171 34.5301 69.1779L34.7397 69.2361C35.3523 69.406 35.964 69.5785 36.572 69.7671C36.7987 69.8382 37.0255 69.9087 37.2537 69.9742C38.0969 70.2132 38.9235 70.4746 39.7436 70.7944C39.9314 70.8683 40.1193 70.941 40.3081 71.012C40.6299 71.1331 40.9496 71.2556 41.2656 71.3935L41.4988 71.4964L41.989 71.7093C42.6695 72.0186 43.2961 72.2492 44.019 71.9637C44.5389 71.6366 45.0687 71.3679 45.6263 71.1228L45.8843 71.0108C47.1143 70.4751 48.3555 69.9965 49.6332 69.6092C49.9611 69.5115 50.2877 69.4129 50.6117 69.3009C51.25 69.0785 51.8884 68.8953 52.5438 68.7421L52.7033 68.7051C53.0432 68.6253 53.3831 68.5459 53.7234 68.4681C53.8803 68.4323 54.0373 68.3965 54.1942 68.3602C57.6565 67.5585 61.2317 67.2536 64.7751 67.3953C62.7869 64.8731 61.3249 61.8509 60.5728 58.5272L60.3609 58.5396C59.0134 58.6166 57.6776 58.7055 56.3445 58.9375L56.1062 58.9797C53.6537 59.3927 51.2392 59.9856 48.8596 60.7477L48.7193 60.7927C48.2549 60.9412 47.7939 61.0894 47.3445 61.2851C47.1504 61.3718 46.959 61.4519 46.7603 61.5264C46.6879 61.5517 46.6373 61.5694 46.5866 61.5872C46.4682 61.6288 46.35 61.6709 45.9553 61.8117L44.7486 62.2709V7.23842C45.0166 7.09391 45.2741 6.96045 45.5508 6.84089L45.6886 6.78217L45.9891 6.6536C46.1442 6.58775 46.2991 6.52181 46.4539 6.45515C47.094 6.17924 47.7355 5.93018 48.3955 5.71472C48.5747 5.65643 48.7533 5.59705 48.9316 5.53551C53.4853 3.9594 58.1883 3.05033 62.9766 3.07951C63.2038 3.08091 63.4309 3.08144 63.658 3.08108C64.8618 3.07905 66.056 3.09062 67.2552 3.21925C67.4675 3.24309 67.6797 3.26592 67.8924 3.28499C69.7885 3.45415 71.681 3.75729 73.5422 4.18369C73.6988 4.2196 73.8554 4.25392 74.013 4.28478C75.6449 4.5914 77.2701 5.02169 78.8522 5.55207C79.1766 5.66147 79.5019 5.76369 79.83 5.85976C80.2989 5.99664 80.7589 6.14172 81.2136 6.32771C81.5185 6.45611 81.8238 6.5822 82.1341 6.69487C82.69 6.89279 83.2385 7.10243 83.7904 7.31496V32.1188C84.7731 32.3227 85.7302 32.6044 86.6561 32.9578L86.6561 31.6807L86.6561 31.3907C86.6562 28.8534 86.6556 26.3162 86.6548 23.7789L86.6547 23.5056L86.6543 22.4173C86.6539 21.1561 86.6536 19.8949 86.6535 18.6337C86.6534 17.0002 86.653 15.3668 86.6516 13.7333C86.6509 12.8689 86.6503 12.0045 86.6505 11.1402C86.6507 10.5589 86.6505 9.97761 86.6497 9.39633L86.6496 9.2877C86.6491 8.99245 86.6487 8.69719 86.6489 8.40194C86.6492 8.09691 86.6495 7.79189 86.6488 7.48686L86.648 7.15498L86.6489 6.8448L86.6477 6.56127C86.6476 6.21804 86.6031 5.95186 86.4878 5.63107C86.2176 5.14871 85.876 4.92847 85.3956 4.73681C85.2639 4.68509 85.1323 4.63302 85.0028 4.57532C84.2106 4.21184 83.4047 3.90086 82.5887 3.60633L82.4195 3.54535C81.8232 3.32937 81.2286 3.11911 80.6196 2.94858C80.3565 2.87548 80.098 2.79869 79.8399 2.70703C79.2178 2.47558 78.5976 2.28756 77.9576 2.12374C77.845 2.09501 77.7324 2.06614 77.6199 2.03714C77.3272 1.96165 77.0345 1.88666 76.7415 1.81232C76.58 1.77133 76.4185 1.73024 76.2571 1.68861C74.8472 1.32332 73.4359 1.02466 72.003 0.789676L71.6519 0.732495C66.6123 -0.100655 61.4091 -0.299571 56.3548 0.537295L56.1062 0.579414C54.2304 0.891824 52.3692 1.30582 50.5369 1.84113C50.3364 1.90035 50.136 1.95928 49.9351 2.01679C48.7812 2.34652 47.6542 2.74117 46.5303 3.17345L46.3102 3.25832C45.6313 3.51707 44.9724 3.81005 44.3138 4.12419C44.1131 4.22198 43.9125 4.3188 43.7098 4.41149C43.3427 4.56774 43.1215 4.59032 42.754 4.42237C42.1453 4.13229 41.5177 3.90002 40.8873 3.67233L40.5471 3.55013C39.9477 3.33279 39.3502 3.11973 38.7378 2.94828C38.4749 2.8753 38.2167 2.79864 37.9588 2.70705C37.3366 2.47558 36.7164 2.28756 36.0764 2.12374C35.9638 2.09501 35.8512 2.06614 35.7387 2.03714C35.446 1.96165 35.1533 1.88666 34.8603 1.81232C34.6988 1.77133 34.5373 1.73024 34.3759 1.68861C32.966 1.32332 31.5547 1.02466 30.1218 0.789676ZM6.51506 5.7127C6.68734 5.65787 6.85909 5.60103 7.03025 5.54228C11.5928 3.96657 16.2981 3.05027 21.0954 3.07951C21.3226 3.08091 21.5497 3.08144 21.7768 3.08108C22.9806 3.07905 24.1748 3.09062 25.374 3.21925C25.5863 3.24309 25.7985 3.26592 26.0112 3.28499C27.9073 3.45415 29.7998 3.75729 31.661 4.18369C31.8176 4.2196 31.9742 4.25392 32.1318 4.28478C33.7637 4.5914 35.3889 5.02169 36.971 5.55207C37.2954 5.66147 37.6207 5.76369 37.9488 5.85976C38.4177 5.99664 38.8777 6.14172 39.3323 6.32771C39.6373 6.45611 39.9426 6.5822 40.2529 6.69487C40.8088 6.89279 41.3573 7.10243 41.9092 7.31496V62.424C41.8771 62.4253 41.856 62.4261 41.8353 62.4239C41.7952 62.4197 41.7564 62.4041 41.6428 62.3586L41.3823 62.2673L40.9433 62.1138C40.7462 62.0447 40.5491 61.9756 40.3519 61.9067L40.2066 61.8559C39.8577 61.734 39.5082 61.6149 39.1574 61.4995C38.9456 61.4302 38.735 61.36 38.526 61.2813L38.5259 61.2813C37.8956 61.0422 37.8956 61.0421 36.4521 60.6568L36.2259 60.5966C36.1585 60.5785 36.0911 60.5605 36.0237 60.5424C34.936 60.2511 33.8483 59.9597 32.7506 59.7149L32.5391 59.6685C31.0158 59.3342 29.4795 59.0821 27.9403 58.8503L27.7831 58.8266C26.5937 58.6449 25.4072 58.5692 24.2077 58.5164L23.9677 58.5061C22.2205 58.4304 20.4862 58.425 18.7396 58.5245L18.4796 58.5396C17.1322 58.6166 15.7964 58.7055 14.4633 58.9375L14.225 58.9797C11.7725 59.3927 9.35801 59.9856 6.97844 60.7477L6.8381 60.7927C6.37374 60.9412 5.91268 61.0894 5.46331 61.2851C5.26921 61.3718 5.07781 61.4519 4.87907 61.5264L4.87904 61.5264C4.63756 61.6107 4.63753 61.6107 4.07411 61.8117L2.86737 62.2709V7.23842C3.40277 6.97197 3.92242 6.71469 4.46983 6.48608L4.69967 6.39169C5.29972 6.1442 5.89939 5.91054 6.51506 5.7127Z" fill="white"/>
<path d="M98.75 53.3656C98.75 64.718 90.2647 73.7502 80 73.7502C69.7353 73.7502 61.25 64.718 61.25 53.3656C61.25 42.0132 69.7353 32.981 80 32.981C90.2647 32.981 98.75 42.0132 98.75 53.3656Z" stroke="white" stroke-width="2.5"/>
<g clip-path="url(#clip0_320_76)">
<path fill-rule="evenodd" clip-rule="evenodd" d="M74.7118 53.4136L71.1455 57.407L73.6982 56.7895L75.7255 54.067C77.7359 53.8587 79.7068 53.3823 81.5821 52.6514C83.161 52.0357 84.6603 51.2439 86.0494 50.2921L82.9713 48.223C84.5451 48.1019 86.1264 48.3381 87.589 48.9128C87.9467 48.2929 88.2602 47.6499 88.5272 46.9886C88.8816 46.111 89.0466 45.4652 89.2374 44.7181C89.3434 44.3032 89.4574 43.857 89.6163 43.3225C89.9098 42.3355 90.2607 41.3653 90.6671 40.4165C89.0008 40.312 86.5252 40.404 83.8977 41.5055C76.6552 44.5422 74.9061 52.4608 74.7118 53.4136ZM83.9472 44.2662C80.3769 46.9146 78.1216 49.9017 76.7577 52.1069C78.7566 49.8664 80.8943 47.7451 83.1588 45.7548C84.9428 44.1867 86.6908 42.8015 88.3582 41.5802C86.8056 42.3425 85.329 43.2416 83.9472 44.2662Z" fill="white"/>
<path d="M70.2441 60.2382C70.3343 59.948 70.5185 59.6934 70.7695 59.5119C71.1074 59.2783 71.4582 59.2843 72.0084 59.2941C72.6014 59.305 73.0885 59.3137 73.4725 59.6573C73.6469 59.8168 73.7762 60.0168 73.8481 60.2382C74.2801 60.1914 75.1377 60.1642 75.5747 60.6738C75.7301 60.8546 75.8 61.0632 75.9126 62.0895C75.983 62.7152 76.0252 63.2373 76.0511 63.6092C76.0947 63.7196 76.1148 63.8372 76.1105 63.9553C76.1061 64.0733 76.0773 64.1893 76.0258 64.2964C75.8529 64.6351 75.4238 64.7287 75.2334 64.7723C73.9737 65.0614 69.4332 64.787 69.1544 64.7695C68.8835 64.7793 68.6179 64.6947 68.4061 64.5311C68.1942 64.3675 68.0501 64.1358 68 63.8782C68.0339 63.1801 68.1187 62.4853 68.254 61.7988C68.4128 60.9973 68.5355 60.755 68.7422 60.5649C69.2147 60.1288 69.949 60.1952 70.2441 60.2382Z" fill="white"/>
</g>
<defs>
<clipPath id="clip0_320_76">
<rect width="22.6667" height="24.5192" fill="white" transform="translate(68 40.3848)"/>
</clipPath>
</defs>
</svg>
