<svg width="24" height="25" viewBox="0 0 24 25" fill="none" xmlns="http://www.w3.org/2000/svg">
<path d="M12 14.6807C14.7614 14.6807 17 11.9965 17 8.68532C17 5.37416 14.7614 2.68994 12 2.68994C9.23858 2.68994 7 5.37416 7 8.68532C7 11.9965 9.23858 14.6807 12 14.6807Z" fill="#000"/>
<path d="M21.8 19.7767C20.9 17.9781 19.2 16.4793 17 15.58C16.4 15.3801 15.7 15.3801 15.2 15.6799C14.2 16.2794 13.2 16.5792 12 16.5792C10.8 16.5792 9.79997 16.2794 8.79997 15.6799C8.29997 15.48 7.59997 15.3801 6.99997 15.6799C4.79997 16.5792 3.09997 18.078 2.19997 19.8766C1.49997 21.1756 2.59997 22.6745 4.09997 22.6745H19.9C21.4 22.6745 22.5 21.1756 21.8 19.7767Z" fill="#000"/>
</svg>
