<svg width="120" height="150" viewBox="0 0 120 150" fill="none" xmlns="http://www.w3.org/2000/svg">
<g clip-path="url(#clip0_228_26)">
<path d="M0 81.028V131.085C0 134.441 2.72344 137.268 6.21094 137.445C17.6531 138.034 42.2344 140.413 56.25 149.977V87.1526C42.5156 77.8008 18.7477 75.2803 6.99375 74.6208C3.18516 74.4088 0 77.3533 0 81.028ZM113.016 74.6208C101.276 75.2916 77.5547 77.7938 64.0078 87.1267C63.7734 87.1526 63.75 87.1761 63.75 87.2232V150C77.8219 140.486 102.352 138.043 113.789 137.449C117.281 137.256 120 134.43 120 131.085V81.028C120 77.3533 116.813 74.4088 113.016 74.6208ZM82.5 52.007C82.5 39.5223 72.4219 29.3932 60 29.3932C47.5781 29.3932 37.5 39.5223 37.5 52.007C37.5 64.4917 47.5781 74.6208 60 74.6208C72.4219 74.6208 82.5 64.4917 82.5 52.007Z" fill="black"/>
</g>
<path d="M34.8926 17.067C33.0359 17.067 31.333 17.9448 30.2344 19.3893C29.1357 17.9448 27.4329 17.067 25.5762 17.067C22.3297 17.067 19.6875 19.7504 19.6875 23.0505C19.6875 24.6005 20.2698 26.0728 21.33 27.195L29.6356 35.6785L30.2344 36.2896L30.8331 35.6785L38.9795 27.3561C40.1331 26.2283 40.7812 24.6949 40.7812 23.0505C40.7812 19.7504 38.139 17.067 34.8926 17.067Z" fill="black"/>
<path d="M94.8926 17.067C93.0359 17.067 91.333 17.9448 90.2344 19.3893C89.1357 17.9448 87.4329 17.067 85.5762 17.067C82.3297 17.067 79.6875 19.7504 79.6875 23.0505C79.6875 24.6005 80.2698 26.0728 81.33 27.195L89.6356 35.6785L90.2344 36.2896L90.8331 35.6785L98.9795 27.3561C100.133 26.2283 100.781 24.6949 100.781 23.0505C100.781 19.7504 98.139 17.067 94.8926 17.067Z" fill="black"/>
<path d="M64.8926 0C63.0359 0 61.333 0.877796 60.2344 2.32227C59.1357 0.877796 57.4329 0 55.5762 0C52.3297 0 49.6875 2.68339 49.6875 5.98345C49.6875 7.53349 50.2698 9.00574 51.33 10.128L59.6356 18.6115L60.2344 19.2226L60.8331 18.6115L68.9795 10.2891C70.1331 9.1613 70.7812 7.62793 70.7812 5.98345C70.7812 2.68339 68.139 0 64.8926 0Z" fill="black"/>
<defs>
<clipPath id="clip0_228_26">
<rect width="120" height="120.607" fill="white" transform="translate(0 29.3932)"/>
</clipPath>
</defs>
</svg>
