<svg width="120" height="150" viewBox="0 0 120 150" fill="none" xmlns="http://www.w3.org/2000/svg">
<path d="M0 81.1458V131.117C0 134.468 2.72344 137.29 6.21094 137.466C17.6531 138.054 42.2344 140.429 56.25 149.977V87.2599C42.5156 77.9242 18.7477 75.408 6.99375 74.7495C3.18516 74.5379 0 77.4774 0 81.1458ZM113.016 74.7495C101.276 75.4193 77.5547 77.9171 64.0078 87.2341C63.7734 87.2599 63.75 87.2835 63.75 87.3305V150C77.8219 140.502 102.352 138.063 113.789 137.471C117.281 137.278 120 134.456 120 131.117V81.1458C120 77.4774 116.813 74.5379 113.016 74.7495ZM82.5 52.1744C82.5 39.711 72.4219 29.5992 60 29.5992C47.5781 29.5992 37.5 39.711 37.5 52.1744C37.5 64.6378 47.5781 74.7495 60 74.7495C72.4219 74.7495 82.5 64.6378 82.5 52.1744Z" fill="black"/>
<path d="M20.78 58.1909H16.85C17.2009 57.5703 17.3857 56.8663 17.3859 56.1497C17.3861 55.433 17.2016 54.729 16.851 54.1082C16.5004 53.4874 15.9961 52.9717 15.3886 52.6129C14.7811 52.2541 14.0918 52.0648 13.39 52.0641H0L0.39 53.412C0.970226 55.1883 0.970226 57.1089 0.39 58.8852L0 60.2331H3.93C3.57893 60.8541 3.3941 61.5584 3.3941 62.2754C3.3941 62.9924 3.57893 63.6967 3.93 64.3177H0L0.39 65.6655C0.970226 67.4419 0.970226 69.3625 0.39 71.1388L0 72.4867H13.39C14.0918 72.486 14.7811 72.2967 15.3886 71.9379C15.9961 71.5791 16.5004 71.0634 16.851 70.4426C17.2016 69.8218 17.3861 69.1178 17.3859 68.4011C17.3857 67.6845 17.2009 66.9805 16.85 66.3599H20.78L20.39 65.012C19.8098 63.2357 19.8098 61.3151 20.39 59.5388L20.78 58.1909ZM18.1 64.3177H7.39C6.85957 64.3177 6.35086 64.1025 5.97579 63.7195C5.60071 63.3365 5.39 62.817 5.39 62.2754C5.39 61.7337 5.60071 61.2143 5.97579 60.8313C6.35086 60.4483 6.85957 60.2331 7.39 60.2331H18.1C17.8399 61.5817 17.8399 62.9691 18.1 64.3177Z" fill="black"/>
<path d="M35.78 30.6203H31.85C32.2009 29.9997 32.3857 29.2957 32.3859 28.5791C32.3861 27.8625 32.2016 27.1584 31.851 26.5376C31.5004 25.9168 30.9961 25.4011 30.3886 25.0423C29.7811 24.6835 29.0918 24.4943 28.39 24.4935H15L15.39 25.8414C15.9702 27.6177 15.9702 29.5384 15.39 31.3147L15 32.6626H18.93C18.5789 33.2835 18.3941 33.9879 18.3941 34.7048C18.3941 35.4218 18.5789 36.1262 18.93 36.7471H15L15.39 38.095C15.9702 39.8713 15.9702 41.7919 15.39 43.5682L15 44.9161H28.39C29.0918 44.9154 29.7811 44.7261 30.3886 44.3673C30.9961 44.0086 31.5004 43.4929 31.851 42.8721C32.2016 42.2513 32.3861 41.5472 32.3859 40.8306C32.3857 40.1139 32.2009 39.41 31.85 38.7894H35.78L35.39 37.4415C34.8098 35.6651 34.8098 33.7445 35.39 31.9682L35.78 30.6203ZM33.1 36.7471H22.39C21.8596 36.7471 21.3509 36.5319 20.9758 36.1489C20.6007 35.7659 20.39 35.2465 20.39 34.7048C20.39 34.1632 20.6007 33.6437 20.9758 33.2607C21.3509 32.8777 21.8596 32.6626 22.39 32.6626H33.1C32.8399 34.0111 32.8399 35.3985 33.1 36.7471Z" fill="black"/>
<path d="M70.78 6.04509H66.85C67.2009 5.43275 67.3857 4.73817 67.3859 4.03109C67.3861 3.32402 67.2016 2.62934 66.851 2.01682C66.5004 1.40429 65.9961 0.895482 65.3886 0.541474C64.7811 0.187467 64.0918 0.000724821 63.39 0H50L50.39 1.32992C50.9702 3.08255 50.9702 4.97757 50.39 6.7302L50 8.06012H53.93C53.5789 8.67277 53.3941 9.36773 53.3941 10.0752C53.3941 10.7826 53.5789 11.4775 53.93 12.0902H50L50.39 13.4201C50.9702 15.1727 50.9702 17.0678 50.39 18.8204L50 20.1503H63.39C64.0918 20.1496 64.7811 19.9628 65.3886 19.6088C65.9961 19.2548 66.5004 18.746 66.851 18.1335C67.2016 17.521 67.3861 16.8263 67.3859 16.1192C67.3857 15.4121 67.2009 14.7176 66.85 14.1052H70.78L70.39 12.7753C69.8098 11.0227 69.8098 9.12764 70.39 7.37501L70.78 6.04509ZM68.1 12.0902H57.39C56.8596 12.0902 56.3509 11.8779 55.9758 11.5C55.6007 11.1221 55.39 10.6096 55.39 10.0752C55.39 9.54073 55.6007 9.0282 55.9758 8.65031C56.3509 8.27242 56.8596 8.06012 57.39 8.06012H68.1C67.8399 9.3907 67.8399 10.7596 68.1 12.0902Z" fill="black"/>
<path d="M106.78 30.6203H102.85C103.201 29.9997 103.386 29.2957 103.386 28.5791C103.386 27.8625 103.202 27.1584 102.851 26.5376C102.5 25.9168 101.996 25.4011 101.389 25.0423C100.781 24.6835 100.092 24.4943 99.39 24.4935H86L86.39 25.8414C86.9702 27.6177 86.9702 29.5384 86.39 31.3147L86 32.6626H89.93C89.5789 33.2835 89.3941 33.9879 89.3941 34.7048C89.3941 35.4218 89.5789 36.1262 89.93 36.7471H86L86.39 38.095C86.9702 39.8713 86.9702 41.7919 86.39 43.5682L86 44.9161H99.39C100.092 44.9154 100.781 44.7261 101.389 44.3673C101.996 44.0086 102.5 43.4929 102.851 42.8721C103.202 42.2513 103.386 41.5472 103.386 40.8306C103.386 40.1139 103.201 39.41 102.85 38.7894H106.78L106.39 37.4415C105.81 35.6651 105.81 33.7445 106.39 31.9682L106.78 30.6203ZM104.1 36.7471H93.39C92.8596 36.7471 92.3509 36.5319 91.9758 36.1489C91.6007 35.7659 91.39 35.2465 91.39 34.7048C91.39 34.1632 91.6007 33.6437 91.9758 33.2607C92.3509 32.8777 92.8596 32.6626 93.39 32.6626H104.1C103.84 34.0111 103.84 35.3985 104.1 36.7471Z" fill="black"/>
<path d="M119.78 58.1909H115.85C116.201 57.5703 116.386 56.8663 116.386 56.1497C116.386 55.433 116.202 54.729 115.851 54.1082C115.5 53.4874 114.996 52.9717 114.389 52.6129C113.781 52.2541 113.092 52.0648 112.39 52.0641H99L99.39 53.412C99.9702 55.1883 99.9702 57.1089 99.39 58.8852L99 60.2331H102.93C102.579 60.8541 102.394 61.5584 102.394 62.2754C102.394 62.9924 102.579 63.6967 102.93 64.3177H99L99.39 65.6655C99.9702 67.4419 99.9702 69.3625 99.39 71.1388L99 72.4867H112.39C113.092 72.486 113.781 72.2967 114.389 71.9379C114.996 71.5791 115.5 71.0634 115.851 70.4426C116.202 69.8218 116.386 69.1178 116.386 68.4011C116.386 67.6845 116.201 66.9805 115.85 66.3599H119.78L119.39 65.012C118.81 63.2357 118.81 61.3151 119.39 59.5388L119.78 58.1909ZM117.1 64.3177H106.39C105.86 64.3177 105.351 64.1025 104.976 63.7195C104.601 63.3365 104.39 62.817 104.39 62.2754C104.39 61.7337 104.601 61.2143 104.976 60.8313C105.351 60.4483 105.86 60.2331 106.39 60.2331H117.1C116.84 61.5817 116.84 62.9691 117.1 64.3177Z" fill="black"/>
</svg>
