<svg width="120" height="150" viewBox="0 0 120 150" fill="none" xmlns="http://www.w3.org/2000/svg">
<path d="M50.4762 11.0013L70.1878 2.57267L87.6942 16.1033L67.4773 25.9112L50.4762 11.0013Z" fill="black"/>
<path d="M87.1014 16.797C87.1452 16.4314 86.9373 16.1009 86.6372 16.0589C86.3371 16.0169 86.0582 16.2793 86.0144 16.645L85.0871 24.3867C85.0433 24.7524 85.2511 25.0828 85.5513 25.1248C85.8514 25.1668 86.1302 24.9044 86.174 24.5387L87.1014 16.797Z" fill="black"/>
<path d="M85.1381 28.7438C86.05 28.8714 86.8972 28.0741 87.0303 26.963C87.1634 25.8519 86.532 24.8478 85.62 24.7202C84.708 24.5927 83.8609 25.39 83.7278 26.5011C83.5947 27.6122 84.2261 28.6163 85.1381 28.7438Z" fill="black"/>
<path d="M83.9555 30.2875C84.2133 30.5925 84.5482 30.7847 84.91 30.8353C85.2718 30.8859 85.641 30.7922 85.9621 30.5682C85.6314 33.8023 85.3008 37.0358 84.9702 40.2686L82.4619 39.9178C82.9598 36.7077 83.4577 33.4976 83.9555 30.2875Z" fill="black"/>
<path d="M57.7188 20.0927L67.2165 27.0889L78.0356 22.9343L72.1213 32.3889C71.5805 33.0145 72.2119 31.4496 66.1265 30.6223C59.991 29.7879 58.0889 29.0093 57.7187 28.2667L57.7188 20.0927Z" fill="black"/>
<path d="M0 80.8684V131.041C0 134.405 2.72344 137.239 6.21094 137.416C17.6531 138.006 42.2344 140.391 56.25 149.976V87.0071C42.5156 77.6338 18.7477 75.1074 6.99375 74.4463C3.18516 74.2338 0 77.1852 0 80.8684ZM113.016 74.4463C101.276 75.1188 77.5547 77.6267 64.0078 86.9812C63.7734 87.0071 63.75 87.0307 63.75 87.078V150C77.8219 140.464 102.352 138.015 113.789 137.42C117.281 137.227 120 134.393 120 131.041V80.8684C120 77.1852 116.813 74.2338 113.016 74.4463ZM82.5 51.7802C82.5 39.2667 72.4219 29.1141 60 29.1141C47.5781 29.1141 37.5 39.2667 37.5 51.7802C37.5 64.2938 47.5781 74.4463 60 74.4463C72.4219 74.4463 82.5 64.2938 82.5 51.7802Z" fill="black"/>
<path d="M105 104.698C104.998 104.791 104.971 104.881 104.921 104.958C104.899 104.99 104.871 105.017 104.838 105.037C104.806 105.057 104.769 105.069 104.732 105.072C104.241 105.103 103.771 105.296 103.392 105.624C102.916 106.139 102.548 106.752 102.309 107.424L96.6305 120.828C96.6305 120.952 96.4915 121.015 96.3227 121.015C96.2596 121.018 96.197 121.002 96.1424 120.969C96.0878 120.936 96.0436 120.887 96.0149 120.828L92.828 113.855L89.1644 120.828C89.1349 120.886 89.0904 120.934 89.036 120.967C88.9816 121 88.9195 121.017 88.8566 121.015C88.7905 121.021 88.7242 121.006 88.6659 120.973C88.6076 120.94 88.56 120.889 88.529 120.828L82.9593 107.424C82.7254 106.763 82.3481 106.168 81.8572 105.686C81.3872 105.319 80.8242 105.106 80.2389 105.072C80.2061 105.071 80.1742 105.061 80.1463 105.042C80.1184 105.024 80.0956 104.999 80.0801 104.968C80.0524 104.938 80.031 104.902 80.0173 104.862C80.0037 104.823 79.998 104.781 80.0006 104.739C80.0006 104.521 80.0602 104.417 80.1793 104.417C80.6758 104.417 81.1722 104.417 81.7381 104.489C82.304 104.562 82.7309 104.562 83.1578 104.562C83.5847 104.562 84.1507 104.562 84.7563 104.489C85.3619 104.417 85.9775 104.417 86.4739 104.417C86.593 104.417 86.6526 104.521 86.6526 104.739C86.6526 104.958 86.6526 105.072 86.5434 105.072C86.1237 105.077 85.7152 105.215 85.3718 105.468C85.2343 105.565 85.1222 105.697 85.0459 105.852C84.9696 106.006 84.9314 106.178 84.935 106.352C84.9488 106.595 85.0096 106.832 85.1137 107.049L89.7204 117.955L92.3415 112.752L89.8991 107.393C89.6336 106.722 89.272 106.097 88.8269 105.541C88.4538 105.247 88.0025 105.083 87.5362 105.072C87.5046 105.071 87.4738 105.061 87.4475 105.043C87.4212 105.024 87.4003 104.998 87.3873 104.968C87.335 104.905 87.3067 104.823 87.3078 104.739C87.3078 104.521 87.3575 104.417 87.4667 104.417C87.9244 104.413 88.3818 104.437 88.8368 104.489C89.2623 104.536 89.6897 104.561 90.1175 104.562C90.5643 104.562 91.0309 104.562 91.5274 104.489C92.0238 104.417 92.5202 104.417 93.0364 104.417C93.1556 104.417 93.2152 104.521 93.2152 104.739C93.2152 104.958 93.2152 105.072 93.1059 105.072C92.1131 105.145 91.6167 105.436 91.6167 105.957C91.6683 106.324 91.7862 106.677 91.9642 106.997L93.5726 110.432L95.181 107.31C95.358 106.974 95.4599 106.6 95.4788 106.217C95.4788 105.499 94.9824 105.114 93.9896 105.072C93.9002 105.072 93.8605 104.958 93.8605 104.739C93.8616 104.662 93.8822 104.587 93.9201 104.521C93.9697 104.448 94.0094 104.417 94.0591 104.417C94.4165 104.417 94.8533 104.417 95.3696 104.489C95.8859 104.562 96.2731 104.562 96.5908 104.562C96.9085 104.562 97.1666 104.562 97.5836 104.5C98.0006 104.437 98.6261 104.417 99.0033 104.417C99.0927 104.417 99.1324 104.51 99.1324 104.698C99.1324 104.885 99.053 105.072 98.8941 105.072C98.3931 105.104 97.9095 105.276 97.4942 105.572C96.9499 106.1 96.5024 106.727 96.1738 107.424L94.0392 111.587L96.9283 117.768L101.207 107.362C101.344 107.033 101.419 106.68 101.426 106.321C101.426 105.561 100.929 105.156 99.9366 105.114C99.8472 105.114 99.7976 104.999 99.7976 104.781C99.7976 104.562 99.8671 104.458 100.006 104.458C100.364 104.458 100.8 104.458 101.297 104.531C101.793 104.604 102.141 104.604 102.448 104.604C102.756 104.604 103.153 104.604 103.58 104.531C103.982 104.484 104.387 104.459 104.792 104.458C104.931 104.431 105 104.51 105 104.698Z" fill="black" fill-opacity="0.7"/>
<path d="M89.5926 118.938L88.8625 120.327L83.426 107.244C83.1669 106.518 82.7505 105.863 82.2075 105.329L82.1873 105.31L82.165 105.292C82.0196 105.179 81.8665 105.078 81.7071 104.99C82.2886 105.062 82.7332 105.062 83.1524 105.062H83.1578H83.165C83.5901 105.062 84.1806 105.062 84.816 104.986C84.9611 104.968 85.1071 104.955 85.2524 104.946C85.1932 104.982 85.1353 105.021 85.0789 105.062C84.8738 105.209 84.7091 105.404 84.5976 105.63C84.4854 105.857 84.4299 106.109 84.4351 106.362L84.4353 106.372L84.4358 106.381C84.453 106.684 84.5281 106.981 84.6574 107.254L89.2598 118.15L89.5926 118.938ZM92.7964 112.545L90.3593 107.197C90.0761 106.485 89.6913 105.821 89.2174 105.228L89.1814 105.183L89.136 105.148C89.0702 105.096 89.0024 105.047 88.9327 105.002C89.3259 105.041 89.7205 105.061 90.1154 105.062H90.1175L90.1301 105.062C90.57 105.062 91.0673 105.062 91.5999 104.984C91.6124 104.982 91.6249 104.981 91.6374 104.979C91.3145 105.205 91.1167 105.538 91.1167 105.957V105.992L91.1216 106.026C91.1808 106.447 91.3152 106.854 91.5184 107.224L93.1198 110.644L93.5213 111.501L93.4825 111.576L93.5862 111.798L96.4754 117.98L96.9048 118.899L96.317 120.286L93.2827 113.647L92.8867 112.781L92.8959 112.763L92.7964 112.545ZM100.273 110.95L101.669 107.554C101.669 107.554 101.669 107.553 101.669 107.553C101.83 107.167 101.917 106.752 101.926 106.331L101.926 106.331V106.321C101.926 105.822 101.756 105.375 101.369 105.06C101.362 105.054 101.354 105.049 101.347 105.043C101.816 105.104 102.158 105.104 102.446 105.104H102.448L102.458 105.104C102.679 105.104 102.965 105.104 103.284 105.074C103.209 105.127 103.135 105.184 103.065 105.245L103.043 105.264L103.024 105.285C102.506 105.847 102.104 106.514 101.843 107.242L100.273 110.95ZM97.1462 105.213C96.6375 105.706 96.2079 106.279 95.8722 106.91C95.9313 106.693 95.967 106.468 95.9782 106.242L95.9788 106.229V106.217C95.9788 105.732 95.8041 105.301 95.4189 105C95.9113 105.062 96.2899 105.062 96.5875 105.062H96.5908H96.5933C96.8544 105.062 97.0929 105.062 97.4152 105.026C97.3434 105.069 97.2731 105.115 97.2044 105.164L97.1734 105.186L97.1462 105.213Z" stroke="white" stroke-opacity="0.7"/>
<path d="M40 104.698C39.9982 104.791 39.9706 104.881 39.9206 104.958C39.899 104.99 39.8709 105.017 39.8383 105.037C39.8058 105.057 39.7694 105.069 39.7319 105.072C39.2407 105.103 38.7714 105.296 38.3916 105.624C37.9164 106.139 37.548 106.752 37.3094 107.424L31.6305 120.828C31.6305 120.952 31.4915 121.015 31.3227 121.015C31.2596 121.018 31.197 121.002 31.1424 120.969C31.0878 120.936 31.0436 120.887 31.0149 120.828L27.828 113.855L24.1644 120.828C24.1349 120.886 24.0904 120.934 24.036 120.967C23.9816 121 23.9195 121.017 23.8566 121.015C23.7905 121.021 23.7242 121.006 23.6659 120.973C23.6076 120.94 23.56 120.889 23.529 120.828L17.9593 107.424C17.7254 106.763 17.3481 106.168 16.8572 105.686C16.3872 105.319 15.8242 105.106 15.2389 105.072C15.2061 105.071 15.1742 105.061 15.1463 105.042C15.1184 105.024 15.0956 104.999 15.0801 104.968C15.0524 104.938 15.031 104.902 15.0173 104.862C15.0037 104.823 14.998 104.781 15.0006 104.739C15.0006 104.521 15.0602 104.417 15.1793 104.417C15.6758 104.417 16.1722 104.417 16.7381 104.489C17.304 104.562 17.7309 104.562 18.1578 104.562C18.5847 104.562 19.1507 104.562 19.7563 104.489C20.3619 104.417 20.9775 104.417 21.4739 104.417C21.593 104.417 21.6526 104.521 21.6526 104.739C21.6526 104.958 21.6526 105.072 21.5434 105.072C21.1237 105.077 20.7152 105.215 20.3718 105.468C20.2343 105.565 20.1222 105.697 20.0459 105.852C19.9696 106.006 19.9314 106.178 19.935 106.352C19.9488 106.595 20.0096 106.832 20.1137 107.049L24.7204 117.955L27.3415 112.752L24.8991 107.393C24.6336 106.722 24.272 106.097 23.8269 105.541C23.4538 105.247 23.0025 105.083 22.5362 105.072C22.5046 105.071 22.4738 105.061 22.4475 105.043C22.4212 105.024 22.4003 104.998 22.3873 104.968C22.335 104.905 22.3067 104.823 22.3078 104.739C22.3078 104.521 22.3575 104.417 22.4667 104.417C22.9244 104.413 23.3818 104.437 23.8368 104.489C24.2623 104.536 24.6897 104.561 25.1175 104.562C25.5643 104.562 26.0309 104.562 26.5274 104.489C27.0238 104.417 27.5202 104.417 28.0364 104.417C28.1556 104.417 28.2152 104.521 28.2152 104.739C28.2152 104.958 28.2152 105.072 28.1059 105.072C27.1131 105.145 26.6167 105.436 26.6167 105.957C26.6683 106.324 26.7862 106.677 26.9642 106.997L28.5726 110.432L30.181 107.31C30.358 106.974 30.4599 106.6 30.4788 106.217C30.4788 105.499 29.9824 105.114 28.9896 105.072C28.9002 105.072 28.8605 104.958 28.8605 104.739C28.8616 104.662 28.8822 104.587 28.9201 104.521C28.9697 104.448 29.0094 104.417 29.0591 104.417C29.4165 104.417 29.8533 104.417 30.3696 104.489C30.8859 104.562 31.2731 104.562 31.5908 104.562C31.9085 104.562 32.1666 104.562 32.5836 104.5C33.0006 104.437 33.6261 104.417 34.0033 104.417C34.0927 104.417 34.1324 104.51 34.1324 104.698C34.1324 104.885 34.053 105.072 33.8941 105.072C33.3931 105.104 32.9095 105.276 32.4942 105.572C31.9499 106.1 31.5024 106.727 31.1738 107.424L29.0392 111.587L31.9283 117.768L36.2074 107.362C36.3443 107.033 36.4185 106.68 36.4258 106.321C36.4258 105.561 35.9294 105.156 34.9366 105.114C34.8472 105.114 34.7976 104.999 34.7976 104.781C34.7976 104.562 34.8671 104.458 35.0061 104.458C35.3635 104.458 35.8003 104.458 36.2968 104.531C36.7932 104.604 37.1407 104.604 37.4484 104.604C37.7562 104.604 38.1533 104.604 38.5803 104.531C38.9824 104.484 39.3868 104.459 39.7915 104.458C39.9305 104.431 40 104.51 40 104.698Z" fill="black" fill-opacity="0.7"/>
<path d="M24.5926 118.938L23.8625 120.327L18.426 107.244C18.1669 106.518 17.7505 105.863 17.2075 105.329L17.1873 105.31L17.165 105.292C17.0196 105.179 16.8665 105.078 16.7071 104.99C17.2886 105.062 17.7332 105.062 18.1524 105.062H18.1578H18.165C18.5901 105.062 19.1806 105.062 19.816 104.986C19.9611 104.968 20.1071 104.955 20.2524 104.946C20.1932 104.982 20.1353 105.021 20.0789 105.062C19.8738 105.209 19.7091 105.404 19.5976 105.63C19.4854 105.857 19.4299 106.109 19.4351 106.362L19.4353 106.372L19.4358 106.381C19.453 106.684 19.5281 106.981 19.6574 107.254L24.2598 118.15L24.5926 118.938ZM27.7964 112.545L25.3593 107.197C25.0761 106.485 24.6913 105.821 24.2174 105.228L24.1814 105.183L24.136 105.148C24.0702 105.096 24.0024 105.047 23.9327 105.002C24.3259 105.041 24.7205 105.061 25.1154 105.062H25.1175L25.1301 105.062C25.57 105.062 26.0673 105.062 26.5999 104.984C26.6124 104.982 26.6249 104.981 26.6374 104.979C26.3145 105.205 26.1167 105.538 26.1167 105.957V105.992L26.1216 106.026C26.1808 106.447 26.3152 106.854 26.5184 107.224L28.1198 110.644L28.5213 111.501L28.4825 111.576L28.5862 111.798L31.4754 117.98L31.9048 118.899L31.317 120.286L28.2827 113.647L27.8867 112.781L27.8959 112.763L27.7964 112.545ZM35.2726 110.95L36.669 107.554C36.6691 107.554 36.6692 107.553 36.6693 107.553C36.8302 107.167 36.9171 106.752 36.9257 106.331L36.9258 106.331V106.321C36.9258 105.822 36.7565 105.375 36.3688 105.06C36.3616 105.054 36.3544 105.049 36.3472 105.043C36.8157 105.104 37.1581 105.104 37.4461 105.104H37.4484L37.458 105.104C37.6787 105.104 37.9654 105.104 38.2844 105.074C38.2087 105.127 38.1355 105.184 38.0648 105.245L38.0433 105.264L38.024 105.285C37.5057 105.847 37.1043 106.514 36.8434 107.242L35.2726 110.95ZM32.1462 105.213C31.6375 105.706 31.2079 106.279 30.8722 106.91C30.9313 106.693 30.967 106.468 30.9782 106.242L30.9788 106.229V106.217C30.9788 105.732 30.8041 105.301 30.4189 105C30.9113 105.062 31.2899 105.062 31.5875 105.062H31.5908H31.5933C31.8544 105.062 32.0929 105.062 32.4152 105.026C32.3434 105.069 32.2731 105.115 32.2044 105.164L32.1734 105.186L32.1462 105.213Z" stroke="white" stroke-opacity="0.7"/>
</svg>
