<svg width="120" height="148" viewBox="0 0 120 148" fill="none" xmlns="http://www.w3.org/2000/svg">
<path d="M7.07804 61.9358C7.21054 61.9349 7.34305 61.9341 7.47957 61.9332C7.62457 61.9331 7.76958 61.9329 7.91898 61.9328C8.06965 61.9322 8.22033 61.9316 8.37557 61.9311C8.87044 61.9298 9.3653 61.9298 9.86017 61.9302C10.0293 61.9303 10.1984 61.9303 10.3727 61.9304C13.2436 61.9341 16.0957 62.0093 18.9588 62.2184C19.0758 62.2268 19.1928 62.2351 19.3133 62.2437C22.3956 62.463 25.4648 62.7523 28.5298 63.149C28.6563 63.1654 28.7827 63.1817 28.9129 63.1985C30.3784 63.3893 31.8335 63.6128 33.2868 63.8823C33.7499 63.9669 34.2141 64.0455 34.6782 64.1244C38.8788 64.842 38.8788 64.842 40.7238 65.2491C40.8434 65.2755 40.963 65.3019 41.0863 65.3291C44.4228 66.0731 47.7622 66.8968 51.0225 67.9345C51.4224 68.0612 51.8241 68.1821 52.2253 68.3045C52.7319 68.4594 53.2261 68.6361 53.7208 68.8261C54.0524 68.9519 54.3854 69.0732 54.7189 69.1939C54.8414 69.2384 54.9638 69.2829 55.09 69.3288C55.3424 69.4204 55.5949 69.5117 55.8476 69.6026C55.9697 69.6471 56.0918 69.6916 56.2177 69.7375C56.3818 69.7969 56.3818 69.7969 56.5492 69.8574C56.9314 70.0117 57.2985 70.202 57.6666 70.3881C57.6666 96 57.6666 121.612 57.6666 148C57.1402 147.787 56.745 147.579 56.2737 147.275C53.0349 145.227 49.5628 143.556 46.0223 142.116C45.6409 141.96 45.27 141.799 44.9045 141.608C44.5867 141.452 44.2968 141.336 43.9634 141.227C43.3676 141.029 42.7759 140.821 42.1844 140.611C39.6351 139.711 37.0973 138.877 34.4759 138.219C34.121 138.128 33.7679 138.034 33.4152 137.936C28.4637 136.557 23.0261 135.46 17.8836 135.242C17.5252 135.218 17.5252 135.218 17.2298 135.155C16.4805 135.011 15.7116 135 14.9512 134.955C14.8561 134.949 14.761 134.943 14.6631 134.937C13.443 134.863 12.2242 134.813 11.0021 134.791C10.8224 134.787 10.8224 134.787 10.6392 134.784C10.0519 134.773 9.46479 134.764 8.87748 134.759C6.44126 134.729 6.44126 134.729 5.61632 134.036C5.54643 133.945 5.47655 133.854 5.40454 133.761C5.33196 133.669 5.25938 133.578 5.18461 133.484C4.83893 132.994 4.86526 132.579 4.86755 131.996C4.86744 131.894 4.86733 131.791 4.86721 131.686C4.867 131.34 4.86772 130.995 4.86843 130.65C4.86846 130.403 4.86844 130.157 4.86837 129.91C4.86833 129.239 4.8691 128.567 4.87001 127.896C4.87082 127.195 4.8709 126.494 4.87105 125.793C4.87146 124.465 4.87253 123.137 4.87384 121.809C4.87529 120.297 4.87601 118.785 4.87666 117.273C4.87803 114.163 4.88032 111.053 4.88322 107.942C4.99917 107.939 5.11512 107.936 5.23458 107.934C5.67035 107.922 6.10609 107.91 6.54182 107.898C6.72936 107.892 6.91692 107.887 7.10448 107.883C10.0805 107.809 12.5425 107.008 14.9186 105.175C15.0034 105.114 15.0883 105.052 15.1757 104.989C17.0835 103.502 18.2588 101.025 18.8285 98.7184C18.8728 98.5512 18.9171 98.3841 18.9628 98.2119C19.1415 97.3898 19.1289 96.5708 19.1283 95.7325C19.1292 95.4749 19.1292 95.4749 19.13 95.2121C19.131 94.8496 19.1309 94.4871 19.1303 94.1247C19.1297 93.7573 19.1305 93.39 19.1329 93.0226C19.2116 89.5658 19.2116 89.5658 18.2664 86.2827C18.2265 86.1955 18.1866 86.1084 18.1454 86.0186C16.7443 83.0148 14.4396 80.7805 11.3488 79.6402C9.72066 79.0862 8.14591 78.9397 6.43903 78.8789C6.28892 78.8733 6.13881 78.8676 5.98415 78.8617C5.61718 78.8478 5.25021 78.8344 4.88322 78.8213C4.87103 76.8615 4.86184 74.9017 4.85621 72.9418C4.85353 72.0318 4.84987 71.1217 4.84389 70.2117C4.83813 69.3334 4.83511 68.4551 4.83376 67.5768C4.8328 67.2418 4.83092 66.9068 4.8281 66.5718C4.82432 66.1024 4.8238 65.6331 4.82404 65.1636C4.82216 65.0253 4.82029 64.8869 4.81836 64.7443C4.82357 63.8081 4.96791 63.2165 5.61734 62.5159C6.15051 62.1067 6.41403 61.9386 7.07804 61.9358Z" fill="black"/>
<path d="M109.431 61.916C109.772 61.9145 110.113 61.9118 110.454 61.9079C110.954 61.9023 111.453 61.9002 111.953 61.8988C112.105 61.8965 112.257 61.8942 112.414 61.8918C113.393 61.8945 113.867 61.9981 114.574 62.6925C115.005 63.2386 115.158 63.6003 115.157 64.2908C115.158 64.4828 115.158 64.4828 115.158 64.6788C115.158 64.819 115.157 64.9593 115.157 65.1038C115.157 65.2517 115.157 65.3996 115.157 65.5519C115.157 66.0417 115.156 66.5315 115.154 67.0213C115.154 67.3605 115.154 67.6997 115.154 68.0389C115.153 68.8411 115.152 69.6433 115.151 70.4455C115.15 71.3588 115.149 72.2721 115.148 73.1853C115.147 75.064 115.145 76.9427 115.142 78.8214C114.995 78.8265 114.995 78.8265 114.846 78.8317C114.4 78.8476 113.953 78.8641 113.507 78.8805C113.277 78.8886 113.277 78.8886 113.041 78.8969C109.498 79.0293 106.368 80.1948 103.893 82.8156C103.236 83.5777 102.728 84.3974 102.239 85.278C102.159 85.4202 102.159 85.4202 102.077 85.5652C101.123 87.3681 100.896 89.3143 100.892 91.3286C100.891 91.4994 100.89 91.6703 100.889 91.8463C100.888 92.2059 100.887 92.5655 100.888 92.925C100.888 93.2888 100.886 93.6525 100.882 94.0162C100.849 96.9364 100.849 96.9364 101.457 99.7726C101.493 99.8845 101.529 99.9964 101.567 100.112C102.585 102.978 104.674 105.216 107.322 106.625C109.233 107.506 111.14 107.867 113.228 107.901C113.414 107.905 113.601 107.91 113.788 107.915C114.239 107.926 114.691 107.935 115.142 107.942C115.154 111.193 115.163 114.444 115.169 117.694C115.171 119.204 115.175 120.713 115.181 122.222C115.186 123.538 115.19 124.853 115.191 126.168C115.191 126.865 115.193 127.562 115.197 128.258C115.2 128.914 115.202 129.569 115.201 130.225C115.201 130.466 115.202 130.706 115.204 130.947C115.206 131.276 115.206 131.604 115.204 131.933C115.206 132.028 115.207 132.123 115.209 132.221C115.2 133.004 114.909 133.451 114.397 134.014C114.29 134.109 114.29 134.109 114.181 134.205C114.11 134.27 114.039 134.335 113.966 134.402C113.305 134.807 112.421 134.715 111.671 134.724C111.42 134.728 111.169 134.732 110.917 134.736C110.721 134.739 110.721 134.739 110.521 134.742C108.056 134.782 105.608 134.869 103.151 135.087C103.043 135.096 102.935 135.105 102.823 135.114C102.062 135.177 101.303 135.259 100.545 135.35C100.376 135.37 100.206 135.391 100.032 135.411C94.934 136.026 89.8708 136.904 84.9476 138.398C84.3419 138.581 83.7339 138.755 83.124 138.923C83.0391 138.947 82.9542 138.97 82.8667 138.994C82.4514 139.109 82.0359 139.223 81.6202 139.336C80.9306 139.526 80.2528 139.718 79.5879 139.983C79.203 140.132 78.8133 140.264 78.423 140.398C78.182 140.48 78.182 140.48 77.9361 140.565C77.6866 140.65 77.4371 140.736 77.1873 140.821C76.2409 141.142 75.3211 141.484 74.4175 141.914C74.1023 142.064 73.7849 142.203 73.4639 142.339C69.8434 143.871 66.2701 145.602 62.9616 147.745C62.7494 147.868 62.7494 147.868 62.3584 148C62.3584 122.388 62.3584 96.7762 62.3584 70.3881C72.1031 66.283 82.9379 63.9609 93.4307 62.9664C93.9992 62.9116 94.5599 62.8373 95.124 62.7476C96.4402 62.5513 97.768 62.4897 99.095 62.4079C99.4903 62.3831 99.8857 62.3581 100.281 62.3327C100.525 62.3171 100.769 62.3018 101.013 62.2869C101.511 62.2554 102.005 62.2189 102.5 62.1514C103.112 62.0696 103.724 62.0411 104.34 62.0152C104.469 62.0097 104.597 62.0042 104.73 61.9986C106.297 61.9375 107.864 61.921 109.431 61.916Z" fill="black"/>
<path d="M5.90563 83.6352C6.17791 83.6391 6.44985 83.6379 6.72213 83.6362C9.04049 83.6398 10.9647 84.2958 12.6208 85.9548C13.712 87.1547 14.4044 88.7398 14.4206 90.3755C14.4231 90.5966 14.4231 90.5966 14.4257 90.8223C14.4267 90.9807 14.4276 91.139 14.4286 91.3022C14.4297 91.4669 14.4307 91.6315 14.4318 91.8012C14.4336 92.1498 14.435 92.4985 14.436 92.8472C14.4372 93.2017 14.4399 93.5561 14.444 93.9106C14.4496 94.4247 14.4517 94.9388 14.4531 95.453C14.4553 95.6092 14.4576 95.7655 14.46 95.9265C14.4556 97.6588 13.9676 99.0364 12.9639 100.431C12.9083 100.515 12.8527 100.598 12.7954 100.685C11.9394 101.846 10.432 102.643 9.05406 102.935C8.94885 102.968 8.94885 102.968 8.84151 103.002C8.09318 103.159 7.29592 103.118 6.53338 103.127C6.31549 103.131 6.09762 103.136 5.87983 103.144C4.09238 103.203 2.76638 102.939 1.36463 101.724C0.392742 100.624 0.0433819 99.3539 0.038271 97.9182C0.0374146 97.8129 0.0365582 97.7076 0.0356758 97.5991C0.0331133 97.2516 0.0315857 96.9041 0.0302845 96.5565C0.0297534 96.4372 0.029222 96.3178 0.0286747 96.1948C0.0259592 95.5623 0.0240945 94.9298 0.0228708 94.2973C0.0214336 93.648 0.0169551 92.9987 0.0117705 92.3494C0.00834187 91.8467 0.00727002 91.3441 0.00680384 90.8415C0.00617387 90.6024 0.00467192 90.3633 0.00223687 90.1242C-0.0146379 88.3566 0.0339385 86.6797 1.23787 85.2687C2.55749 83.9635 4.10717 83.6078 5.90563 83.6352Z" fill="black"/>
<path d="M113.556 83.6724C113.821 83.6721 114.085 83.6697 114.35 83.6673C115.983 83.6648 117.341 83.9301 118.599 85.0634C120.033 86.6634 120.004 88.3876 119.999 90.4289C119.999 90.6599 119.999 90.8909 119.999 91.1219C120 91.6042 119.999 92.0865 119.998 92.5688C119.997 93.1834 119.997 93.798 119.999 94.4126C120 94.8891 120 95.3656 119.999 95.8421C119.999 96.0686 119.999 96.2951 120 96.5215C120.004 98.5714 119.925 100.239 118.522 101.848C117.218 103.028 115.834 103.19 114.164 103.155C113.839 103.149 113.514 103.15 113.189 103.152C111.659 103.146 110.195 102.986 108.894 102.087C108.786 102.014 108.677 101.94 108.565 101.865C107.052 100.731 105.953 99.1703 105.628 97.269C105.614 97.0196 105.607 96.7697 105.605 96.5199C105.603 96.3724 105.601 96.225 105.6 96.0731C105.599 95.9147 105.598 95.7563 105.597 95.5931C105.596 95.4285 105.595 95.2638 105.594 95.0942C105.592 94.7455 105.59 94.3968 105.589 94.0482C105.588 93.6937 105.586 93.3392 105.581 92.9848C105.576 92.4706 105.574 91.9566 105.572 91.4424C105.569 91.208 105.569 91.208 105.565 90.9689C105.57 89.0149 106.221 87.1836 107.566 85.7557C109.295 84.145 111.255 83.6722 113.556 83.6724Z" fill="black"/>
<path fill-rule="evenodd" clip-rule="evenodd" d="M75.9126 34.02L76.2008 34.2619C76.7282 34.7135 77.1921 35.1904 77.638 35.7242C77.7883 35.9025 77.9427 36.0774 78.1012 36.2482C80.3184 38.647 81.966 41.707 82.9504 44.825L83.0464 45.1261C83.2941 45.9262 83.4731 46.726 83.6184 47.551L83.6862 47.9351C83.8615 48.9647 83.9673 49.9724 83.993 51.0182L84.0088 51.5349C84.0633 54.1281 83.985 57.3593 82.8201 59.7149C82.5377 59.785 82.2516 59.8394 81.9648 59.8878C81.7745 59.9215 81.5843 59.9555 81.3941 59.9898L81.0764 60.0468C79.2093 60.3936 77.3586 60.8138 75.5216 61.2961C75.4192 61.3225 75.3167 61.3487 75.2143 61.3749C75.012 56.8605 74.3854 53.5078 72.715 48.668C72.8996 48.1463 73 47.5849 73 47C73 44.2386 70.7614 42 68 42C65.2386 42 63 44.2386 63 47C63 49.7614 65.2386 52 68 52C69.6812 52 71.1687 51.1702 72.0751 49.8979C73.5057 54.229 74.0479 57.3818 74.2243 61.6265C73.7746 61.7403 73.3242 61.8503 72.8723 61.955L72.5846 62.0219C72.3224 62.0825 72.06 62.1423 71.7976 62.202C71.1485 62.3607 70.5121 62.5635 69.8755 62.7664L69.8739 62.7669C69.7581 62.8038 69.6424 62.8407 69.5265 62.8774C69.2401 62.9657 68.9537 63.0539 68.6671 63.1419C67.0111 63.6539 65.364 64.1844 63.7268 64.7551L63.2684 64.9147C62.3789 65.2276 61.5003 65.5609 60.6264 65.9161C59.9446 66.1548 59.4349 65.947 58.8233 65.6978C58.7573 65.6709 58.6902 65.6435 58.6216 65.6162C57.5859 65.212 56.5371 64.853 55.4835 64.4998L55.1761 64.3965C50.7874 62.9254 46.3653 61.6297 41.8397 60.662L41.5679 60.6036C40.7071 60.4192 39.8465 60.2431 38.977 60.1051L38.6058 60.0427C38.3868 60.0068 38.1671 59.9748 37.9469 59.9479C37.8413 59.9304 37.7749 59.9194 37.7098 59.903C37.5992 59.8752 37.4926 59.8318 37.2048 59.7149C36.9948 59.3294 36.905 59.0799 36.8138 58.6607L36.7267 58.283C36.6348 57.861 36.5522 57.438 36.4717 57.0136L36.3862 56.5787C36.1066 55.1357 36.0005 53.7736 35.9993 52.3029L35.999 52.0186C36.0013 50.4685 36.1 48.9784 36.4229 47.4604L36.4885 47.1379C37.5326 42.1219 40.2987 37.1589 44.2426 33.8882L44.4409 33.7185C53.6278 25.8595 66.8285 26.235 75.9126 34.02ZM71.8154 48.2046L71.5288 48.3063C71.569 48.4196 71.6087 48.532 71.6478 48.6436C71.0208 50.033 69.6233 51 68 51C65.7909 51 64 49.2091 64 47C64 44.7909 65.7909 43 68 43C70.2091 43 72 44.7909 72 47C72 47.4198 71.9353 47.8244 71.8154 48.2046Z" fill="black"/>
<path d="M52.4762 11.0013L72.1878 2.57267L89.6942 16.1033L69.4773 25.9112L52.4762 11.0013Z" fill="black"/>
<path d="M89.1014 16.797C89.1452 16.4314 88.9373 16.1009 88.6372 16.0589C88.3371 16.0169 88.0582 16.2793 88.0144 16.645L87.0871 24.3867C87.0433 24.7524 87.2511 25.0828 87.5513 25.1248C87.8514 25.1668 88.1302 24.9044 88.174 24.5387L89.1014 16.797Z" fill="black"/>
<path d="M87.1381 28.7438C88.05 28.8714 88.8972 28.0741 89.0303 26.963C89.1634 25.8519 88.532 24.8478 87.62 24.7202C86.708 24.5927 85.8609 25.39 85.7278 26.5011C85.5947 27.6122 86.2261 28.6163 87.1381 28.7438Z" fill="black"/>
<path d="M85.9555 30.2875C86.2133 30.5925 86.5482 30.7847 86.91 30.8353C87.2718 30.8859 87.641 30.7922 87.9621 30.5682C87.6314 33.8023 87.3008 37.0358 86.9702 40.2686L84.4619 39.9178C84.9598 36.7077 85.4577 33.4976 85.9555 30.2875Z" fill="black"/>
<path d="M59.7188 20.0927L69.2165 27.0889L80.0356 22.9343L74.1213 32.3889C73.5805 33.0145 74.2119 31.4496 68.1265 30.6223C61.991 29.7879 60.0889 29.0093 59.7187 28.2667L59.7188 20.0927Z" fill="black"/>
</svg>
