<svg width="120" height="120" viewBox="0 0 120 120" fill="none" xmlns="http://www.w3.org/2000/svg">
<path d="M7.07804 33.9358C7.21054 33.9349 7.34305 33.9341 7.47957 33.9332C7.62457 33.9331 7.76958 33.9329 7.91898 33.9328C8.06965 33.9322 8.22033 33.9316 8.37557 33.9311C8.87044 33.9298 9.3653 33.9298 9.86017 33.9302C10.0293 33.9303 10.1984 33.9303 10.3727 33.9304C13.2436 33.9341 16.0957 34.0093 18.9588 34.2184C19.0758 34.2268 19.1928 34.2351 19.3133 34.2437C22.3956 34.463 25.4648 34.7523 28.5298 35.149C28.6563 35.1654 28.7827 35.1817 28.9129 35.1985C30.3784 35.3893 31.8335 35.6128 33.2868 35.8823C33.7499 35.9669 34.2141 36.0455 34.6782 36.1244C38.8788 36.842 38.8788 36.842 40.7238 37.2491C40.8434 37.2755 40.963 37.3019 41.0863 37.3291C44.4228 38.0731 47.7622 38.8968 51.0225 39.9345C51.4224 40.0612 51.8241 40.1821 52.2253 40.3045C52.7319 40.4594 53.2261 40.6361 53.7208 40.8261C54.0524 40.9519 54.3854 41.0732 54.7189 41.1939C54.8414 41.2384 54.9638 41.2829 55.09 41.3288C55.3424 41.4204 55.5949 41.5117 55.8476 41.6026C55.9697 41.6471 56.0918 41.6916 56.2177 41.7375C56.3818 41.7969 56.3818 41.7969 56.5492 41.8574C56.9314 42.0117 57.2985 42.202 57.6666 42.3881C57.6666 68 57.6666 93.6119 57.6666 120C57.1402 119.787 56.745 119.579 56.2737 119.275C53.0349 117.227 49.5628 115.556 46.0223 114.116C45.6409 113.96 45.27 113.799 44.9045 113.608C44.5867 113.452 44.2968 113.336 43.9634 113.227C43.3676 113.029 42.7759 112.821 42.1844 112.611C39.6351 111.711 37.0973 110.877 34.4759 110.219C34.121 110.128 33.7679 110.034 33.4152 109.936C28.4637 108.557 23.0261 107.46 17.8836 107.242C17.5252 107.218 17.5252 107.218 17.2298 107.155C16.4805 107.011 15.7116 107 14.9512 106.955C14.8561 106.949 14.761 106.943 14.6631 106.937C13.443 106.863 12.2242 106.813 11.0021 106.791C10.8224 106.787 10.8224 106.787 10.6392 106.784C10.0519 106.773 9.46479 106.764 8.87748 106.759C6.44126 106.729 6.44126 106.729 5.61632 106.036C5.54643 105.945 5.47655 105.854 5.40454 105.761C5.33196 105.669 5.25938 105.578 5.18461 105.484C4.83893 104.994 4.86526 104.579 4.86755 103.996C4.86744 103.894 4.86733 103.791 4.86721 103.686C4.867 103.34 4.86772 102.995 4.86843 102.65C4.86846 102.403 4.86844 102.157 4.86837 101.91C4.86833 101.239 4.8691 100.567 4.87001 99.896C4.87082 99.1951 4.8709 98.4941 4.87105 97.7931C4.87146 96.4649 4.87253 95.1368 4.87384 93.8087C4.87529 92.2969 4.87601 90.7852 4.87666 89.2735C4.87803 86.163 4.88032 83.0526 4.88322 79.9422C4.99917 79.9393 5.11512 79.9365 5.23458 79.9335C5.67035 79.9223 6.10609 79.9102 6.54182 79.8977C6.72936 79.8924 6.91692 79.8875 7.10448 79.8829C10.0805 79.8093 12.5425 79.0083 14.9186 77.1751C15.0034 77.1136 15.0883 77.0521 15.1757 76.9887C17.0835 75.5022 18.2588 73.0252 18.8285 70.7184C18.8728 70.5512 18.9171 70.3841 18.9628 70.2119C19.1415 69.3898 19.1289 68.5708 19.1283 67.7325C19.1292 67.4749 19.1292 67.4749 19.13 67.2121C19.131 66.8496 19.1309 66.4871 19.1303 66.1247C19.1297 65.7573 19.1305 65.39 19.1329 65.0226C19.2116 61.5658 19.2116 61.5658 18.2664 58.2827C18.2265 58.1955 18.1866 58.1084 18.1454 58.0186C16.7443 55.0148 14.4396 52.7805 11.3488 51.6402C9.72066 51.0862 8.14591 50.9397 6.43903 50.8789C6.28892 50.8733 6.13881 50.8676 5.98415 50.8617C5.61718 50.8478 5.25021 50.8344 4.88322 50.8213C4.87103 48.8615 4.86184 46.9017 4.85621 44.9418C4.85353 44.0318 4.84987 43.1217 4.84389 42.2117C4.83813 41.3334 4.83511 40.4551 4.83376 39.5768C4.8328 39.2418 4.83092 38.9068 4.8281 38.5718C4.82432 38.1024 4.8238 37.6331 4.82404 37.1636C4.82216 37.0253 4.82029 36.8869 4.81836 36.7443C4.82357 35.8081 4.96791 35.2165 5.61734 34.5159C6.15051 34.1067 6.41403 33.9386 7.07804 33.9358Z" fill="black"/>
<path d="M109.431 33.916C109.772 33.9145 110.113 33.9118 110.454 33.9079C110.954 33.9023 111.453 33.9002 111.953 33.8988C112.105 33.8965 112.257 33.8942 112.414 33.8918C113.393 33.8945 113.867 33.9981 114.574 34.6925C115.005 35.2386 115.158 35.6003 115.157 36.2908C115.158 36.4828 115.158 36.4828 115.158 36.6788C115.158 36.819 115.157 36.9593 115.157 37.1038C115.157 37.2517 115.157 37.3996 115.157 37.5519C115.157 38.0417 115.156 38.5315 115.154 39.0213C115.154 39.3605 115.154 39.6997 115.154 40.0389C115.153 40.8411 115.152 41.6433 115.151 42.4455C115.15 43.3588 115.149 44.2721 115.148 45.1853C115.147 47.064 115.145 48.9427 115.142 50.8214C114.995 50.8265 114.995 50.8265 114.846 50.8317C114.4 50.8476 113.953 50.8641 113.507 50.8805C113.277 50.8886 113.277 50.8886 113.041 50.8969C109.498 51.0293 106.368 52.1948 103.893 54.8156C103.236 55.5777 102.728 56.3974 102.239 57.278C102.159 57.4202 102.159 57.4202 102.077 57.5652C101.123 59.3681 100.896 61.3143 100.892 63.3286C100.891 63.4994 100.89 63.6703 100.889 63.8463C100.888 64.2059 100.887 64.5655 100.888 64.925C100.888 65.2888 100.886 65.6525 100.882 66.0162C100.849 68.9364 100.849 68.9364 101.457 71.7726C101.493 71.8845 101.529 71.9964 101.567 72.1116C102.585 74.9776 104.674 77.2161 107.322 78.6246C109.233 79.506 111.14 79.8668 113.228 79.9011C113.414 79.9055 113.601 79.91 113.788 79.9147C114.239 79.9257 114.691 79.9346 115.142 79.9423C115.154 83.1929 115.163 86.4435 115.169 89.6942C115.171 91.2035 115.175 92.7128 115.181 94.2221C115.186 95.5376 115.19 96.853 115.191 98.1684C115.191 98.865 115.193 99.5616 115.197 100.258C115.2 100.914 115.202 101.569 115.201 102.225C115.201 102.466 115.202 102.706 115.204 102.947C115.206 103.276 115.206 103.604 115.204 103.933C115.206 104.028 115.207 104.123 115.209 104.221C115.2 105.004 114.909 105.451 114.397 106.014C114.29 106.109 114.29 106.109 114.181 106.205C114.11 106.27 114.039 106.335 113.966 106.402C113.305 106.807 112.421 106.715 111.671 106.724C111.42 106.728 111.169 106.732 110.917 106.736C110.721 106.739 110.721 106.739 110.521 106.742C108.056 106.782 105.608 106.869 103.151 107.087C103.043 107.096 102.935 107.105 102.823 107.114C102.062 107.177 101.303 107.259 100.545 107.35C100.376 107.37 100.206 107.391 100.032 107.411C94.934 108.026 89.8708 108.904 84.9476 110.398C84.3419 110.581 83.7339 110.755 83.124 110.923C83.0391 110.947 82.9542 110.97 82.8667 110.994C82.4514 111.109 82.0359 111.223 81.6202 111.336C80.9306 111.526 80.2528 111.718 79.5879 111.983C79.203 112.132 78.8133 112.264 78.423 112.398C78.182 112.48 78.182 112.48 77.9361 112.565C77.6866 112.65 77.4371 112.736 77.1873 112.821C76.2409 113.142 75.3211 113.484 74.4175 113.914C74.1023 114.064 73.7849 114.203 73.4639 114.339C69.8434 115.871 66.2701 117.602 62.9616 119.745C62.7494 119.868 62.7494 119.868 62.3584 120C62.3584 94.3881 62.3584 68.7762 62.3584 42.3881C72.1031 38.283 82.9379 35.9609 93.4307 34.9664C93.9992 34.9116 94.5599 34.8373 95.124 34.7476C96.4402 34.5513 97.768 34.4897 99.095 34.4079C99.4903 34.3831 99.8857 34.3581 100.281 34.3327C100.525 34.3171 100.769 34.3018 101.013 34.2869C101.511 34.2554 102.005 34.2189 102.5 34.1514C103.112 34.0696 103.724 34.0411 104.34 34.0152C104.469 34.0097 104.597 34.0042 104.73 33.9986C106.297 33.9375 107.864 33.921 109.431 33.916Z" fill="black"/>
<path d="M5.90563 55.6352C6.17791 55.6391 6.44985 55.6379 6.72213 55.6362C9.04049 55.6398 10.9647 56.2958 12.6208 57.9548C13.712 59.1547 14.4044 60.7398 14.4206 62.3755C14.4231 62.5966 14.4231 62.5966 14.4257 62.8223C14.4267 62.9807 14.4276 63.139 14.4286 63.3022C14.4297 63.4669 14.4307 63.6315 14.4318 63.8012C14.4336 64.1498 14.435 64.4985 14.436 64.8472C14.4372 65.2017 14.4399 65.5561 14.444 65.9106C14.4496 66.4247 14.4517 66.9388 14.4531 67.453C14.4553 67.6092 14.4576 67.7655 14.46 67.9265C14.4556 69.6588 13.9676 71.0364 12.9639 72.4314C12.9083 72.5149 12.8527 72.5985 12.7954 72.6846C11.9394 73.8457 10.432 74.6428 9.05406 74.935C8.94885 74.968 8.94885 74.968 8.84151 75.0016C8.09318 75.1594 7.29592 75.1181 6.53338 75.1273C6.31549 75.1308 6.09762 75.1362 5.87983 75.1436C4.09238 75.2032 2.76638 74.9389 1.36463 73.7243C0.392742 72.6245 0.0433819 71.3539 0.038271 69.9182C0.0374146 69.8129 0.0365582 69.7076 0.0356758 69.5991C0.0331133 69.2516 0.0315857 68.9041 0.0302845 68.5565C0.0297534 68.4372 0.029222 68.3178 0.0286747 68.1948C0.0259592 67.5623 0.0240945 66.9298 0.0228708 66.2973C0.0214336 65.648 0.0169551 64.9987 0.0117705 64.3494C0.00834187 63.8467 0.00727002 63.3441 0.00680384 62.8415C0.00617387 62.6024 0.00467192 62.3633 0.00223687 62.1242C-0.0146379 60.3566 0.0339385 58.6797 1.23787 57.2687C2.55749 55.9635 4.10717 55.6078 5.90563 55.6352Z" fill="black"/>
<path d="M113.556 55.6724C113.821 55.6721 114.085 55.6697 114.35 55.6673C115.983 55.6648 117.341 55.9301 118.599 57.0634C120.033 58.6634 120.004 60.3876 119.999 62.4289C119.999 62.6599 119.999 62.8909 119.999 63.1219C120 63.6042 119.999 64.0865 119.998 64.5688C119.997 65.1834 119.997 65.798 119.999 66.4126C120 66.8891 120 67.3656 119.999 67.8421C119.999 68.0686 119.999 68.2951 120 68.5215C120.004 70.5714 119.925 72.2391 118.522 73.848C117.218 75.0284 115.834 75.1896 114.164 75.1555C113.839 75.1492 113.514 75.1501 113.189 75.1518C111.659 75.1465 110.195 74.9864 108.894 74.0868C108.786 74.0136 108.677 73.9404 108.565 73.865C107.052 72.7312 105.953 71.1703 105.628 69.269C105.614 69.0196 105.607 68.7697 105.605 68.5199C105.603 68.3724 105.601 68.225 105.6 68.0731C105.599 67.9147 105.598 67.7563 105.597 67.5931C105.596 67.4285 105.595 67.2638 105.594 67.0942C105.592 66.7455 105.59 66.3968 105.589 66.0482C105.588 65.6937 105.586 65.3392 105.581 64.9848C105.576 64.4706 105.574 63.9566 105.572 63.4424C105.569 63.208 105.569 63.208 105.565 62.9689C105.57 61.0149 106.221 59.1836 107.566 57.7557C109.295 56.145 111.255 55.6722 113.556 55.6724Z" fill="black"/>
<path fill-rule="evenodd" clip-rule="evenodd" d="M76.2008 6.2619L75.9126 6.01998C66.8285 -1.76497 53.6278 -2.14053 44.4409 5.71848L44.2426 5.88821C40.2987 9.15895 37.5326 14.1219 36.4885 19.1379L36.4229 19.4604C36.1 20.9784 36.0013 22.4685 35.999 24.0186L35.9993 24.3029C36.0005 25.7736 36.1066 27.1357 36.3862 28.5787L36.4717 29.0136C36.5522 29.438 36.6348 29.861 36.7267 30.283L36.8138 30.6607C36.905 31.0799 36.9948 31.3294 37.2048 31.7149L37.2049 31.7149L37.2049 31.7149C37.4926 31.8319 37.5992 31.8752 37.7098 31.903C37.7749 31.9194 37.8413 31.9304 37.9469 31.9479C38.1671 31.9748 38.3868 32.0068 38.6058 32.0427L38.977 32.1051C39.8465 32.2431 40.7071 32.4192 41.5679 32.6036L41.8397 32.662C46.3653 33.6297 50.7874 34.9254 55.1761 36.3965L55.4835 36.4998C56.5371 36.853 57.5859 37.212 58.6216 37.6162C58.6902 37.6435 58.7573 37.6709 58.8233 37.6977C59.4348 37.947 59.9446 38.1548 60.6264 37.9161C61.5003 37.5609 62.3789 37.2276 63.2684 36.9147L63.7268 36.7551C65.364 36.1844 67.0111 35.6539 68.6671 35.1419C68.9537 35.0539 69.2401 34.9657 69.5265 34.8774C69.6428 34.8406 69.7591 34.8035 69.8753 34.7665L69.8754 34.7665L69.8755 34.7664C70.5121 34.5635 71.1485 34.3607 71.7976 34.202C72.06 34.1423 72.3224 34.0825 72.5846 34.0219L72.8723 33.955C73.3255 33.85 73.7771 33.7397 74.2281 33.6256L74.4872 33.5597C74.8321 33.4723 75.177 33.3847 75.5216 33.2961C77.3586 32.8138 79.2093 32.3936 81.0764 32.0468L81.3941 31.9898C81.5843 31.9555 81.7745 31.9215 81.9648 31.8878C82.2516 31.8394 82.5377 31.785 82.8201 31.7149C83.985 29.3593 84.0633 26.1281 84.0088 23.5349L83.993 23.0182C83.9673 21.9724 83.8615 20.9647 83.6862 19.9351L83.6184 19.551C83.4731 18.726 83.2941 17.9262 83.0464 17.1261L82.9504 16.825C81.966 13.707 80.3184 10.647 78.1012 8.24821C77.9427 8.0774 77.7883 7.9025 77.638 7.72422C77.1921 7.1904 76.7282 6.71346 76.2008 6.2619ZM55.9763 19.4378C55.7583 21.441 54.0612 23 52 23C49.7909 23 48 21.2091 48 19C48 16.7909 49.7909 15 52 15C54.1976 15 55.9812 16.7721 55.9999 18.9653C55.9408 18.9873 55.8813 19.0098 55.8214 19.0327L55.9763 19.4378ZM56.9529 19.689C56.6173 22.1244 54.5277 24 52 24C49.2386 24 47 21.7614 47 19C47 16.2386 49.2386 14 52 14C54.6364 14 56.7963 16.0405 56.9864 18.6284C58.075 18.2943 59.0354 18.1373 60.0066 18.1499C60.9745 18.1624 61.9313 18.3433 63.0114 18.659C63.1867 16.0566 65.3532 14 68 14C70.7614 14 73 16.2386 73 19C73 21.7614 70.7614 24 68 24C65.4814 24 63.3978 22.1379 63.0508 19.7153C61.8813 19.353 60.9307 19.1619 59.9936 19.1498C59.0598 19.1377 58.1129 19.3032 56.9529 19.689ZM64.0231 19.4322C64.2386 21.4381 65.9369 23 68 23C70.2091 23 72 21.2091 72 19C72 16.7909 70.2091 15 68 15C65.8003 15 64.0153 16.7756 64.0001 18.9717C64.0537 18.9898 64.1076 19.0081 64.1618 19.0266L64.0231 19.4322Z" fill="black"/>
</svg>
