<svg width="174" height="144" viewBox="0 0 174 144" fill="none" xmlns="http://www.w3.org/2000/svg">
<rect x="15" width="144" height="144" rx="16" fill="#D9D9D9"/>
<path d="M41.0562 82H132.944" stroke="#080808" stroke-width="3"/>
<path d="M93.8426 22H80.1572V78H93.8426V22Z" fill="black"/>
<path d="M109.483 30H95.7979V78H109.483V30Z" fill="black"/>
<path d="M78.2025 38H64.5171V78H78.2025V38Z" fill="black"/>
<path d="M123.198 38H111.438L118.641 78H130.989L123.198 38Z" fill="black"/>
<path d="M56.6966 78H44.9663L50.8315 40H62.5618L56.6966 78Z" fill="black"/>
<path fill-rule="evenodd" clip-rule="evenodd" d="M121.159 114C112.093 121.505 100.548 126 87.9774 126C75.4066 126 63.8621 121.505 54.7962 114H46.0917C56.7365 125.108 71.5701 132 87.9774 132C104.385 132 119.218 125.108 129.863 114H121.159ZM36.0943 82C35.5011 78.7594 35.1909 75.4168 35.1909 72C35.1909 42.1766 58.8242 18 87.9774 18C117.131 18 140.764 42.1766 140.764 72C140.764 75.4168 140.454 78.7594 139.86 82H145.818C146.351 78.748 146.629 75.4072 146.629 72C146.629 38.863 120.37 12 87.9774 12C55.585 12 29.3257 38.863 29.3257 72C29.3257 75.4072 29.6033 78.748 30.1366 82H36.0943Z" fill="black"/>
<path d="M33.0379 111.612C32.0995 111.612 31.2784 111.408 30.5746 111C29.8942 110.616 29.554 109.932 29.554 108.948C29.554 108.324 29.7065 107.628 30.0115 106.86C30.4338 107.34 30.8209 107.676 31.1728 107.868C31.5482 108.06 31.947 108.156 32.3693 108.156C33.5423 108.156 34.4104 107.484 34.9734 106.14C35.56 104.796 35.8532 103.308 35.8532 101.676C35.8532 98.628 34.7388 97.104 32.5101 97.104C31.8766 97.104 31.337 97.14 30.8913 97.212L28.0056 111H22.9381L27.7241 88.104L32.9324 87.384L31.2784 95.376H31.4895C32.381 95.376 33.2139 95.088 33.9881 94.512C34.7623 93.912 35.384 93.168 35.8532 92.28C36.3224 91.368 36.557 90.456 36.557 89.544C36.557 88.44 36.1699 87.516 35.3957 86.772C34.645 86.028 33.4837 85.656 31.9118 85.656C30.4807 85.656 29.0848 85.992 27.7241 86.664C26.3634 87.312 25.249 88.296 24.3809 89.616C23.5364 90.936 23.1141 92.532 23.1141 94.404C23.1141 95.292 23.1962 95.916 23.3604 96.276C23.5246 96.612 23.6067 96.804 23.6067 96.852C22.3633 96.852 21.4249 96.6 20.7915 96.096C20.158 95.568 19.8413 94.716 19.8413 93.54C19.8413 91.908 20.4396 90.36 21.6361 88.896C22.8325 87.432 24.4161 86.256 26.3868 85.368C28.3575 84.456 30.4338 84 32.6156 84C34.2579 84 35.6421 84.264 36.7682 84.792C37.8943 85.32 38.7272 86.016 39.2667 86.88C39.8298 87.744 40.1113 88.692 40.1113 89.724C40.1113 90.828 39.8063 91.896 39.1964 92.928C38.5864 93.96 37.7183 94.8 36.5922 95.448C37.9999 95.712 39.0439 96.384 39.7242 97.464C40.4046 98.52 40.7448 99.78 40.7448 101.244C40.7448 102.612 40.4867 104.1 39.9706 105.708C39.4779 107.316 38.645 108.708 37.472 109.884C36.3224 111.036 34.8444 111.612 33.0379 111.612ZM47.1012 111.144C45.3652 111.144 43.9927 110.688 42.9839 109.776C41.9751 108.864 41.4707 107.424 41.4707 105.456C41.4707 103.824 41.7991 102.012 42.456 100.02C43.1129 98.028 44.1687 96.312 45.6232 94.872C47.0778 93.408 48.9077 92.676 51.113 92.676C54.116 92.676 55.6175 94.596 55.6175 98.436V98.472C55.6879 98.496 55.8169 98.508 56.0046 98.508C56.7788 98.508 57.6703 98.304 58.6791 97.896C59.6879 97.464 60.6029 96.948 61.424 96.348L61.7407 97.32C61.0603 98.064 60.1688 98.7 59.0662 99.228C57.987 99.732 56.8022 100.092 55.5119 100.308C55.3242 102.492 54.8433 104.4 54.0691 106.032C53.2949 107.664 52.2978 108.924 51.0778 109.812C49.8579 110.7 48.5323 111.144 47.1012 111.144ZM48.5089 107.904C49.0719 107.904 49.635 107.58 50.1981 106.932C50.7611 106.26 51.2538 105.36 51.6761 104.232C52.0984 103.08 52.4034 101.808 52.591 100.416C51.9576 100.272 51.6409 99.768 51.6409 98.904C51.6409 97.92 52.0045 97.272 52.7318 96.96C52.6849 96.168 52.5676 95.628 52.3799 95.34C52.1922 95.028 51.8638 94.872 51.3945 94.872C50.6203 94.872 49.8696 95.448 49.1423 96.6C48.415 97.752 47.8285 99.132 47.3828 100.74C46.937 102.348 46.7141 103.764 46.7141 104.988C46.7141 106.14 46.8432 106.92 47.1012 107.328C47.3593 107.712 47.8285 107.904 48.5089 107.904ZM62.5659 111.144C60.8298 111.144 59.4574 110.688 58.4486 109.776C57.4398 108.864 56.9354 107.424 56.9354 105.456C56.9354 103.824 57.2638 102.012 57.9207 100.02C58.5776 98.028 59.6333 96.312 61.0879 94.872C62.5425 93.408 64.3724 92.676 66.5777 92.676C69.5807 92.676 71.0822 94.596 71.0822 98.436V98.472C71.1525 98.496 71.2816 98.508 71.4693 98.508C72.2435 98.508 73.135 98.304 74.1438 97.896C75.1526 97.464 76.0675 96.948 76.8887 96.348L77.2054 97.32C76.525 98.064 75.6335 98.7 74.5309 99.228C73.4517 99.732 72.2669 100.092 70.9766 100.308C70.7889 102.492 70.308 104.4 69.5338 106.032C68.7596 107.664 67.7625 108.924 66.5425 109.812C65.3226 110.7 63.997 111.144 62.5659 111.144ZM63.9736 107.904C64.5366 107.904 65.0997 107.58 65.6627 106.932C66.2258 106.26 66.7185 105.36 67.1408 104.232C67.5631 103.08 67.868 101.808 68.0557 100.416C67.4223 100.272 67.1056 99.768 67.1056 98.904C67.1056 97.92 67.4692 97.272 68.1965 96.96C68.1496 96.168 68.0323 95.628 67.8446 95.34C67.6569 95.028 67.3285 94.872 66.8592 94.872C66.085 94.872 65.3343 95.448 64.607 96.6C63.8797 97.752 63.2932 99.132 62.8475 100.74C62.4017 102.348 62.1788 103.764 62.1788 104.988C62.1788 106.14 62.3079 106.92 62.5659 107.328C62.824 107.712 63.2932 107.904 63.9736 107.904ZM86.1248 111.216C84.6702 111.216 83.5675 110.868 82.8168 110.172C82.0661 109.452 81.6907 108.432 81.6907 107.112C81.6907 106.536 81.7611 105.912 81.9018 105.24L82.1834 103.836C82.2772 103.428 82.3241 102.984 82.3241 102.504C82.3241 101.352 81.9018 100.776 81.0572 100.776C80.6819 100.776 80.283 100.884 79.8608 101.1C79.4619 101.316 78.9927 101.652 78.4531 102.108L76.6232 111H71.5557L76.6584 86.52L81.8666 85.8L79.2273 98.472L86.0192 93H89.5031L82.4649 98.004C82.8168 97.908 83.2039 97.86 83.6262 97.86C84.8931 97.86 85.855 98.256 86.5118 99.048C87.1687 99.84 87.4972 100.848 87.4972 102.072C87.4972 102.576 87.4503 103.032 87.3564 103.44L86.9693 105.24C86.852 105.672 86.7934 106.056 86.7934 106.392C86.7934 107.28 87.2509 107.724 88.1658 107.724C88.8696 107.724 89.4327 107.472 89.855 106.968C90.2773 106.44 90.6996 105.636 91.1219 104.556H92.5999C91.1453 108.996 88.987 111.216 86.1248 111.216ZM95.1188 111.216C93.9927 111.216 93.0425 111 92.2683 110.568C91.4941 110.112 90.9193 109.536 90.544 108.84C90.1686 108.12 89.9809 107.376 89.9809 106.608C89.9809 105.816 90.1686 105.132 90.544 104.556C90.8959 103.956 91.3299 103.524 91.846 103.26C92.761 101.58 93.5587 99.888 94.239 98.184C94.9194 96.456 95.5645 94.596 96.1745 92.604L101.383 91.884C101.5 94.956 101.7 98.28 101.981 101.856C102.098 103.296 102.157 104.34 102.157 104.988C102.157 105.54 102.11 105.996 102.016 106.356C103.119 105.708 103.963 105.108 104.55 104.556H106.028C104.527 106.332 102.732 107.832 100.644 109.056C99.9634 109.8 99.1188 110.352 98.11 110.712C97.1247 111.048 96.1276 111.216 95.1188 111.216ZM93.9927 108.372C94.8607 108.372 95.588 108.108 96.1745 107.58C96.761 107.052 97.0543 106.2 97.0543 105.024C97.0543 104.304 96.9839 103.296 96.8432 102C96.6085 99.264 96.456 97.428 96.3857 96.492C95.8226 98.388 94.8725 100.656 93.5352 103.296C94.0748 103.584 94.3446 104.004 94.3446 104.556C94.3446 105.012 94.1921 105.42 93.8871 105.78C93.6056 106.14 93.2419 106.32 92.7962 106.32C92.3035 106.32 91.9868 106.164 91.846 105.852C91.846 106.716 92.0102 107.352 92.3387 107.76C92.6906 108.168 93.2419 108.372 93.9927 108.372ZM117.248 111.216C115.817 111.216 114.761 110.832 114.081 110.064C113.424 109.272 113.096 108.3 113.096 107.148C113.096 106.644 113.154 106.08 113.271 105.456C113.389 104.808 113.506 104.184 113.623 103.584C113.764 102.984 113.858 102.6 113.905 102.432C114.093 101.592 114.269 100.764 114.433 99.948C114.597 99.132 114.679 98.472 114.679 97.968C114.679 96.744 114.257 96.132 113.412 96.132C112.802 96.132 112.263 96.444 111.793 97.068C111.324 97.668 110.949 98.46 110.667 99.444L108.274 111H103.207L108.31 86.52L113.518 85.8L111.618 94.872C112.791 93.528 114.163 92.856 115.735 92.856C116.931 92.856 117.882 93.192 118.585 93.864C119.289 94.536 119.641 95.556 119.641 96.924C119.641 97.62 119.559 98.4 119.395 99.264C119.23 100.104 118.996 101.136 118.691 102.36C118.503 103.104 118.327 103.836 118.163 104.556C118.022 105.252 117.952 105.804 117.952 106.212C117.952 106.692 118.057 107.064 118.269 107.328C118.48 107.592 118.843 107.724 119.36 107.724C120.063 107.724 120.626 107.472 121.049 106.968C121.471 106.44 121.893 105.636 122.316 104.556H123.794C122.926 107.196 121.917 108.972 120.767 109.884C119.641 110.772 118.468 111.216 117.248 111.216ZM127.344 111.216C125.608 111.216 124.259 110.76 123.297 109.848C122.335 108.912 121.854 107.46 121.854 105.492C121.854 103.836 122.171 102.012 122.804 100.02C123.438 98.028 124.47 96.312 125.901 94.872C127.332 93.408 129.15 92.676 131.356 92.676C133.936 92.676 135.227 93.828 135.227 96.132C135.227 97.476 134.851 98.712 134.1 99.84C133.35 100.968 132.353 101.88 131.109 102.576C129.866 103.248 128.54 103.632 127.133 103.728C127.086 104.448 127.062 104.928 127.062 105.168C127.062 106.344 127.262 107.148 127.661 107.58C128.059 107.988 128.705 108.192 129.596 108.192C130.863 108.192 131.942 107.892 132.834 107.292C133.749 106.692 134.746 105.78 135.825 104.556H137.021C134.417 108.996 131.191 111.216 127.344 111.216ZM127.414 102C128.282 101.952 129.103 101.64 129.878 101.064C130.675 100.488 131.309 99.756 131.778 98.868C132.271 97.98 132.517 97.044 132.517 96.06C132.517 95.076 132.224 94.584 131.637 94.584C130.792 94.584 129.96 95.34 129.139 96.852C128.341 98.364 127.766 100.08 127.414 102ZM139.301 111.216C138.175 111.216 137.26 110.856 136.556 110.136C135.876 109.416 135.536 108.336 135.536 106.896C135.536 106.296 135.63 105.516 135.817 104.556L139.583 86.52L144.791 85.8L140.744 105.24C140.65 105.6 140.603 105.984 140.603 106.392C140.603 106.872 140.709 107.22 140.92 107.436C141.155 107.628 141.53 107.724 142.046 107.724C142.727 107.724 143.36 107.436 143.947 106.86C144.533 106.26 144.955 105.492 145.213 104.556H146.691C145.823 107.148 144.709 108.912 143.348 109.848C141.988 110.76 140.639 111.216 139.301 111.216ZM142.032 120C140.93 120 139.968 119.628 139.147 118.884C138.302 118.164 137.88 117.24 137.88 116.112C137.88 115.08 138.138 114.228 138.654 113.556C139.17 112.884 139.839 112.344 140.66 111.936C141.481 111.552 142.572 111.144 143.933 110.712L148.191 90.156C148.66 87.852 149.481 86.256 150.654 85.368C151.851 84.48 153.164 84.036 154.596 84.036C155.698 84.036 156.66 84.408 157.481 85.152C158.326 85.872 158.748 86.796 158.748 87.924C158.748 88.476 158.713 88.968 158.642 89.4H156.988C157.035 88.872 157.059 88.548 157.059 88.428C157.059 88.044 156.93 87.744 156.672 87.528C156.414 87.312 156.097 87.204 155.722 87.204C155.229 87.204 154.748 87.432 154.279 87.888C153.81 88.32 153.469 89.076 153.258 90.156L152.66 93H155.229L154.983 94.44H152.378L148.332 113.88C147.862 116.208 147.053 117.804 145.903 118.668C144.754 119.556 143.463 120 142.032 120ZM141.223 116.796C142.161 116.796 142.83 115.86 143.229 113.988L143.686 111.9C142.443 112.332 141.493 112.824 140.836 113.376C140.155 113.952 139.815 114.696 139.815 115.608C139.815 115.896 139.956 116.16 140.238 116.4C140.519 116.664 140.848 116.796 141.223 116.796Z" fill="black"/>
</svg>
